<svg xmlns="http://www.w3.org/2000/svg" style="display: none;">
    <symbol id="icon_header_map" viewBox="0 0 15 20">
        <path d="M7.5 0C3.365 0 0 3.38833 0 7.55417C0 13.4733 6.795 19.585 7.08417 19.8417C7.20333 19.9475 7.35167 20 7.5 20C7.64833 20 7.79667 19.9475 7.91583 19.8425C8.205 19.585 15 13.4733 15 7.55417C15 3.38833 11.635 0 7.5 0ZM7.5 11.6667C5.2025 11.6667 3.33333 9.7975 3.33333 7.5C3.33333 5.2025 5.2025 3.33333 7.5 3.33333C9.7975 3.33333 11.6667 5.2025 11.6667 7.5C11.6667 9.7975 9.7975 11.6667 7.5 11.6667Z"
              fill="currentColor"/>
    </symbol>
    <symbol id="icon_header_phone" viewBox="0 0 20 20">
        <path d="M15.2055 13.2304C14.5521 12.5853 13.7363 12.5853 13.0871 13.2304C12.5918 13.7215 12.0965 14.2126 11.6096 14.712C11.4764 14.8493 11.364 14.8785 11.2017 14.7869C10.8812 14.6121 10.54 14.4706 10.232 14.2792C8.79613 13.3761 7.59334 12.2149 6.52789 10.9081C5.99932 10.2589 5.52903 9.56384 5.20024 8.78142C5.13365 8.62327 5.14613 8.51922 5.27515 8.39021C5.77042 7.9116 6.2532 7.42051 6.74014 6.92941C7.41854 6.24688 7.41854 5.44781 6.73598 4.76111C6.34893 4.3699 5.96187 3.98701 5.57481 3.5958C5.17527 3.19627 4.77988 2.79257 4.37618 2.3972C3.72276 1.76045 2.90702 1.76045 2.25777 2.40136C1.75834 2.89246 1.27972 3.39604 0.771963 3.87881C0.301666 4.32412 0.0644373 4.86932 0.0144944 5.50607C-0.064582 6.54236 0.189295 7.52039 0.547219 8.47344C1.27972 10.4461 2.39511 12.1983 3.74773 13.8047C5.57481 15.9772 7.75565 17.696 10.3069 18.9362C11.4556 19.4939 12.6459 19.9226 13.9403 19.9933C14.8309 20.0433 15.605 19.8185 16.2251 19.1235C16.6497 18.6491 17.1283 18.2162 17.5778 17.7626C18.2437 17.0884 18.2478 16.2727 17.5861 15.6068C16.7953 14.8119 16.0004 14.0211 15.2055 13.2304Z"
              fill="currentColor"/>
        <path d="M14.4106 9.91343L15.9463 9.65123C15.7049 8.24038 15.039 6.96271 14.0277 5.94722C12.958 4.87764 11.6054 4.20343 10.1155 3.99534L9.89904 5.53937C11.0519 5.70168 12.1007 6.2219 12.9289 7.0501C13.7113 7.83252 14.2233 8.82304 14.4106 9.91343Z"
              fill="currentColor"/>
        <path d="M16.812 3.23789C15.039 1.46496 12.7957 0.34543 10.3194 0L10.103 1.54403C12.2422 1.84368 14.1816 2.81338 15.7132 4.34077C17.1657 5.79324 18.1188 7.6286 18.4643 9.64707L20 9.38488C19.5963 7.04594 18.4934 4.92342 16.812 3.23789Z"
              fill="currentColor"/>
    </symbol>
    <symbol id="icon_news_date" viewBox="0 0 16 16">
        <path d="M5.65209 8.82716C5.65209 8.62673 5.48952 8.46436 5.28892 8.46436H4.02161C3.82125 8.46436 3.65865 8.62673 3.65865 8.82716V10.0943C3.65865 10.295 3.82125 10.4574 4.02161 10.4574H5.28892C5.48952 10.4574 5.65209 10.295 5.65209 10.0943V8.82716Z"
              fill="currentColor"/>
        <path d="M8.81924 8.82716C8.81924 8.62673 8.65663 8.46436 8.45644 8.46436H7.18897C6.98861 8.46436 6.826 8.62673 6.826 8.82716V10.0943C6.826 10.295 6.98861 10.4574 7.18897 10.4574H8.45644C8.65663 10.4574 8.81924 10.295 8.81924 10.0943V8.82716Z"
              fill="currentColor"/>
        <path d="M11.9866 8.82716C11.9866 8.62673 11.824 8.46436 11.6237 8.46436H10.3563C10.1558 8.46436 9.99318 8.62673 9.99318 8.82716V10.0943C9.99318 10.295 10.1558 10.4574 10.3563 10.4574H11.6237C11.824 10.4574 11.9866 10.295 11.9866 10.0943V8.82716Z"
              fill="currentColor"/>
        <path d="M5.65209 11.9946C5.65209 11.7938 5.48952 11.6316 5.28892 11.6316H4.02161C3.82125 11.6316 3.65865 11.7938 3.65865 11.9946V13.2615C3.65865 13.4621 3.82125 13.6245 4.02161 13.6245H5.28892C5.48952 13.6245 5.65209 13.462 5.65209 13.2615V11.9946Z"
              fill="currentColor"/>
        <path d="M8.81924 11.9946C8.81924 11.7938 8.65663 11.6316 8.45644 11.6316H7.18897C6.98861 11.6316 6.826 11.7938 6.826 11.9946V13.2615C6.826 13.4621 6.98861 13.6245 7.18897 13.6245H8.45644C8.65663 13.6245 8.81924 13.462 8.81924 13.2615V11.9946Z"
              fill="currentColor"/>
        <path d="M11.9866 11.9946C11.9866 11.7938 11.824 11.6316 11.6238 11.6316H10.3563C10.1558 11.6316 9.99318 11.7938 9.99318 11.9946V13.2615C9.99318 13.4621 10.1558 13.6245 10.3563 13.6245H11.6238C11.824 13.6245 11.9866 13.462 11.9866 13.2615V11.9946Z"
              fill="currentColor"/>
        <path d="M14.2527 1.78161V3.71707C14.2527 4.59188 13.543 5.29684 12.6683 5.29684H11.6689C10.7941 5.29684 10.0751 4.59188 10.0751 3.71707V1.77466H5.57023V3.71707C5.57023 4.59188 4.85118 5.29684 3.97656 5.29684H2.97691C2.10226 5.29684 1.39262 4.59188 1.39262 3.71707V1.78161C0.628165 1.80465 0 2.43721 0 3.2147V14.5574C0 15.3495 0.642029 16.0001 1.43414 16.0001H14.2111C15.0021 16.0001 15.6453 15.3482 15.6453 14.5574V3.2147C15.6453 2.43721 15.0172 1.80465 14.2527 1.78161ZM13.7885 13.8511C13.7885 14.1934 13.5109 14.4711 13.1685 14.4711H2.4495C2.10705 14.4711 1.8295 14.1934 1.8295 13.8511V7.99216C1.8295 7.64971 2.10702 7.372 2.4495 7.372H13.1685C13.5109 7.372 13.7885 7.64971 13.7885 7.99216L13.7885 13.8511Z"
              fill="currentColor"/>
        <path d="M2.97343 4.25917H3.96204C4.26211 4.25917 4.50541 4.01622 4.50541 3.71615V0.543208C4.50541 0.243105 4.26211 0 3.96204 0H2.97343C2.67332 0 2.43005 0.243105 2.43005 0.543208V3.71615C2.43005 4.01622 2.67332 4.25917 2.97343 4.25917Z"
              fill="currentColor"/>
        <path d="M11.6562 4.25917H12.6448C12.9447 4.25917 13.188 4.01622 13.188 3.71615V0.543208C13.188 0.243105 12.9447 0 12.6448 0H11.6562C11.3561 0 11.1128 0.243105 11.1128 0.543208V3.71615C11.1128 4.01622 11.3561 4.25917 11.6562 4.25917Z"
              fill="currentColor"/>
    </symbol>
    <symbol id="icon_news_view" viewBox="0 0 21 13">
        <path d="M10.5 0C6.48773 0 2.84919 2.19515 0.164314 5.76066C-0.0547714 6.05278 -0.0547714 6.46088 0.164314 6.75299C2.84919 10.3228 6.48773 12.518 10.5 12.518C14.5123 12.518 18.1508 10.3228 20.8357 6.75729C21.0548 6.46517 21.0548 6.05707 20.8357 5.76496C18.1508 2.19515 14.5123 0 10.5 0ZM10.7878 10.6665C8.12442 10.834 5.92498 8.63885 6.09251 5.97116C6.22998 3.77171 8.01273 1.98895 10.2122 1.85149C12.8756 1.68395 15.075 3.8791 14.9075 6.54679C14.7657 8.74195 12.983 10.5247 10.7878 10.6665ZM10.6546 8.63025C9.21985 8.72047 8.03421 7.53912 8.12872 6.10433C8.20175 4.91869 9.16401 3.96072 10.3496 3.8834C11.7844 3.79319 12.9701 4.97453 12.8756 6.40933C12.7983 7.59926 11.836 8.55723 10.6546 8.63025Z"
              fill="currentColor"/>
    </symbol>
    <symbol id="icon_infrastructure_info_icon_1" viewBox="0 0 32 32">
        <path d="M11.5869 30.9331C11.4707 30.8169 11.3095 30.75 11.145 30.75C10.9806 30.75 10.8194 30.8169 10.7032 30.9331C10.587 31.0494 10.52 31.2106 10.52 31.375C10.52 31.5394 10.5869 31.7006 10.7032 31.8169C10.8194 31.9331 10.9806 32 11.145 32C11.3095 32 11.4707 31.9331 11.5869 31.8169C11.7031 31.7006 11.77 31.5394 11.77 31.375C11.77 31.2106 11.7032 31.0494 11.5869 30.9331Z"
              fill="black"/>
        <path d="M22.1824 25.9482C21.8373 25.9482 21.5574 26.2281 21.5574 26.5732C21.5574 27.7362 20.6112 28.6825 19.4482 28.6825C19.1031 28.6825 18.8232 28.9623 18.8232 29.3075C18.8232 29.6527 19.1031 29.9325 19.4482 29.9325C21.3005 29.9325 22.8074 28.4256 22.8074 26.5732C22.8074 26.2281 22.5276 25.9482 22.1824 25.9482Z"
              fill="black"/>
        <path d="M26.75 0C23.8552 0 21.5 2.35512 21.5 5.25V12.75C21.5 15.4333 23.5239 17.6514 26.125 17.9615V23.4375H23.8754C22.8912 22.0519 21.2736 21.1462 19.4484 21.1462C18.9706 21.1462 18.5069 21.2086 18.0651 21.3251L15.9805 16H18.5222C18.669 16 18.7981 16.0938 18.8436 16.2334C18.8899 16.3759 18.8334 16.4844 18.7956 16.5364C18.7578 16.5885 18.672 16.6758 18.5222 16.6758H17.8833C17.5382 16.6758 17.2583 16.9556 17.2583 17.3008C17.2583 17.6459 17.5382 17.9258 17.8833 17.9258H18.5222C19.0364 17.9258 19.5047 17.6871 19.8069 17.2711C20.1091 16.8551 20.1912 16.3359 20.0323 15.847C19.819 15.1909 19.2122 14.75 18.5221 14.75H15.0646C14.8579 14.75 14.6648 14.8521 14.5483 15.0227C14.4318 15.1933 14.4072 15.4105 14.4826 15.6028L15.6564 18.6012H10.4622L9.99181 17.5252L9.81413 17.0724C9.72025 16.8331 9.48944 16.6758 9.23231 16.6758H6.51469C5.98931 16.6758 5.49888 16.9349 5.20294 17.369C4.90694 17.8031 4.84481 18.3543 5.03675 18.8434C5.277 19.4556 5.85713 19.8512 6.51469 19.8512H8.58606L7.58075 21.5924C6.92006 21.3056 6.19175 21.1462 5.42681 21.1462C2.4345 21.1462 0 23.5808 0 26.5731C0 28.2513 0.765687 29.7537 1.966 30.75H0.625C0.279875 30.75 0 31.0298 0 31.375C0 31.7202 0.279875 32 0.625 32H5.42688C8.20788 32 10.5066 29.8972 10.8176 27.1981H13.2652C13.4761 27.1981 13.6727 27.0917 13.7882 26.9153C13.9037 26.7388 13.9223 26.516 13.8379 26.3228L11.0087 19.8512H16.1458L16.9017 21.7822C15.1895 22.696 14.0215 24.5006 14.0215 26.5731C14.0215 28.2513 14.7872 29.7537 15.9875 30.75H13.77C13.4249 30.75 13.145 31.0298 13.145 31.375C13.145 31.7202 13.4249 32 13.77 32H19.4484C22.4408 32 24.8752 29.5655 24.8752 26.5731C24.8752 25.9104 24.7556 25.2751 24.5372 24.6876H29.0208C29.3659 24.6876 29.6458 24.4078 29.6458 24.0626C29.6458 23.7174 29.3659 23.4376 29.0208 23.4376H27.375V17.9616C29.9761 17.6514 32 15.4333 32 12.7501V5.25C32 2.35512 29.6448 0 26.75 0ZM6.51469 18.6012C6.37481 18.6012 6.25144 18.5171 6.20031 18.3869C6.14363 18.2423 6.19813 18.1283 6.23569 18.0732C6.27325 18.0182 6.35938 17.9258 6.51469 17.9258H8.80619L9.07125 18.6012H6.51469ZM5.42688 30.75C3.12369 30.75 1.25 28.8763 1.25 26.5731C1.25 24.27 3.12369 22.3962 5.42688 22.3962C5.96425 22.3962 6.47769 22.4994 6.95 22.6851L4.88562 26.2606C4.774 26.454 4.774 26.6923 4.88562 26.8856C4.99725 27.079 5.20363 27.1981 5.42688 27.1981H7.44156C7.17456 28.0569 6.37238 28.6824 5.42688 28.6824C5.08175 28.6824 4.80188 28.9622 4.80188 29.3074C4.80188 29.6526 5.08175 29.9324 5.42688 29.9324C7.06556 29.9324 8.43306 28.7527 8.72694 27.1981H9.55688C9.25431 29.2058 7.51762 30.75 5.42688 30.75ZM6.50938 25.9481L8.03169 23.3115C8.83475 23.9541 9.39675 24.8859 9.55688 25.9481H6.50938ZM12.3098 25.9481H10.8176C10.6421 24.4249 9.83369 23.0916 8.66244 22.2189L9.81031 20.2307L12.3098 25.9481ZM19.4484 30.75C17.1452 30.75 15.2715 28.8763 15.2715 26.5731C15.2715 25.0298 16.1136 23.6803 17.3617 22.9572L18.8664 26.801C18.9629 27.0476 19.1988 27.1983 19.4486 27.1983C19.5243 27.1983 19.6014 27.1844 19.6763 27.1551C19.9977 27.0292 20.1562 26.6667 20.0304 26.3452L18.5252 22.5003C18.8224 22.4329 19.1311 22.3962 19.4484 22.3962C21.7516 22.3962 23.6253 24.2699 23.6253 26.5731C23.6253 28.8762 21.7516 30.75 19.4484 30.75ZM30.75 12.75C30.75 14.743 29.2847 16.3999 27.375 16.7009V14.1019L29.0404 12.3238C29.2764 12.0719 29.2634 11.6764 29.0115 11.4404C28.7597 11.2045 28.3641 11.2174 28.1281 11.4693L27.375 12.2732V10.2625L29.0404 8.48444C29.2764 8.2325 29.2634 7.837 29.0115 7.601C28.7597 7.36506 28.3641 7.378 28.1281 7.62988L27.375 8.43394V7.34375C27.375 6.99856 27.0951 6.71875 26.75 6.71875C26.4049 6.71875 26.125 6.99856 26.125 7.34375V10.158L25.4816 9.47106C25.2456 9.21912 24.8501 9.20625 24.5981 9.44219C24.3462 9.67812 24.3333 10.0737 24.5692 10.3256L26.125 11.9866V16.7008C24.2153 16.3998 22.75 14.7429 22.75 12.7499V5.25C22.75 3.04437 24.5444 1.25 26.75 1.25C28.9556 1.25 30.75 3.04437 30.75 5.25V12.75Z"
              fill="black"/>
        <path d="M31.3749 23.4375H31.3667C31.0216 23.4375 30.7417 23.7173 30.7417 24.0625C30.7417 24.4077 31.0216 24.6875 31.3667 24.6875H31.3749C31.72 24.6875 31.9999 24.4077 31.9999 24.0625C31.9999 23.7173 31.72 23.4375 31.3749 23.4375Z"
              fill="black"/>
        <path d="M14.9271 8.66662H13.8901C14.1361 8.16675 14.2685 7.61231 14.2685 7.04569C14.2685 5.02162 12.6218 3.375 10.5978 3.375C9.09056 3.375 7.77112 4.29419 7.21219 5.62725C6.85369 5.45481 6.45744 5.36225 6.05206 5.36225C4.57594 5.36219 3.375 6.56312 3.375 8.03925C3.375 8.63606 3.56769 9.20112 3.93213 9.67343C4.0505 9.82675 4.23319 9.91662 4.42694 9.91662H14.9271C15.2722 9.91662 15.5521 9.63681 15.5521 9.29162C15.5521 8.94643 15.2722 8.66662 14.9271 8.66662ZM12.3951 8.66656H4.76987C4.67456 8.47293 4.625 8.26018 4.625 8.03925C4.625 7.25237 5.26519 6.61219 6.05206 6.61219C6.45537 6.61219 6.84187 6.78425 7.11237 7.08431C7.27619 7.266 7.53081 7.33544 7.76419 7.26194C7.9975 7.1885 8.16656 6.98575 8.19681 6.743C8.34706 5.5355 9.37925 4.62494 10.5977 4.62494C11.9325 4.62494 13.0184 5.71087 13.0184 7.04562C13.0184 7.645 12.7936 8.224 12.3951 8.66656Z"
              fill="black"/>
    </symbol>
    <symbol id="icon_infrastructure_info_icon_2" viewBox="0 0 40 40">
        <path d="M34.4901 18.5601H5.49014C5.33101 18.5601 5.17839 18.6233 5.06587 18.7358C4.95335 18.8483 4.89014 19.0009 4.89014 19.1601V35.0001C4.89014 35.1592 4.95335 35.3118 5.06587 35.4243C5.17839 35.5368 5.33101 35.6001 5.49014 35.6001H34.4901C34.6493 35.6001 34.8019 35.5368 34.9144 35.4243C35.0269 35.3118 35.0901 35.1592 35.0901 35.0001V19.1601C35.0901 19.0009 35.0269 18.8483 34.9144 18.7358C34.8019 18.6233 34.6493 18.5601 34.4901 18.5601ZM33.8901 34.4001H6.11014V19.7601H33.8901V34.4001Z"
              fill="black"/>
        <path d="M20.0002 32.2601C22.3802 32.2601 24.3202 29.9401 24.3202 27.0901C24.3202 24.2401 22.3702 21.9201 20.0002 21.9201C17.6302 21.9201 15.6802 24.2401 15.6802 27.0901C15.6802 29.9401 17.6002 32.2601 20.0002 32.2601ZM20.0002 23.1201C21.7202 23.1201 23.1202 24.9001 23.1202 27.1201C23.1202 29.3401 21.7202 31.1201 20.0002 31.1201C18.2802 31.1201 16.8802 29.3401 16.8802 27.1201C16.8802 24.9001 18.2602 23.1301 20.0002 23.1301V23.1201ZM8.81019 30.3101C9.17619 30.3101 9.5272 30.4555 9.786 30.7143C10.0448 30.9731 10.1902 31.3241 10.1902 31.6901C10.1902 31.8492 10.2534 32.0018 10.3659 32.1143C10.4784 32.2269 10.6311 32.2901 10.7902 32.2901H14.2102C14.3693 32.2901 14.5219 32.2269 14.6345 32.1143C14.747 32.0018 14.8102 31.8492 14.8102 31.6901C14.8102 31.5309 14.747 31.3783 14.6345 31.2658C14.5219 31.1533 14.3693 31.0901 14.2102 31.0901H11.3302C11.2184 30.6268 10.9809 30.2033 10.6439 29.8664C10.3069 29.5294 9.88346 29.2919 9.42019 29.1801V25.0001C9.88346 24.8882 10.3069 24.6508 10.6439 24.3138C10.9809 23.9768 11.2184 23.5533 11.3302 23.0901H14.2202C14.3793 23.0901 14.5319 23.0269 14.6445 22.9143C14.757 22.8018 14.8202 22.6492 14.8202 22.4901C14.8202 22.3309 14.757 22.1783 14.6445 22.0658C14.5319 21.9533 14.3793 21.8901 14.2202 21.8901H10.8002C10.7214 21.8901 10.6434 21.9056 10.5706 21.9357C10.4978 21.9659 10.4316 22.0101 10.3759 22.0658C10.3202 22.1215 10.276 22.1877 10.2459 22.2605C10.2157 22.3333 10.2002 22.4113 10.2002 22.4901C10.2002 22.8561 10.0548 23.2071 9.796 23.4659C9.5372 23.7247 9.18619 23.8701 8.82019 23.8701C8.66106 23.8701 8.50845 23.9333 8.39592 24.0458C8.2834 24.1583 8.22019 24.3109 8.22019 24.4701V29.7001C8.21886 29.7789 8.23308 29.8571 8.26201 29.9304C8.29095 30.0038 8.33404 30.0706 8.38883 30.1273C8.44362 30.1839 8.50903 30.2292 8.58133 30.2606C8.65362 30.292 8.73139 30.3088 8.81019 30.3101ZM28.6102 31.0601H25.7202C25.5611 31.0601 25.4084 31.1233 25.2959 31.2358C25.1834 31.3483 25.1202 31.5009 25.1202 31.6601C25.1202 31.8192 25.1834 31.9718 25.2959 32.0843C25.4084 32.1968 25.5611 32.2601 25.7202 32.2601H29.1402C29.2993 32.2601 29.4519 32.1968 29.5645 32.0843C29.677 31.9718 29.7402 31.8192 29.7402 31.6601C29.7402 31.2941 29.8856 30.9431 30.1444 30.6843C30.4032 30.4255 30.7542 30.2801 31.1202 30.2801C31.199 30.2801 31.277 30.2645 31.3498 30.2344C31.4226 30.2042 31.4887 30.16 31.5445 30.1043C31.6002 30.0486 31.6444 29.9825 31.6745 29.9097C31.7047 29.8369 31.7202 29.7589 31.7202 29.6801V24.4801C31.7202 24.4013 31.7047 24.3232 31.6745 24.2505C31.6444 24.1777 31.6002 24.1115 31.5445 24.0558C31.4887 24.0001 31.4226 23.9559 31.3498 23.9257C31.277 23.8956 31.199 23.8801 31.1202 23.8801C30.7542 23.8801 30.4032 23.7347 30.1444 23.4759C29.8856 23.2171 29.7402 22.8661 29.7402 22.5001C29.7402 22.3409 29.677 22.1883 29.5645 22.0758C29.4519 21.9633 29.2993 21.9001 29.1402 21.9001H25.7202C25.5611 21.9001 25.4084 21.9633 25.2959 22.0758C25.1834 22.1883 25.1202 22.3409 25.1202 22.5001C25.1202 22.6592 25.1834 22.8118 25.2959 22.9243C25.4084 23.0369 25.5611 23.1001 25.7202 23.1001H28.6102C28.7244 23.5628 28.9641 23.985 29.3029 24.3202C29.6416 24.6554 30.0663 24.8907 30.5302 25.0001V29.1401C30.0638 29.2511 29.6374 29.4893 29.2984 29.8283C28.9594 30.1673 28.7212 30.5937 28.6102 31.0601ZM32.7502 4.40006H7.25019C6.87395 4.39602 6.50071 4.46732 6.15246 4.60974C5.8042 4.75216 5.48796 4.96284 5.22237 5.22936C4.95678 5.49588 4.74722 5.81285 4.60602 6.1616C4.46481 6.51036 4.39483 6.88385 4.40019 7.26007V12.1301C4.39887 12.5056 4.47155 12.8778 4.61406 13.2253C4.75658 13.5728 4.96614 13.8888 5.23079 14.1553C5.49543 14.4218 5.80998 14.6336 6.15647 14.7785C6.50296 14.9235 6.87461 14.9988 7.25019 15.0001H8.66019C8.81932 15.0001 8.97193 14.9369 9.08445 14.8243C9.19697 14.7118 9.26019 14.5592 9.26019 14.4001C9.26019 14.2409 9.19697 14.0883 9.08445 13.9758C8.97193 13.8633 8.81932 13.8001 8.66019 13.8001H7.25019C7.03134 13.7988 6.81492 13.7542 6.61336 13.6689C6.4118 13.5837 6.22909 13.4594 6.07574 13.3033C5.92239 13.1471 5.80143 12.9622 5.71982 12.7592C5.6382 12.5561 5.59755 12.3389 5.60019 12.1201V7.26007C5.59753 7.04218 5.63831 6.82594 5.72017 6.62399C5.80202 6.42205 5.9233 6.23843 6.07691 6.08389C6.23053 5.92934 6.4134 5.80696 6.61485 5.72388C6.8163 5.64081 7.03229 5.59872 7.25019 5.60006H32.7502C33.1887 5.60271 33.6084 5.77876 33.9175 6.08979C34.2267 6.40081 34.4002 6.82153 34.4002 7.26007V12.1601C34.3976 12.5969 34.2229 13.015 33.914 13.3239C33.6051 13.6328 33.187 13.8074 32.7502 13.8101H31.3402C31.2614 13.8101 31.1834 13.8256 31.1106 13.8557C31.0378 13.8859 30.9716 13.9301 30.9159 13.9858C30.8602 14.0415 30.816 14.1077 30.7859 14.1805C30.7557 14.2533 30.7402 14.3313 30.7402 14.4101C30.7402 14.4889 30.7557 14.5669 30.7859 14.6397C30.816 14.7125 30.8602 14.7786 30.9159 14.8343C30.9716 14.89 31.0378 14.9342 31.1106 14.9644C31.1834 14.9945 31.2614 15.0101 31.3402 15.0101H32.7502C33.5052 15.0074 34.2286 14.7063 34.7625 14.1724C35.2964 13.6385 35.5976 12.9151 35.6002 12.1601V7.26007C35.6002 6.50328 35.3002 5.77733 34.7661 5.24127C34.2319 4.7052 33.507 4.40271 32.7502 4.40006Z"
              fill="black"/>
        <path d="M12.5999 15.82V12.55C12.5999 12.3908 12.5367 12.2382 12.4242 12.1257C12.3116 12.0132 12.159 11.95 11.9999 11.95C11.8408 11.95 11.6882 12.0132 11.5756 12.1257C11.4631 12.2382 11.3999 12.3908 11.3999 12.55V15.83C11.3999 15.9891 11.4631 16.1417 11.5756 16.2542C11.6882 16.3667 11.8408 16.43 11.9999 16.43C12.159 16.43 12.3116 16.3667 12.4242 16.2542C12.5367 16.1417 12.5999 15.9891 12.5999 15.83V15.82ZM16.5899 15.82V10.71C16.5899 10.5508 16.5267 10.3982 16.4142 10.2857C16.3016 10.1732 16.149 10.11 15.9899 10.11C15.8308 10.11 15.6782 10.1732 15.5656 10.2857C15.4531 10.3982 15.3899 10.5508 15.3899 10.71V15.82C15.3899 15.9791 15.4531 16.1317 15.5656 16.2442C15.6782 16.3567 15.8308 16.42 15.9899 16.42C16.149 16.42 16.3016 16.3567 16.4142 16.2442C16.5267 16.1317 16.5899 15.9791 16.5899 15.82ZM20.5799 15.82V9.05996C20.5799 8.90083 20.5167 8.74822 20.4042 8.6357C20.2916 8.52317 20.139 8.45996 19.9799 8.45996C19.8208 8.45996 19.6682 8.52317 19.5556 8.6357C19.4431 8.74822 19.3799 8.90083 19.3799 9.05996V15.82C19.3799 15.9791 19.4431 16.1317 19.5556 16.2442C19.6682 16.3567 19.8208 16.42 19.9799 16.42C20.139 16.42 20.2916 16.3567 20.4042 16.2442C20.5167 16.1317 20.5799 15.9791 20.5799 15.82ZM24.5799 15.82V10.71C24.5799 10.5508 24.5167 10.3982 24.4042 10.2857C24.2916 10.1732 24.139 10.11 23.9799 10.11C23.8208 10.11 23.6682 10.1732 23.5556 10.2857C23.4431 10.3982 23.3799 10.5508 23.3799 10.71V15.82C23.3799 15.9791 23.4431 16.1317 23.5556 16.2442C23.6682 16.3567 23.8208 16.42 23.9799 16.42C24.139 16.42 24.2916 16.3567 24.4042 16.2442C24.5167 16.1317 24.5799 15.9791 24.5799 15.82ZM28.5699 15.82V12.55C28.5699 12.3908 28.5067 12.2382 28.3942 12.1257C28.2816 12.0132 28.129 11.95 27.9699 11.95C27.8108 11.95 27.6582 12.0132 27.5456 12.1257C27.4331 12.2382 27.3699 12.3908 27.3699 12.55V15.83C27.3699 15.9891 27.4331 16.1417 27.5456 16.2542C27.6582 16.3667 27.8108 16.43 27.9699 16.43C28.129 16.43 28.2816 16.3667 28.3942 16.2542C28.5067 16.1417 28.5699 15.9891 28.5699 15.83V15.82Z"
              fill="black"/>
    </symbol>
    <symbol id="icon_infrastructure_info_icon_3" viewBox="0 0 40 40">
        <path d="M17.1599 15.9199L16.4999 15.3999C16.2968 15.2698 16.1222 15.0999 15.9865 14.9006C15.8507 14.7012 15.7566 14.4765 15.7099 14.2399V6.49991C15.7099 6.14452 15.5687 5.80369 15.3174 5.55239C15.0661 5.30109 14.7253 5.15991 14.3699 5.15991H11.7899C11.4345 5.15991 11.0937 5.30109 10.8424 5.55239C10.5911 5.80369 10.4499 6.14452 10.4499 6.49991V14.2599C10.4021 14.4987 10.3066 14.7254 10.1692 14.9265C10.0317 15.1275 9.85508 15.2987 9.64988 15.4299L9.22988 15.7399L8.99988 15.9199C7.61988 16.9999 6.62988 17.7399 6.62988 20.6899V32.1099C6.62988 32.834 6.91751 33.5283 7.42948 34.0403C7.94146 34.5523 8.63584 34.8399 9.35988 34.8399H16.8399C17.5639 34.8399 18.2583 34.5523 18.7703 34.0403C19.2823 33.5283 19.5699 32.834 19.5699 32.1099V20.6899C19.5399 17.7399 18.5399 16.9999 17.1599 15.9199ZM14.5799 7.91991H11.5799V6.49991C11.5823 6.45295 11.602 6.40856 11.6353 6.37531C11.6685 6.34206 11.7129 6.32233 11.7599 6.31991H14.3599C14.4068 6.32233 14.4512 6.34206 14.4845 6.37531C14.5177 6.40856 14.5375 6.45295 14.5399 6.49991L14.5799 7.91991ZM11.5799 14.2599V9.05991H14.5299V14.2599C14.5721 14.6629 14.7034 15.0515 14.9144 15.3974C15.1255 15.7434 15.4108 16.038 15.7499 16.2599C15.7499 16.2599 16.2199 16.6099 16.4099 16.7799C17.7199 17.7799 18.3199 18.2599 18.3199 20.6299V32.1399C18.3199 32.5563 18.1545 32.9556 17.86 33.2501C17.5656 33.5445 17.1663 33.7099 16.7499 33.7099H9.34988C8.93349 33.7099 8.53416 33.5445 8.23973 33.2501C7.94529 32.9556 7.77988 32.5563 7.77988 32.1399V20.6899C7.77988 18.3099 8.37988 17.8499 9.69988 16.8299L10.3599 16.3099C10.7107 16.0861 11.0057 15.785 11.2224 15.4297C11.439 15.0744 11.5716 14.6743 11.6099 14.2599H11.5799Z"
              fill="black"/>
        <path d="M9.6499 20.88V28.41C9.6499 28.5612 9.70996 28.7062 9.81685 28.8131C9.92375 28.92 10.0687 28.98 10.2199 28.98H15.9399C16.0148 28.98 16.0889 28.9653 16.158 28.9366C16.2272 28.908 16.29 28.866 16.343 28.8131C16.3959 28.7601 16.4379 28.6973 16.4665 28.6281C16.4952 28.559 16.5099 28.4849 16.5099 28.41V20.88C16.5113 20.8048 16.4974 20.7301 16.4693 20.6603C16.4411 20.5905 16.3992 20.5271 16.346 20.4739C16.2928 20.4207 16.2294 20.3788 16.1596 20.3506C16.0899 20.3225 16.0151 20.3087 15.9399 20.31H10.2199C10.0687 20.31 9.92375 20.3701 9.81685 20.477C9.70996 20.5839 9.6499 20.7288 9.6499 20.88ZM10.8099 27.82V21.45H15.3699V27.82H10.8099ZM33.3799 21.23C33.2494 18.8584 32.8467 16.5097 32.1799 14.23C32.1518 14.1014 32.0792 13.9867 31.975 13.9063C31.8708 13.8258 31.7415 13.7846 31.6099 13.79H23.1699C23.0435 13.7948 22.9217 13.8387 22.8214 13.9158C22.721 13.9928 22.6471 14.0991 22.6099 14.22C21.9421 16.4995 21.5394 18.8483 21.4099 21.22C21.3526 22.7366 21.88 24.2172 22.883 25.3561C23.8861 26.495 25.2883 27.2052 26.7999 27.34V33.67H24.3899C24.2387 33.67 24.0937 33.7301 23.9869 33.837C23.88 33.9439 23.8199 34.0888 23.8199 34.24C23.8199 34.3912 23.88 34.5362 23.9869 34.6431C24.0937 34.75 24.2387 34.81 24.3899 34.81H30.3899C30.5411 34.81 30.6861 34.75 30.793 34.6431C30.8998 34.5362 30.9599 34.3912 30.9599 34.24C30.9599 34.0888 30.8998 33.9439 30.793 33.837C30.6861 33.7301 30.5411 33.67 30.3899 33.67H27.9999V27.35C29.5088 27.2105 30.9071 26.4986 31.9076 25.3604C32.9081 24.2223 33.4349 22.7444 33.3799 21.23ZM29.1299 17.76C29.1299 17.6088 29.0698 17.4639 28.963 17.357C28.8561 17.2501 28.7111 17.19 28.5599 17.19H23.0899C23.2599 16.41 23.4399 15.6 23.6199 14.95H31.1699C31.75 17.0067 32.0857 19.1247 32.1699 21.26C32.1996 21.9121 32.0968 22.5635 31.8677 23.1748C31.6386 23.786 31.288 24.3445 30.837 24.8165C30.3861 25.2884 29.8441 25.6641 29.2439 25.9208C28.6437 26.1774 27.9977 26.3097 27.3449 26.3097C26.6921 26.3097 26.0461 26.1774 25.4459 25.9208C24.8457 25.6641 24.3037 25.2884 23.8528 24.8165C23.4018 24.3445 23.0512 23.786 22.8221 23.1748C22.593 22.5635 22.4902 21.9121 22.5199 21.26C22.5436 20.2874 22.6405 19.318 22.8099 18.36H28.5199C28.6006 18.3658 28.6817 18.3544 28.7577 18.3264C28.8336 18.2984 28.9028 18.2546 28.9605 18.1979C29.0182 18.1411 29.0631 18.0727 29.0924 17.9972C29.1216 17.9217 29.1344 17.8408 29.1299 17.76Z"
              fill="black"/>
    </symbol>
    <symbol id="icon_infrastructure_info_icon_4" viewBox="0 0 40 40">
        <path d="M35.1699 4.43011C35.0944 4.40698 35.0151 4.39899 34.9365 4.40659C34.8579 4.41419 34.7815 4.43724 34.7119 4.4744C34.6422 4.51156 34.5805 4.56211 34.5304 4.62315C34.4803 4.68419 34.4428 4.75452 34.4199 4.83011C34.2999 5.24011 33.8299 6.92011 33.4199 8.40011L33.0999 9.56011C32.6999 10.9701 32.4499 11.0301 31.5199 11.2701L30.5999 11.5101C30.4613 11.2299 30.2663 10.9813 30.0271 10.78C29.7879 10.5786 29.5097 10.4289 29.2099 10.3401C28.9303 10.2565 28.637 10.2294 28.3468 10.2603C28.0567 10.2912 27.7756 10.3795 27.5199 10.5201C27.254 10.6655 27.0198 10.8624 26.831 11.0994C26.6421 11.3363 26.5024 11.6085 26.4199 11.9001L23.5899 22.0701H17.8699C17.6983 21.8409 17.5112 21.6237 17.3099 21.4201C16.7377 20.844 16.0567 20.3874 15.3065 20.0766C14.5563 19.7659 13.7519 19.6073 12.9399 19.6101C12.5132 19.61 12.0877 19.6535 11.6699 19.7401L10.2699 14.7401H14.1599C14.319 14.7401 14.4716 14.6769 14.5842 14.5644C14.6967 14.4519 14.7599 14.2992 14.7599 14.1401V13.0001C14.7475 12.5595 14.6025 12.133 14.3438 11.7761C14.0851 11.4193 13.7248 11.1489 13.3099 11.0001C11.3347 10.3243 9.3081 9.80932 7.2499 9.46011C6.49312 9.46275 5.76823 9.76524 5.23404 10.3013C4.69985 10.8374 4.3999 11.5633 4.3999 12.3201V14.1601C4.3999 14.3192 4.46312 14.4719 4.57564 14.5844C4.68816 14.6969 4.84077 14.7601 4.9999 14.7601H8.9999L10.4999 20.1001C9.03628 20.721 7.86883 21.8829 7.24097 23.3436C6.61312 24.8042 6.57333 26.4508 7.1299 27.9401C6.2999 30.2701 5.3799 32.8001 5.3699 32.8001C5.35756 32.8696 5.35756 32.9407 5.3699 33.0101C5.3712 33.3532 5.4404 33.6927 5.57353 34.009C5.70665 34.3252 5.90106 34.612 6.14555 34.8528C6.39003 35.0936 6.67976 35.2836 6.99802 35.4118C7.31629 35.5401 7.65679 35.6041 7.9999 35.6001H30.1599C30.8477 35.5975 31.5065 35.3224 31.9919 34.8351C32.4774 34.3477 32.7499 33.6879 32.7499 33.0001C32.7611 32.9339 32.7611 32.8663 32.7499 32.8001C32.7499 32.8001 30.3199 26.0301 29.7499 24.4801C29.6455 24.0375 29.4525 23.6206 29.1827 23.2546C28.9129 22.8885 28.5718 22.5808 28.1799 22.3501L30.7699 13.1401C30.812 12.9933 30.8388 12.8425 30.8499 12.6901L31.8499 12.4401C33.0199 12.1401 33.7099 11.8701 34.2699 9.89011L34.5899 8.72011C34.9999 7.25011 35.4599 5.58011 35.5899 5.17011C35.6111 5.09394 35.6171 5.01433 35.6075 4.93584C35.5978 4.85736 35.5728 4.78155 35.5338 4.71278C35.4947 4.64401 35.4425 4.58364 35.38 4.53513C35.3176 4.48661 35.2462 4.45092 35.1699 4.43011ZM5.5999 12.3201C5.59989 11.8816 5.77341 11.4609 6.08256 11.1498C6.39172 10.8388 6.81138 10.6627 7.2499 10.6601C9.17719 10.9854 11.0763 11.4602 12.9299 12.0801C13.1128 12.1529 13.2702 12.2781 13.3823 12.44C13.4944 12.6019 13.5561 12.7933 13.5599 12.9901V13.5601H5.5599L5.5999 12.3201ZM29.1399 26.3201H25.6599C25.5008 26.3201 25.3482 26.3833 25.2356 26.4958C25.1231 26.6084 25.0599 26.761 25.0599 26.9201C25.0599 27.0792 25.1231 27.2319 25.2356 27.3444C25.3482 27.4569 25.5008 27.5201 25.6599 27.5201H29.5699L30.4199 30.0001H23.4199C23.2608 30.0001 23.1082 30.0633 22.9956 30.1758C22.8831 30.2884 22.8199 30.441 22.8199 30.6001C22.8199 30.7592 22.8831 30.9118 22.9956 31.0244C23.1082 31.1369 23.2608 31.2001 23.4199 31.2001H30.8999L31.5899 33.1401C31.5647 33.4921 31.4075 33.8216 31.1498 34.0626C30.892 34.3037 30.5528 34.4385 30.1999 34.4401H7.9999C7.64702 34.4385 7.30777 34.3037 7.05003 34.0626C6.7923 33.8216 6.6351 33.4921 6.6099 33.1401L7.9599 29.4201C8.15376 29.7045 8.37119 29.9721 8.6099 30.2201C9.76515 31.3565 11.3194 31.9954 12.9399 32.0001C13.425 32.0009 13.9084 31.9438 14.3799 31.8301C14.5351 31.793 14.6691 31.6957 14.7526 31.5598C14.836 31.4238 14.862 31.2603 14.8249 31.1051C14.7878 30.95 14.6905 30.8159 14.5546 30.7325C14.4186 30.649 14.2551 30.623 14.0999 30.6601C12.9595 30.9409 11.7564 30.8063 10.7064 30.2803C9.65629 29.7544 8.82795 28.8715 8.3699 27.7901C8.35369 27.726 8.32664 27.6651 8.2899 27.6101C7.9414 26.7085 7.86171 25.7252 8.06049 24.7792C8.25927 23.8333 8.72798 22.9652 9.4099 22.2801C10.1843 21.5244 11.1829 21.0404 12.2558 20.9005C13.3287 20.7607 14.418 20.9727 15.3602 21.5046C16.3024 22.0366 17.0466 22.8598 17.4811 23.8507C17.9156 24.8416 18.0169 25.9467 17.7699 27.0001C17.7515 27.0769 17.7484 27.1566 17.7609 27.2346C17.7733 27.3126 17.8009 27.3874 17.8423 27.4548C17.9257 27.5907 18.0598 27.688 18.2149 27.7251C18.3701 27.7622 18.5336 27.7362 18.6696 27.6528C18.8055 27.5693 18.9028 27.4353 18.9399 27.2801C19.2678 25.9438 19.1411 24.5364 18.5799 23.2801H26.8499C27.0197 23.2683 27.1901 23.2683 27.3599 23.2801C27.8199 23.3901 28.2099 23.7301 28.5799 24.8301L29.1399 26.3201ZM29.6099 12.7701L26.9999 22.0801H24.8399L27.5799 12.2301C27.6193 12.0928 27.6855 11.9646 27.7748 11.853C27.864 11.7414 27.9745 11.6487 28.0999 11.5801C28.2178 11.5149 28.3477 11.4742 28.4817 11.4605C28.6158 11.4467 28.7512 11.4602 28.8799 11.5001C29.1482 11.577 29.3754 11.7567 29.5121 12.0001C29.6488 12.2435 29.6839 12.531 29.6099 12.8001V12.7701Z"
              fill="black"/>
        <path d="M13.4003 25.3599C13.3473 25.2955 13.2814 25.2429 13.207 25.2053C13.1325 25.1678 13.051 25.1462 12.9678 25.1419C12.8845 25.1376 12.8012 25.1507 12.7233 25.1804C12.6454 25.2101 12.5745 25.2557 12.5152 25.3143C12.4559 25.373 12.4094 25.4433 12.3788 25.5209C12.3482 25.5984 12.3341 25.6815 12.3374 25.7649C12.3407 25.8482 12.3613 25.9299 12.398 26.0048C12.4346 26.0797 12.4865 26.1462 12.5503 26.1999L16.4803 30.1999C16.5332 30.2643 16.5991 30.317 16.6735 30.3545C16.748 30.392 16.8295 30.4136 16.9127 30.4179C16.996 30.4222 17.0793 30.4091 17.1572 30.3794C17.2351 30.3497 17.306 30.3041 17.3653 30.2455C17.4247 30.1869 17.4711 30.1165 17.5017 30.0389C17.5323 29.9614 17.5464 29.8783 17.5431 29.795C17.5398 29.7116 17.5192 29.6299 17.4825 29.555C17.4459 29.4801 17.394 29.4136 17.3303 29.3599L13.4003 25.3599Z"
              fill="black"/>
    </symbol>
    <symbol id="icon_infrastructure_info_icon_5" viewBox="0 0 32 32">
        <path d="M35.5199 13.0999L30.0699 4.6699C30.0154 4.58708 29.9412 4.51908 29.8539 4.47196C29.7667 4.42484 29.6691 4.40008 29.5699 4.3999H10.4699C10.3708 4.40008 10.2732 4.42484 10.186 4.47196C10.0987 4.51908 10.0245 4.58708 9.96994 4.6699L4.51994 13.0999C4.4808 13.1708 4.45696 13.2492 4.44994 13.3299V14.9999C4.44572 15.0398 4.44572 15.08 4.44994 15.1199C4.58522 15.8626 4.92007 16.5546 5.4186 17.1215C5.91713 17.6885 6.56055 18.1091 7.27989 18.3382C7.99923 18.5674 8.76737 18.5965 9.50198 18.4224C10.2366 18.2483 10.91 17.8775 11.4499 17.3499C12.2242 18.082 13.2494 18.4899 14.3149 18.4899C15.3805 18.4899 16.4057 18.082 17.1799 17.3499C17.9542 18.082 18.9794 18.4899 20.0449 18.4899C21.1105 18.4899 22.1357 18.082 22.9099 17.3499C23.6842 18.082 24.7094 18.4899 25.7749 18.4899C26.8405 18.4899 27.8657 18.082 28.6399 17.3499C29.182 17.8742 29.8561 18.2418 30.5904 18.4134C31.3248 18.585 32.0919 18.5542 32.8102 18.3244C33.5284 18.0945 34.1709 17.6742 34.6692 17.1081C35.1675 16.5421 35.503 15.8515 35.6399 15.1099C35.6661 14.4376 35.6259 13.7643 35.5199 13.0999ZM10.7999 5.5999H29.2399L33.9099 12.8199H6.11994L10.7999 5.5999ZM34.3399 14.8999C34.1931 15.5616 33.8265 16.1541 33.2999 16.5808C32.7733 17.0076 32.1177 17.2434 31.4399 17.2499C30.9721 17.2474 30.5117 17.1326 30.0975 16.9151C29.6834 16.6975 29.3275 16.3837 29.0599 15.9999C29.0006 15.9259 28.9263 15.8654 28.8418 15.8223C28.7573 15.7792 28.6647 15.7545 28.5699 15.7499C28.4768 15.7499 28.3849 15.7716 28.3016 15.8132C28.2183 15.8549 28.1458 15.9154 28.0899 15.9899C27.8125 16.3598 27.4534 16.6606 27.0405 16.8687C26.6277 17.0769 26.1723 17.1868 25.7099 17.1899C25.2473 17.1943 24.7903 17.0887 24.3765 16.8818C23.9627 16.6749 23.604 16.3726 23.3299 15.9999C23.2752 15.9174 23.2009 15.8497 23.1137 15.8029C23.0264 15.7561 22.929 15.7316 22.8299 15.7316C22.7309 15.7316 22.6335 15.7561 22.5462 15.8029C22.459 15.8497 22.3847 15.9174 22.3299 15.9999C22.0629 16.3724 21.714 16.6788 21.3101 16.8954C20.9062 17.1121 20.458 17.2334 19.9999 17.2499C19.5287 17.2507 19.0643 17.1374 18.6464 16.9197C18.2285 16.702 17.8694 16.3864 17.5999 15.9999C17.5451 15.9235 17.4731 15.8611 17.3897 15.8177C17.3064 15.7743 17.2139 15.7511 17.1199 15.7499C17.0248 15.7466 16.9304 15.7668 16.845 15.8087C16.7595 15.8505 16.6857 15.9128 16.6299 15.9899C16.3525 16.3598 15.9934 16.6606 15.5805 16.8687C15.1677 17.0769 14.7123 17.1868 14.2499 17.1899C13.7873 17.1943 13.3303 17.0887 12.9165 16.8818C12.5027 16.6749 12.144 16.3726 11.8699 15.9999C11.8151 15.9235 11.7431 15.8611 11.6597 15.8177C11.5764 15.7743 11.4839 15.7511 11.3899 15.7499C11.2946 15.7448 11.1995 15.7642 11.1137 15.8062C11.028 15.8482 10.9544 15.9114 10.8999 15.9899C10.5528 16.4373 10.0862 16.7773 9.55401 16.9706C9.0218 17.1639 8.44575 17.2027 7.89245 17.0824C7.33915 16.9621 6.83118 16.6877 6.42727 16.2909C6.02336 15.894 5.74 15.391 5.60994 14.8399V13.9999H34.3399V14.8999Z"
              fill="black"/>
        <path d="M13.2698 7.61004C13.1938 7.58364 13.1131 7.57283 13.0328 7.57826C12.9524 7.58369 12.8739 7.60524 12.8021 7.64164C12.7302 7.67803 12.6664 7.72852 12.6145 7.7901C12.5626 7.85167 12.5236 7.92307 12.4998 8.00004L11.6898 10C11.6596 10.074 11.6444 10.1532 11.6451 10.2331C11.6459 10.313 11.6626 10.392 11.6943 10.4653C11.726 10.5387 11.772 10.605 11.8297 10.6603C11.8873 10.7156 11.9555 10.7589 12.0301 10.7875C12.1047 10.8162 12.1842 10.8296 12.2641 10.8271C12.344 10.8246 12.4225 10.8061 12.4951 10.7728C12.5678 10.7395 12.633 10.692 12.6871 10.6332C12.7411 10.5743 12.7829 10.5053 12.8098 10.43L13.6198 8.35004C13.666 8.2053 13.6556 8.04843 13.5906 7.91108C13.5257 7.77374 13.411 7.66615 13.2698 7.61004ZM27.5398 8.00004C27.4804 7.8549 27.3665 7.73879 27.2225 7.67659C27.0786 7.61439 26.916 7.61104 26.7695 7.66725C26.6231 7.72347 26.5045 7.83478 26.4392 7.97735C26.3738 8.11992 26.3669 8.28242 26.4198 8.43004L27.2298 10.51C27.2975 10.6586 27.4213 10.7741 27.5742 10.8313C27.727 10.8885 27.8963 10.8827 28.0448 10.815C28.1934 10.7474 28.3089 10.6235 28.3661 10.4707C28.4233 10.3179 28.4175 10.1486 28.3498 10L27.5398 8.00004ZM17.7798 7.58004C17.6236 7.56006 17.4657 7.60235 17.3404 7.69778C17.215 7.7932 17.1322 7.93409 17.1098 8.09004L16.8298 10.17C16.81 10.3278 16.8537 10.487 16.9512 10.6127C17.0487 10.7383 17.1921 10.8201 17.3498 10.84H17.4298C17.5743 10.8389 17.7135 10.7857 17.8219 10.6902C17.9303 10.5947 18.0006 10.4632 18.0198 10.32L18.2998 8.24004C18.3168 8.08385 18.2719 7.92723 18.1747 7.80382C18.0774 7.68041 17.9357 7.60007 17.7798 7.58004ZM22.2598 7.58004C22.1021 7.6 21.9587 7.68179 21.8612 7.80742C21.7637 7.93305 21.72 8.09225 21.7398 8.25004L21.9998 10.33C22.0191 10.4732 22.0894 10.6047 22.1978 10.7002C22.3062 10.7957 22.4454 10.8489 22.5898 10.85H22.6698C22.8276 10.8301 22.971 10.7483 23.0685 10.6227C23.166 10.497 23.2097 10.3378 23.1898 10.18L22.9098 8.10004C22.8898 7.94612 22.8109 7.80596 22.6897 7.70899C22.5685 7.61203 22.4144 7.56581 22.2598 7.58004ZM32.4198 29.7V21C32.4198 20.8409 32.3566 20.6883 32.2441 20.5758C32.1316 20.4633 31.979 20.4 31.8198 20.4C31.6607 20.4 31.5081 20.4633 31.3956 20.5758C31.2831 20.6883 31.2198 20.8409 31.2198 21V30C31.2193 30.152 31.2765 30.2986 31.3798 30.41L32.9998 32.06V34.4H7.06985V32.07L8.65985 30.35C8.76319 30.2386 8.82037 30.092 8.81985 29.94V20.94C8.81985 20.7809 8.75663 20.6283 8.64411 20.5158C8.53159 20.4033 8.37898 20.34 8.21985 20.34C8.06072 20.34 7.9081 20.4033 7.79558 20.5158C7.68306 20.6283 7.61985 20.7809 7.61985 20.94V29.66L5.99985 31.42C5.89651 31.5315 5.83932 31.678 5.83985 31.83V35C5.83985 35.1592 5.90306 35.3118 6.01558 35.4243C6.12811 35.5368 6.28072 35.6 6.43985 35.6H33.5498C33.7073 35.6001 33.8584 35.5382 33.9706 35.4279C34.0829 35.3175 34.1472 35.1674 34.1498 35.01V31.84C34.1504 31.688 34.0932 31.5415 33.9898 31.43L32.4198 29.7Z"
              fill="black"/>
        <path d="M28.6798 31.8199C28.8389 31.8199 28.9915 31.7567 29.104 31.6442C29.2166 31.5316 29.2798 31.379 29.2798 31.2199V20.9999C29.2798 20.8408 29.2166 20.6882 29.104 20.5756C28.9915 20.4631 28.8389 20.3999 28.6798 20.3999H22.8098C22.6506 20.3999 22.498 20.4631 22.3855 20.5756C22.273 20.6882 22.2098 20.8408 22.2098 20.9999V31.2199C22.2098 31.379 22.273 31.5316 22.3855 31.6442C22.498 31.7567 22.6506 31.8199 22.8098 31.8199H28.6798ZM28.0798 21.5899V30.5899H23.4098V26.6999H24.4098C24.5689 26.6999 24.7215 26.6367 24.834 26.5242C24.9466 26.4116 25.0098 26.259 25.0098 26.0999C25.0098 25.9408 24.9466 25.7882 24.834 25.6756C24.7215 25.5631 24.5689 25.4999 24.4098 25.4999H23.4098V21.5899H28.0798ZM19.6498 28.1199C19.8089 28.1199 19.9615 28.0567 20.074 27.9442C20.1866 27.8316 20.2498 27.679 20.2498 27.5199V20.9999C20.2498 20.8408 20.1866 20.6882 20.074 20.5756C19.9615 20.4631 19.8089 20.3999 19.6498 20.3999H11.3598C11.2006 20.3999 11.048 20.4631 10.9355 20.5756C10.823 20.6882 10.7598 20.8408 10.7598 20.9999V27.5299C10.7598 27.689 10.823 27.8416 10.9355 27.9542C11.048 28.0667 11.2006 28.1299 11.3598 28.1299L19.6498 28.1199ZM11.9998 21.5899H18.9998V26.9199H11.9998V21.5899Z"
              fill="black"/>
    </symbol>
    <symbol id="icon_infrastructure_info_icon_6" viewBox="0 0 40 40">
        <path d="M35.5803 33.8501H34.0003V19.5801C34.0016 19.5044 33.9878 19.4292 33.9598 19.3589C33.9317 19.2886 33.8899 19.2245 33.8369 19.1705C33.7838 19.1166 33.7205 19.0737 33.6507 19.0444C33.5809 19.0151 33.506 19.0001 33.4303 19.0001H29.6303V9.77008C29.6316 9.69438 29.6178 9.61919 29.5898 9.54887C29.5617 9.47856 29.5199 9.41454 29.4669 9.36054C29.4138 9.30655 29.3505 9.26367 29.2807 9.2344C29.2109 9.20513 29.136 9.19006 29.0603 9.19007H24.6503C24.5308 8.03868 23.9888 6.97243 23.1291 6.1973C22.2693 5.42217 21.1528 4.99316 19.9953 4.99316C18.8377 4.99316 17.7212 5.42217 16.8614 6.1973C16.0017 6.97243 15.4597 8.03868 15.3403 9.19007H10.9103C10.8346 9.19006 10.7596 9.20513 10.6898 9.2344C10.62 9.26367 10.5567 9.30655 10.5036 9.36054C10.4506 9.41454 10.4088 9.47856 10.3807 9.54887C10.3527 9.61919 10.3389 9.69438 10.3403 9.77008V19.0001H6.54026C6.46455 19.0001 6.38961 19.0151 6.31979 19.0444C6.24998 19.0737 6.18669 19.1166 6.13363 19.1705C6.08057 19.2245 6.03879 19.2886 6.01074 19.3589C5.98269 19.4292 5.96893 19.5044 5.97026 19.5801V33.8501H4.41026C4.27081 33.8685 4.14281 33.937 4.05009 34.0428C3.95737 34.1485 3.90625 34.2844 3.90625 34.4251C3.90625 34.5657 3.95737 34.7016 4.05009 34.8074C4.14281 34.9132 4.27081 34.9816 4.41026 35.0001H35.5903C35.7297 34.9816 35.8577 34.9132 35.9504 34.8074C36.0431 34.7016 36.0943 34.5657 36.0943 34.4251C36.0943 34.2844 36.0431 34.1485 35.9504 34.0428C35.8577 33.937 35.7297 33.8685 35.5903 33.8501H35.5803ZM20.0003 6.15007C20.7187 6.13817 21.4244 6.34031 22.0275 6.73077C22.6306 7.12123 23.104 7.68235 23.3872 8.34268C23.6704 9.00301 23.7507 9.73269 23.6179 10.4388C23.485 11.1449 23.1451 11.7955 22.6413 12.3078C22.1375 12.8201 21.4926 13.1709 20.7888 13.3155C20.085 13.4601 19.3541 13.392 18.6892 13.1199C18.0242 12.8477 17.4552 12.3839 17.0548 11.7873C16.6543 11.1908 16.4404 10.4886 16.4403 9.77008C16.4363 9.29863 16.5252 8.83101 16.702 8.39394C16.8788 7.95686 17.1399 7.55889 17.4705 7.22274C17.8011 6.88659 18.1946 6.61884 18.6287 6.43479C19.0627 6.25075 19.5288 6.154 20.0003 6.15007ZM11.4703 10.3501H15.3503C15.4697 11.5015 16.0117 12.5677 16.8714 13.3428C17.7312 14.118 18.8477 14.547 20.0053 14.547C21.1628 14.547 22.2793 14.118 23.1391 13.3428C23.9988 12.5677 24.5408 11.5015 24.6603 10.3501H28.5403V19.0001H26.8403V12.8601C26.8403 12.7089 26.7802 12.5639 26.6733 12.457C26.5664 12.3501 26.4214 12.2901 26.2703 12.2901C26.1191 12.2901 25.9741 12.3501 25.8672 12.457C25.7603 12.5639 25.7003 12.7089 25.7003 12.8601V19.0001H20.5703V16.8601C20.5703 16.7089 20.5102 16.5639 20.4033 16.457C20.2964 16.3501 20.1514 16.2901 20.0003 16.2901C19.8491 16.2901 19.7041 16.3501 19.5972 16.457C19.4903 16.5639 19.4303 16.7089 19.4303 16.8601V19.0001H14.3003V12.8601C14.3003 12.7089 14.2402 12.5639 14.1333 12.457C14.0264 12.3501 13.8814 12.2901 13.7303 12.2901C13.5791 12.2901 13.4341 12.3501 13.3272 12.457C13.2203 12.5639 13.1603 12.7089 13.1603 12.8601V19.0001H11.4603L11.4703 10.3501ZM19.4703 33.8401H16.4703V26.5401H19.4703V33.8401ZM23.6503 33.8401H20.6503V26.5401H23.6503V33.8401ZM30.1003 27.8401H28.2503C28.0964 27.8401 27.9489 27.9012 27.8401 28.01C27.7314 28.1187 27.6703 28.2662 27.6703 28.4201C27.6703 28.5739 27.7314 28.7214 27.8401 28.8302C27.9489 28.939 28.0964 29.0001 28.2503 29.0001H30.0603V30.7001H28.2503C28.0964 30.7001 27.9489 30.7612 27.8401 30.87C27.7314 30.9787 27.6703 31.1262 27.6703 31.2801C27.6703 31.4339 27.7314 31.5814 27.8401 31.6902C27.9489 31.799 28.0964 31.8601 28.2503 31.8601H30.0603V33.8601H24.7403V26.0001C24.7416 25.9244 24.7278 25.8492 24.6998 25.7789C24.6717 25.7086 24.6299 25.6445 24.5769 25.5905C24.5238 25.5366 24.4605 25.4937 24.3907 25.4644C24.3209 25.4351 24.246 25.4201 24.1703 25.4201H15.8203C15.7446 25.4201 15.6696 25.4351 15.5998 25.4644C15.53 25.4937 15.4667 25.5366 15.4136 25.5905C15.3606 25.6445 15.3188 25.7086 15.2907 25.7789C15.2627 25.8492 15.2489 25.9244 15.2503 26.0001V33.8801H9.94026V31.8801H11.7503C11.9041 31.8801 12.0516 31.819 12.1604 31.7102C12.2691 31.6014 12.3303 31.4539 12.3303 31.3001C12.3303 31.1462 12.2691 30.9987 12.1604 30.89C12.0516 30.7812 11.9041 30.7201 11.7503 30.7201H9.94026V29.0001H11.7503C11.9041 29.0001 12.0516 28.939 12.1604 28.8302C12.2691 28.7214 12.3303 28.5739 12.3303 28.4201C12.3303 28.2662 12.2691 28.1187 12.1604 28.01C12.0516 27.9012 11.9041 27.8401 11.7503 27.8401H9.94026V23.0001H30.0603L30.1003 27.8401ZM32.9303 33.8401H31.2303V22.4601C31.2316 22.3844 31.2178 22.3092 31.1898 22.2389C31.1617 22.1686 31.1199 22.1045 31.0669 22.0505C31.0138 21.9965 30.9505 21.9537 30.8807 21.9244C30.8109 21.8951 30.736 21.8801 30.6603 21.8801H9.37026C9.29455 21.8801 9.21961 21.8951 9.14979 21.9244C9.07998 21.9537 9.01669 21.9965 8.96363 22.0505C8.91057 22.1045 8.86879 22.1686 8.84074 22.2389C8.81269 22.3092 8.79893 22.3844 8.80026 22.4601V33.8501H7.11026V20.1501H32.8903L32.9303 33.8401Z"
              fill="black"/>
        <path d="M18.4103 10.3501H19.4103V11.3501C19.4103 11.5013 19.4703 11.6463 19.5772 11.7532C19.6841 11.8601 19.8291 11.9201 19.9803 11.9201C20.1314 11.9201 20.2764 11.8601 20.3833 11.7532C20.4902 11.6463 20.5503 11.5013 20.5503 11.3501V10.3501H21.5503C21.7041 10.3501 21.8516 10.289 21.9604 10.1802C22.0691 10.0715 22.1303 9.92394 22.1303 9.77012C22.1303 9.61629 22.0691 9.46877 21.9604 9.36C21.8516 9.25122 21.7041 9.19012 21.5503 9.19012H20.5503V8.19012C20.5503 8.03894 20.4902 7.89396 20.3833 7.78707C20.2764 7.68017 20.1314 7.62012 19.9803 7.62012C19.8291 7.62012 19.6841 7.68017 19.5772 7.78707C19.4703 7.89396 19.4103 8.03894 19.4103 8.19012V9.19012H18.4103C18.2708 9.20855 18.1428 9.27703 18.0501 9.38281C17.9574 9.48858 17.9062 9.62445 17.9062 9.76512C17.9062 9.90578 17.9574 10.0416 18.0501 10.1474C18.1428 10.2532 18.2708 10.3217 18.4103 10.3401V10.3501Z"
              fill="black"/>
    </symbol>
    <symbol id="icon_infrastructure_info_icon_7" viewBox="0 0 40 40">
        <path d="M18.8499 26.2099H5.5999V22.4999H12.2899C12.449 22.4999 12.6016 22.4367 12.7142 22.3242C12.8267 22.2116 12.8899 22.059 12.8899 21.8999V21.4199C12.8912 20.9327 12.7966 20.45 12.6113 19.9994C12.4261 19.5488 12.1539 19.139 11.8103 18.7936C11.4668 18.4482 11.0585 18.1738 10.6089 17.9861C10.1593 17.7985 9.67711 17.7012 9.1899 17.6999H5.6199C5.64596 16.9695 5.95653 16.2783 6.4853 15.7738C7.01407 15.2694 7.71913 14.9916 8.4499 14.9999H31.5199C32.1924 15.0025 32.8423 15.2428 33.3547 15.6784C33.8671 16.1139 34.209 16.7166 34.3199 17.3799C34.3451 17.5377 34.432 17.679 34.5614 17.7728C34.6908 17.8666 34.8521 17.9051 35.0099 17.8799C35.1677 17.8547 35.309 17.7679 35.4028 17.6385C35.4966 17.5091 35.5351 17.3477 35.5099 17.1899C35.3736 16.3718 34.99 15.6151 34.4108 15.0216C33.8315 14.428 33.0844 14.0261 32.2699 13.8699C32.3913 13.3247 32.6876 12.8342 33.1137 12.4731C33.5397 12.112 34.0722 11.9002 34.6299 11.8699C34.789 11.8699 34.9416 11.8067 35.0542 11.6942C35.1667 11.5816 35.2299 11.429 35.2299 11.2699C35.2299 11.1108 35.1667 10.9582 35.0542 10.8456C34.9416 10.7331 34.789 10.6699 34.6299 10.6699C33.9834 10.671 33.35 10.8521 32.8007 11.193C32.2514 11.5339 31.8079 12.0211 31.5199 12.5999L28.6699 4.7899C28.6272 4.6757 28.5508 4.57721 28.4508 4.50753C28.3507 4.43786 28.2318 4.40032 28.1099 4.3999H11.8699C11.748 4.40032 11.6291 4.43786 11.5291 4.50753C11.429 4.57721 11.3526 4.6757 11.3099 4.7899L8.4499 12.6399C8.16195 12.0611 7.71846 11.5739 7.16914 11.233C6.61982 10.8921 5.9864 10.711 5.3399 10.7099C5.26111 10.7099 5.18309 10.7254 5.11029 10.7556C5.0375 10.7857 4.97135 10.8299 4.91564 10.8856C4.85992 10.9414 4.81573 11.0075 4.78558 11.0803C4.75542 11.1531 4.7399 11.2311 4.7399 11.3099C4.7399 11.3887 4.75542 11.4667 4.78558 11.5395C4.81573 11.6123 4.85992 11.6785 4.91564 11.7342C4.97135 11.7899 5.0375 11.8341 5.11029 11.8642C5.18309 11.8944 5.26111 11.9099 5.3399 11.9099C5.89759 11.9402 6.43007 12.152 6.85616 12.5131C7.28224 12.8742 7.57855 13.3647 7.6999 13.9099C6.90812 14.0508 6.17863 14.4313 5.6099 14.9999C5.22654 15.3731 4.92192 15.8193 4.71409 16.3123C4.50625 16.8053 4.39941 17.3349 4.3999 17.8699V30.2799C4.3999 30.7573 4.58955 31.2151 4.92711 31.5527C5.26468 31.8903 5.72251 32.0799 6.1999 32.0799H9.9999C10.4773 32.0799 10.9351 31.8903 11.2727 31.5527C11.6103 31.2151 11.7999 30.7573 11.7999 30.2799V27.4099H18.7999C18.959 27.4099 19.1116 27.3467 19.2242 27.2342C19.3367 27.1216 19.3999 26.969 19.3999 26.8099C19.3999 26.6508 19.3367 26.4982 19.2242 26.3856C19.1116 26.2731 18.959 26.2099 18.7999 26.2099H18.8499ZM12.2899 5.5999H27.6899L30.6899 13.8199H9.2999L12.2899 5.5999ZM11.6899 21.2999H5.5999V18.8999H9.1899C9.83524 18.9019 10.455 19.1523 10.9206 19.5992C11.3861 20.0461 11.6616 20.6552 11.6899 21.2999ZM10.6099 30.2999C10.6073 30.4582 10.5433 30.6094 10.4313 30.7213C10.3194 30.8333 10.1682 30.8973 10.0099 30.8999H6.1999C6.04158 30.8973 5.89046 30.8333 5.77849 30.7213C5.66652 30.6094 5.60248 30.4582 5.5999 30.2999V27.4099H10.5999L10.6099 30.2999Z"
              fill="black"/>
        <path d="M18.8498 21.2701H16.5098L15.5098 19.6801C15.4787 19.5969 15.4296 19.5216 15.366 19.4597C15.3023 19.3978 15.2257 19.3508 15.1417 19.3221C15.0577 19.2934 14.9683 19.2837 14.8801 19.2937C14.7919 19.3037 14.707 19.3332 14.6315 19.3799C14.556 19.4267 14.4919 19.4897 14.4437 19.5643C14.3955 19.6388 14.3645 19.7232 14.3528 19.8112C14.3412 19.8992 14.3492 19.9887 14.3764 20.0733C14.4035 20.1578 14.4491 20.2353 14.5098 20.3001L15.6498 22.1801C15.7029 22.268 15.7776 22.3409 15.8669 22.3917C15.9562 22.4425 16.0571 22.4695 16.1598 22.4701H18.8398C18.9989 22.4701 19.1515 22.4069 19.264 22.2944C19.3766 22.1818 19.4398 22.0292 19.4398 21.8701C19.4398 21.711 19.3766 21.5583 19.264 21.4458C19.1515 21.3333 18.9989 21.2701 18.8398 21.2701H18.8498ZM35.5398 21.5901C35.2298 19.5901 31.7598 18.5901 28.4698 18.5901C25.0298 18.5901 21.3698 19.7401 21.3698 21.8701C21.3634 21.9566 21.3634 22.0435 21.3698 22.1301V32.3201C21.3698 34.4501 25.0298 35.6001 28.4698 35.6001C31.9098 35.6001 35.5698 34.4501 35.5698 32.3201V21.8401C35.5779 21.7556 35.5677 21.6703 35.5398 21.5901ZM34.3998 28.7801V28.8701C34.3998 29.7401 32.1598 30.9501 28.4998 30.9501C24.8398 30.9501 22.5998 29.7401 22.5998 28.8701V27.2701C24.4025 28.2646 26.4424 28.7487 28.4998 28.6701C30.5572 28.7487 32.597 28.2646 34.3998 27.2701V28.7801ZM22.6098 25.3201V23.7701C24.4069 24.7491 26.4347 25.2258 28.4798 25.1501C30.5461 25.2298 32.5945 24.7385 34.3998 23.7301V25.3801C34.3998 26.2501 32.1598 27.4601 28.4998 27.4601C24.8398 27.4601 22.5998 26.2501 22.5998 25.3801L22.6098 25.3201ZM28.4798 19.7801C32.1298 19.7801 34.3798 20.9901 34.3798 21.8601C34.3798 22.7301 32.1298 24.0001 28.4798 24.0001C24.8298 24.0001 22.7598 22.8701 22.6098 22.0001V21.8801C22.7098 20.9401 24.9098 19.7901 28.4798 19.7901V19.7801ZM28.4798 34.3901C24.8298 34.3901 22.5798 33.1801 22.5798 32.3101V30.7401C24.3825 31.7346 26.4224 32.2187 28.4798 32.1401C30.5372 32.2187 32.577 31.7346 34.3798 30.7401V32.3101C34.3998 33.1901 32.1598 34.4001 28.4998 34.4001L28.4798 34.3901Z"
              fill="black"/>
    </symbol>
    <symbol id="icon_footer_map" viewBox="0 0 18 25">
        <path d="M9 0.979492C4.038 0.979492 0 5.04549 0 10.0445C0 17.1475 8.154 24.4815 8.501 24.7895C8.644 24.9165 8.822 24.9795 9 24.9795C9.178 24.9795 9.356 24.9165 9.499 24.7905C9.846 24.4815 18 17.1475 18 10.0445C18 5.04549 13.962 0.979492 9 0.979492ZM9 14.9795C6.243 14.9795 4 12.7365 4 9.97949C4 7.22249 6.243 4.97949 9 4.97949C11.757 4.97949 14 7.22249 14 9.97949C14 12.7365 11.757 14.9795 9 14.9795Z"
              fill="currentColor"/>
    </symbol>
    <symbol id="icon_footer_phone" viewBox="0 0 24 25">
        <path d="M18.2466 16.856C17.4625 16.0819 16.4836 16.0819 15.7045 16.856C15.1102 17.4453 14.5158 18.0346 13.9315 18.6339C13.7717 18.7987 13.6368 18.8337 13.4421 18.7238C13.0575 18.514 12.648 18.3442 12.2784 18.1145C10.5554 17.0308 9.11201 15.6374 7.83347 14.0692C7.19919 13.2901 6.63483 12.4561 6.24029 11.5172C6.16038 11.3274 6.17536 11.2026 6.33018 11.0477C6.9245 10.4734 7.50384 9.8841 8.08817 9.29479C8.90224 8.47574 8.90224 7.51686 8.08318 6.69282C7.61871 6.22337 7.15424 5.76391 6.68977 5.29446C6.21032 4.81502 5.73586 4.33058 5.25141 3.85613C4.46731 3.09203 3.48843 3.09203 2.70932 3.86113C2.11 4.45044 1.53566 5.05474 0.926355 5.63406C0.362 6.16844 0.0773248 6.82267 0.0173933 7.58678C-0.0774984 8.83033 0.227154 10.004 0.656663 11.1476C1.53566 13.5149 2.87413 15.6174 4.49728 17.5452C6.68977 20.1521 9.30678 22.2147 12.3683 23.703C13.7467 24.3722 15.1751 24.8866 16.7283 24.9715C17.7971 25.0314 18.726 24.7617 19.4702 23.9277C19.9796 23.3584 20.5539 22.839 21.0933 22.2946C21.8924 21.4856 21.8974 20.5067 21.1033 19.7076C20.1544 18.7537 19.2005 17.8049 18.2466 16.856Z"
              fill="currentColor"/>
        <path d="M17.2927 12.8756L19.1356 12.561C18.8459 10.868 18.0468 9.33474 16.8332 8.11616C15.5497 6.83266 13.9265 6.0236 12.1385 5.7739L11.8788 7.62673C13.2623 7.82151 14.5208 8.44578 15.5147 9.43962C16.4536 10.3785 17.0679 11.5671 17.2927 12.8756Z"
              fill="currentColor"/>
        <path d="M20.1744 4.86496C18.0468 2.73744 15.3549 1.39401 12.3833 0.979492L12.1236 2.83233C14.6906 3.19191 17.018 4.35555 18.8559 6.18841C20.5989 7.93138 21.7426 10.1338 22.1571 12.556L24 12.2413C23.5156 9.43462 22.1921 6.8876 20.1744 4.86496Z"
              fill="currentColor"/>
    </symbol>
    <symbol id="icon_up_btn" viewBox="0 0 52 52">
        <path d="M26.7071 15.2929C26.3166 14.9024 25.6834 14.9024 25.2929 15.2929L18.9289 21.6569C18.5384 22.0474 18.5384 22.6805 18.9289 23.0711C19.3195 23.4616 19.9526 23.4616 20.3431 23.0711L26 17.4142L31.6569 23.0711C32.0474 23.4616 32.6805 23.4616 33.0711 23.0711C33.4616 22.6805 33.4616 22.0474 33.0711 21.6569L26.7071 15.2929ZM27 36L27 16L25 16L25 36L27 36Z"
              fill="currentColor"/>
    </symbol>
    <symbol id="icon_contact_phone" viewBox="0 0 18 18">
        <path d="M13.1903 11.7486C12.6325 11.1979 11.9361 11.1979 11.3818 11.7486C10.959 12.1679 10.5361 12.5872 10.1204 13.0136C10.0067 13.1308 9.91079 13.1557 9.77222 13.0775C9.49862 12.9283 9.20727 12.8075 8.94433 12.644C7.7185 11.873 6.69164 10.8817 5.78203 9.76599C5.33078 9.2117 4.92928 8.61833 4.64858 7.95034C4.59173 7.81532 4.60239 7.72649 4.71254 7.61634C5.13536 7.20773 5.54752 6.78846 5.96324 6.36919C6.54241 5.78647 6.54241 5.10427 5.95969 4.518C5.62925 4.184 5.2988 3.85711 4.96836 3.52312C4.62726 3.18201 4.28971 2.83736 3.94506 2.49981C3.38721 1.95618 2.6908 1.95618 2.1365 2.50336C1.71013 2.92263 1.30152 3.35256 0.868031 3.76473C0.466526 4.14492 0.263996 4.61038 0.221359 5.15401C0.153849 6.03874 0.370591 6.87373 0.676161 7.6874C1.30152 9.3716 2.25376 10.8675 3.40853 12.239C4.96836 14.0937 6.83021 15.5612 9.00829 16.62C9.98896 17.0961 11.0052 17.4621 12.1102 17.5225C12.8706 17.5652 13.5314 17.3733 14.0609 16.7799C14.4233 16.3748 14.8319 16.0053 15.2156 15.618C15.7841 15.0424 15.7877 14.346 15.2227 13.7775C14.5476 13.0988 13.869 12.4237 13.1903 11.7486Z"
              fill="currentColor"/>
        <path d="M12.5137 8.91683L13.8248 8.69298C13.6187 7.48847 13.0502 6.39765 12.1868 5.53068C11.2737 4.61752 10.1189 4.04192 8.84687 3.86426L8.66211 5.18248C9.64633 5.32105 10.5417 5.76519 11.2488 6.47227C11.9168 7.14026 12.3538 7.98591 12.5137 8.91683Z"
              fill="currentColor"/>
        <path d="M14.5617 3.21747C13.048 1.70383 11.1329 0.748036 9.01875 0.453125L8.83398 1.77134C10.6603 2.02717 12.3161 2.85505 13.6236 4.15906C14.8637 5.39911 15.6774 6.96604 15.9723 8.68932L17.2834 8.46547C16.9387 6.4686 15.9971 4.6565 14.5617 3.21747Z"
              fill="currentColor"/>
    </symbol>
    <symbol id="icon_contact_address" viewBox="0 0 13 18">
        <path fill-rule="evenodd" clip-rule="evenodd"
              d="M0.136719 6.44937C0.136719 2.89279 3.00959 0 6.53984 0C10.0701 0 12.943 2.89279 12.943 6.44937C12.943 11.5029 7.14174 16.7207 6.89486 16.9405C6.79312 17.0302 6.66648 17.075 6.53984 17.075C6.4132 17.075 6.28656 17.0302 6.18483 16.9398C5.93795 16.7207 0.136719 11.5029 0.136719 6.44937ZM6.53867 9.24896C8.11038 9.24896 9.3845 7.97484 9.3845 6.40313C9.3845 4.83142 8.11038 3.55729 6.53867 3.55729C4.96696 3.55729 3.69283 4.83142 3.69283 6.40313C3.69283 7.97484 4.96696 9.24896 6.53867 9.24896Z"
              fill="currentColor"/>
    </symbol>
    <symbol id="icon_contact_time" viewBox="0 0 18 18">
        <path d="M14.5744 3.00889C12.9619 1.39637 10.8179 0.508301 8.5375 0.508301C6.25705 0.508301 4.11307 1.39637 2.50055 3.00889C0.888034 4.62141 0 6.76535 0 9.0458C0 11.3262 0.888034 13.4702 2.50055 15.0827C4.11307 16.6952 6.25705 17.5833 8.5375 17.5833C10.8179 17.5833 12.9619 16.6952 14.5744 15.0827C16.187 13.4702 17.075 11.3262 17.075 9.0458C17.075 6.76535 16.187 4.62138 14.5744 3.00889ZM8.5375 15.9076C4.75389 15.9076 1.67575 12.8294 1.67575 9.0458C1.67575 9.0396 1.67595 9.03346 1.67598 9.02733C1.67598 9.02576 1.67575 9.02426 1.67575 9.02269C1.67575 9.02006 1.67608 9.01752 1.67615 9.01492C1.69279 5.27666 4.71383 2.23528 8.44425 2.18525C8.45206 2.18489 8.4598 2.18409 8.4677 2.18409C8.47244 2.18409 8.47704 2.18465 8.48174 2.18479C8.50035 2.18465 8.51889 2.18409 8.53753 2.18409C12.3211 2.18409 15.3993 5.26225 15.3993 9.04583C15.3993 12.8294 12.3211 15.9076 8.5375 15.9076Z"
              fill="currentColor"/>
        <path d="M13.7516 9.45811C13.4726 9.45811 13.2464 9.23193 13.2464 8.95293C13.2464 8.67393 13.4726 8.44775 13.7516 8.44775H14.3605C14.0745 5.64385 11.8005 3.41953 8.9748 3.21069V3.74079C8.9748 4.01979 8.74862 4.24597 8.46962 4.24597C8.19062 4.24597 7.96444 4.01979 7.96444 3.74079V3.22277C5.18055 3.49557 2.96303 5.72739 2.71214 8.51755H3.25748C3.53648 8.51755 3.76266 8.74373 3.76266 9.02273C3.76266 9.30173 3.53648 9.52791 3.25748 9.52791H2.70801C2.94029 12.363 5.20226 14.6319 8.03427 14.8753V14.2348C8.03427 13.9558 8.26045 13.7297 8.53945 13.7297C8.81846 13.7297 9.04463 13.9558 9.04463 14.2348V14.8753C11.8998 14.6299 14.1756 12.3256 14.3761 9.45811H13.7516V9.45811ZM10.5845 7.71533L8.89669 9.40312C8.80195 9.49786 8.67349 9.55109 8.53949 9.55109C8.40552 9.55109 8.27699 9.49786 8.18228 9.40312L5.24441 6.46525C5.04712 6.26799 5.04712 5.94813 5.24441 5.75083C5.44168 5.55354 5.76153 5.55354 5.95883 5.75083L8.53952 8.33149L9.8701 7.00091C10.0674 6.80361 10.3872 6.80361 10.5845 7.00091C10.7817 7.19817 10.7817 7.51806 10.5845 7.71533Z"
              fill="currentColor"/>
    </symbol>
    <symbol id="icon_btn_loading" viewBox="0 0 27 27">
        <path d="M20.4682 20.2653C19.4767 21.3664 18.288 22.1607 17.0116 22.6811C13.6262 24.0616 9.5999 23.4152 6.82257 20.72L9.30956 18.233C9.44651 18.0961 9.34791 17.8496 9.14523 17.8167L0.254475 16.4582C0.10657 16.4362 -0.0194234 16.5622 0.00248845 16.7101L1.36103 25.6064C1.39389 25.8091 1.6404 25.9077 1.77735 25.7707L4.26983 23.2782C8.47691 27.3922 14.7875 28.0934 19.7177 25.3927C21.2022 24.582 22.5608 23.459 23.7002 22.0293C25.6339 19.597 26.5597 16.6061 26.4994 13.637L22.8456 13.0782C23.0648 15.6365 22.2759 18.2659 20.4682 20.2653Z"
              fill="currentColor"/>
        <path d="M22.6649 3.7218C18.4578 -0.392155 12.1472 -1.09333 7.21699 1.60731C5.73246 2.41805 4.37392 3.54103 3.2345 4.97078C1.30078 7.403 0.374999 10.394 0.435257 13.363L4.08907 13.9218C3.86995 11.3691 4.65878 8.73415 6.46651 6.73469C7.45802 5.63362 8.64674 4.83931 9.92311 4.3189C13.3085 2.93845 17.3348 3.58485 20.1121 6.28002L17.6251 8.76702C17.4882 8.90397 17.5868 9.15048 17.7895 9.18334L26.6802 10.5419C26.8281 10.5638 26.9541 10.4378 26.9322 10.2899L25.5737 1.39366C25.5408 1.19098 25.2943 1.09785 25.1574 1.22932L22.6649 3.7218Z"
              fill="currentColor"/>
    </symbol>
    <symbol id="icon_back_arrow" viewBox="0 0 21 16">
        <path d="M0.292893 8.70711C-0.0976311 8.31658 -0.0976311 7.68342 0.292893 7.29289L6.65685 0.928932C7.04738 0.538408 7.68054 0.538408 8.07107 0.928932C8.46159 1.31946 8.46159 1.95262 8.07107 2.34315L2.41421 8L8.07107 13.6569C8.46159 14.0474 8.46159 14.6805 8.07107 15.0711C7.68054 15.4616 7.04738 15.4616 6.65685 15.0711L0.292893 8.70711ZM21 9H1V7H21V9Z"
              fill="black"/>
    </symbol>
    <symbol id="icon_search" viewBox="0 0 22 23">
        <path d="M21.6655 20.9494L16.2421 15.2561C17.6366 13.5829 18.4006 11.4778 18.4006 9.28624C18.4006 4.16589 14.2733 0 9.2003 0C4.12733 0 0 4.16589 0 9.28624C0 14.4066 4.12733 18.5725 9.2003 18.5725C11.1048 18.5725 12.9196 17.9927 14.4713 16.8921L19.9358 22.6286C20.1643 22.868 20.4715 23 20.8007 23C21.1123 23 21.4079 22.8801 21.6323 22.6621C22.1091 22.199 22.1243 21.431 21.6655 20.9494ZM9.2003 2.4225C12.95 2.4225 16.0005 5.50149 16.0005 9.28624C16.0005 13.071 12.95 16.15 9.2003 16.15C5.45058 16.15 2.40008 13.071 2.40008 9.28624C2.40008 5.50149 5.45058 2.4225 9.2003 2.4225Z"
              fill="currentColor"/>
    </symbol>
    <symbol id="icon_view_on_plan" viewBox="0 0 26 27">
        <path d="M22.4945 24.9152L12.0826 19.4024C11.8113 19.2584 11.4803 19.2783 11.2239 19.452L3.26234 24.9649C2.96452 25.1717 2.83547 25.5473 2.94467 25.8931C3.05056 26.2355 3.37154 26.4721 3.73222 26.4721H22.1057C22.4846 26.4721 22.8171 26.214 22.9081 25.8434C23.0008 25.4745 22.8287 25.0923 22.4945 24.9152Z"
              fill="currentColor"/>
        <path d="M25.9806 23.3437L23.5319 12.3196C23.4724 12.05 23.2821 11.8299 23.0257 11.729C22.7676 11.628 22.478 11.6628 22.253 11.8183L14.2898 17.3312C14.0515 17.4966 13.9175 17.7729 13.9357 18.0592C13.9523 18.3487 14.1194 18.6068 14.3742 18.7408L24.7844 24.2537C24.9069 24.3182 25.0392 24.3513 25.1716 24.3513C25.3486 24.3513 25.5257 24.2951 25.6729 24.1809C25.9294 23.9857 26.0501 23.6597 25.9806 23.3437Z"
              fill="currentColor"/>
        <path d="M20.2189 10.5065C20.1097 10.1607 19.7904 9.92578 19.428 9.92578H11.8768C10.5035 12.4125 8.47178 14.7901 7.63624 15.7199C7.16636 16.2427 6.49297 16.5439 5.7898 16.5439C5.08663 16.5439 4.41324 16.2427 3.94335 15.7199C3.62072 15.3609 3.12105 14.7868 2.54859 14.0753L0.546619 23.0858C0.47382 23.4184 0.611145 23.7609 0.892414 23.9512C1.03139 24.0455 1.19354 24.0918 1.35403 24.0918C1.51948 24.0918 1.68328 24.0438 1.82556 23.9445L19.8979 11.4314C20.1974 11.2279 20.3248 10.8523 20.2189 10.5065Z"
              fill="currentColor"/>
        <path d="M5.79083 0C2.5976 0 0 2.5976 0 5.79083C0 8.76235 4.6459 14.0254 5.17534 14.616C5.33252 14.7898 5.55588 14.8907 5.79083 14.8907C6.02577 14.8907 6.24913 14.7898 6.40631 14.616C6.93575 14.0254 11.5817 8.76235 11.5817 5.79083C11.5817 2.5976 8.98405 0 5.79083 0ZM5.79083 8.27261C4.42088 8.27261 3.30904 7.16077 3.30904 5.79083C3.30904 4.42088 4.42088 3.30904 5.79083 3.30904C7.16077 3.30904 8.27261 4.42088 8.27261 5.79083C8.27261 7.16077 7.16077 8.27261 5.79083 8.27261Z"
              fill="currentColor"/>
    </symbol>
    <symbol id="icon_company_contact_glob" viewBox="0 0 24 24">
        <path d="M12.4287 23.9516C14.264 23.6908 15.8729 21.7753 16.8853 18.9465C15.4218 18.6187 13.9283 18.4428 12.4287 18.4219V23.9516Z"
              fill="#FFC700"/>
        <path d="M15.3611 23.5016C15.4696 23.4702 15.5776 23.4386 15.6849 23.4038C15.7753 23.3747 15.8646 23.3433 15.9538 23.3121C16.0593 23.2756 16.1645 23.2381 16.2692 23.1984C16.3584 23.1644 16.4468 23.1284 16.5354 23.0924C16.6376 23.0494 16.7396 23.0067 16.8405 22.9638C16.9287 22.925 17.0162 22.8844 17.1038 22.8436C17.2028 22.7969 17.3015 22.7493 17.3993 22.6999C17.4852 22.6561 17.5708 22.6115 17.6567 22.5656C17.7528 22.5141 17.8483 22.4616 17.9432 22.4075C18.0291 22.3589 18.1118 22.3101 18.1954 22.2599C18.2883 22.2027 18.3809 22.1455 18.4729 22.0883C18.5552 22.036 18.6373 21.9828 18.7183 21.9279C18.8088 21.867 18.898 21.8035 18.9868 21.7401C19.0666 21.6829 19.146 21.6259 19.2239 21.5685C19.3098 21.5023 19.3977 21.4339 19.4838 21.3652C19.5602 21.3042 19.6365 21.2437 19.7117 21.1811C19.7973 21.1099 19.8794 21.0361 19.9626 20.9624C20.0355 20.8977 20.1088 20.8336 20.18 20.7672C20.2619 20.6908 20.3416 20.6116 20.4214 20.5331C20.4906 20.4648 20.5605 20.3976 20.6282 20.3276C20.6407 20.3146 20.6527 20.3006 20.6656 20.2872C19.7301 19.804 18.7447 19.4247 17.7266 19.1562C17.1972 20.8447 16.2549 22.3749 14.9854 23.6076C15.0201 23.5986 15.0549 23.5913 15.0897 23.5822C15.1814 23.5565 15.2714 23.5282 15.3611 23.5016Z"
              fill="#FFC700"/>
        <path d="M24.0001 12.4043H18.8572C18.8377 14.4124 18.5464 16.4085 17.9912 18.3385C19.1234 18.6409 20.216 19.0757 21.2465 19.6338C22.9383 17.5947 23.9067 15.0524 24.0001 12.4043Z"
              fill="#FFC700"/>
        <path d="M12.4287 11.5473H17.9991C17.9773 9.61019 17.6931 7.68506 17.1546 5.82422C15.6036 6.17796 14.0194 6.36687 12.4287 6.38781V11.5473Z"
              fill="#FFC700"/>
        <path d="M12.4287 0V5.52972C13.9283 5.50857 15.4218 5.33285 16.8853 5.00509C15.8729 2.17624 14.264 0.260747 12.4287 0Z"
              fill="#FFC700"/>
        <path d="M12.4287 17.5637C14.0194 17.5849 15.6036 17.7738 17.1546 18.1275C17.6931 16.2667 17.9773 14.3414 17.9991 12.4043H12.4287V17.5637Z"
              fill="#FFC700"/>
        <path d="M21.2465 4.31836C20.216 4.8765 19.1234 5.31129 17.9912 5.61372C18.5464 7.54367 18.8377 9.53979 18.8572 11.5479H24.0001C23.9065 8.89997 22.9381 6.35763 21.2465 4.31836Z"
              fill="#FFC700"/>
        <path d="M20.6671 3.667C20.6545 3.65422 20.6426 3.6404 20.6302 3.62721C20.5624 3.55725 20.492 3.48982 20.4229 3.42175C20.3433 3.34321 20.2639 3.26384 20.1818 3.1876C20.1108 3.12142 20.0373 3.0588 19.9644 2.99283C19.8813 2.9191 19.7981 2.84475 19.7127 2.77355C19.6385 2.71093 19.5625 2.65103 19.4871 2.59092C19.4012 2.52139 19.3133 2.45227 19.2249 2.38588C19.1474 2.32745 19.0689 2.2709 18.9899 2.21435C18.9003 2.14985 18.8102 2.08555 18.7189 2.02419C18.6387 1.97015 18.5572 1.91737 18.4757 1.86564C18.383 1.80596 18.2904 1.74752 18.1959 1.69098C18.1132 1.64134 18.0296 1.59233 17.9459 1.54479C17.85 1.48992 17.7538 1.43672 17.6569 1.38478C17.571 1.34185 17.4853 1.29514 17.3995 1.25221C17.3008 1.20236 17.2013 1.1544 17.0993 1.10728C17.0135 1.06644 16.9263 1.02665 16.838 0.9879C16.7364 0.942872 16.6338 0.902241 16.5313 0.859307C16.443 0.823284 16.355 0.78768 16.2658 0.753752C16.1617 0.713959 16.0561 0.676679 15.9506 0.640238C15.8614 0.608822 15.7721 0.577616 15.6817 0.548295C15.5744 0.513529 15.4672 0.481904 15.357 0.45007C15.2678 0.423891 15.1782 0.397292 15.0879 0.373417C15.0534 0.363992 15.0182 0.356662 14.9834 0.347656C16.253 1.58039 17.195 3.11032 17.7247 4.799C18.7438 4.5305 19.7307 4.151 20.6671 3.667Z"
              fill="#FFC700"/>
        <path d="M0 11.5479H5.1429C5.16237 9.53979 5.4537 7.54367 6.0087 5.61372C4.8767 5.3115 3.78408 4.87671 2.75366 4.31836C1.06184 6.35742 0.0934082 8.89997 0 11.5479Z"
              fill="#FFC700"/>
        <path d="M11.5699 23.9516V18.4219C10.0703 18.443 8.57682 18.6187 7.11328 18.9465C8.12548 21.7753 9.73458 23.6908 11.5699 23.9516Z"
              fill="#FFC700"/>
        <path d="M11.5713 12.4043H6.00098C6.02276 14.3414 6.30675 16.2667 6.84542 18.1275C8.3965 17.7736 9.98045 17.5847 11.5713 17.5637V12.4043Z"
              fill="#FFC700"/>
        <path d="M11.5699 0C9.73458 0.260747 8.12548 2.17624 7.11328 5.00509C8.57682 5.33306 10.0703 5.50878 11.5699 5.52972V0Z"
              fill="#FFC700"/>
        <path d="M11.5713 6.38781C9.98066 6.36687 8.3965 6.17796 6.84542 5.82422C6.30675 7.68506 6.02276 9.61019 6.00098 11.5473H11.5713V6.38781Z"
              fill="#FFC700"/>
        <path d="M9.015 0.347656C8.98023 0.356662 8.94547 0.363992 8.9107 0.372998C8.81981 0.397292 8.73017 0.42431 8.63969 0.450489C8.53204 0.481904 8.42523 0.513529 8.31716 0.547877C8.22605 0.577407 8.13642 0.608822 8.04678 0.640028C7.94185 0.677098 7.83671 0.713959 7.73283 0.753333C7.64319 0.78768 7.55481 0.823284 7.46601 0.859726C7.36402 0.90266 7.26181 0.945594 7.16107 0.988319C7.07269 1.02706 6.98536 1.0677 6.89781 1.10854C6.79875 1.15524 6.70011 1.20278 6.6023 1.25221C6.51643 1.29598 6.43056 1.3408 6.3449 1.38646C6.24877 1.43798 6.15348 1.49075 6.05881 1.54479C5.97294 1.59275 5.88854 1.64197 5.80581 1.69223C5.71262 1.74836 5.62046 1.80637 5.52873 1.86376C5.44621 1.91654 5.36432 1.96973 5.28327 2.02461C5.1928 2.08555 5.10358 2.14901 5.01478 2.21247C4.93498 2.26964 4.8556 2.32661 4.77748 2.38421C4.68973 2.45018 4.60596 2.51887 4.51757 2.58736C4.44134 2.6483 4.36448 2.70883 4.28992 2.77187C4.20405 2.84266 4.12258 2.91596 4.03985 2.98926C3.96655 3.05461 3.89262 3.11807 3.82099 3.18572C3.73952 3.26174 3.66014 3.3407 3.58056 3.41903C3.51144 3.4873 3.44107 3.55474 3.37322 3.6249C3.36086 3.63789 3.34892 3.65213 3.33594 3.66532C4.27128 4.1487 5.25688 4.52799 6.27495 4.79648C6.8044 3.10885 7.74603 1.57976 9.015 0.347656Z"
              fill="#FFC700"/>
        <path d="M3.57707 20.5307C3.65686 20.6092 3.73624 20.6886 3.81813 20.7651C3.88934 20.831 3.96264 20.8937 4.03573 20.9596C4.11888 21.0336 4.20202 21.1077 4.28747 21.1789C4.36161 21.2411 4.43722 21.3012 4.51303 21.3615C4.5989 21.4311 4.68456 21.5002 4.77546 21.567C4.85274 21.625 4.93128 21.6811 5.00981 21.7387C5.09945 21.803 5.18993 21.8673 5.28124 21.9291C5.36146 21.9831 5.44293 22.0359 5.5244 22.0879C5.61718 22.1473 5.70975 22.2058 5.8042 22.2623C5.88693 22.3122 5.97049 22.361 6.05427 22.4087C6.15019 22.4636 6.24632 22.5168 6.34329 22.5685C6.42895 22.6114 6.51482 22.6581 6.60069 22.7011C6.69933 22.7509 6.79881 22.7989 6.90081 22.8462C6.98668 22.8866 7.0738 22.9264 7.16218 22.9654C7.26376 23.0104 7.36617 23.051 7.4688 23.094C7.55718 23.13 7.64514 23.1656 7.73436 23.1995C7.83845 23.2395 7.94401 23.2768 8.04956 23.3133C8.13878 23.3445 8.228 23.3759 8.31848 23.405C8.42571 23.4398 8.53294 23.4716 8.6431 23.5032C8.73232 23.5294 8.82196 23.556 8.91202 23.5801C8.94678 23.5895 8.98197 23.5968 9.01673 23.6058C7.74714 22.3729 6.8051 20.843 6.27543 19.1543C5.25737 19.423 4.27176 19.8023 3.33643 20.2859C3.34899 20.2987 3.36093 20.3125 3.3735 20.3257C3.43779 20.3952 3.50712 20.4626 3.57707 20.5307Z"
              fill="#FFC700"/>
        <path d="M2.75366 19.6338C3.78408 19.0757 4.8767 18.6409 6.0087 18.3385C5.4537 16.4085 5.16237 14.4124 5.1429 12.4043H0C0.0936176 15.0522 1.06184 17.5945 2.75366 19.6338Z"
              fill="#FFC700"/>
    </symbol>
    <symbol id="icon_company_contact_phone" viewBox="0 0 24 24">
        <path d="M18.2461 15.877C17.462 15.1029 16.4832 15.1029 15.7041 15.877C15.1098 16.4663 14.5155 17.0556 13.9312 17.6549C13.7713 17.8197 13.6365 17.8547 13.4417 17.7448C13.0572 17.535 12.6477 17.3652 12.2781 17.1355C10.5551 16.0518 9.11178 14.6584 7.83327 13.0902C7.19901 12.3111 6.63467 11.4771 6.24013 10.5382C6.16023 10.3484 6.17521 10.2236 6.33003 10.0688C6.92433 9.49443 7.50366 8.90511 8.08798 8.3158C8.90203 7.49676 8.90203 6.53788 8.08298 5.71384C7.61853 5.24438 7.15407 4.78492 6.68961 4.31547C6.21017 3.83603 5.73572 3.35159 5.25129 2.87715C4.4672 2.11304 3.48834 2.11304 2.70925 2.88214C2.10995 3.47145 1.53562 4.07575 0.926332 4.65507C0.361991 5.18945 0.0773229 5.84369 0.0173928 6.60779C-0.0774965 7.85134 0.227148 9.02497 0.656647 10.1686C1.53562 12.5359 2.87406 14.6384 4.49717 16.5662C6.68961 19.1731 9.30656 21.2357 12.368 22.724C13.7464 23.3932 15.1747 23.9076 16.7279 23.9925C17.7966 24.0524 18.7256 23.7828 19.4697 22.9487C19.9791 22.3794 20.5534 21.86 21.0928 21.3156C21.8919 20.5066 21.8969 19.5277 21.1028 18.7287C20.1539 17.7748 19.2 16.8259 18.2461 15.877Z"
              fill="#FFC700"/>
        <path d="M17.2921 11.8966L19.135 11.582C18.8453 9.88898 18.0462 8.35577 16.8326 7.13719C15.5491 5.85369 13.926 5.04463 12.1381 4.79492L11.8784 6.64776C13.2618 6.84253 14.5203 7.4668 15.5142 8.46064C16.4531 9.39955 17.0674 10.5882 17.2921 11.8966Z"
              fill="#FFC700"/>
        <path d="M20.1756 3.88547C18.0481 1.75795 15.3562 0.414516 12.3847 0L12.125 1.85284C14.692 2.21242 17.0193 3.37606 18.8572 5.20892C20.6001 6.95189 21.7438 9.15432 22.1583 11.5765L24.0012 11.2619C23.5167 8.45514 22.1933 5.90811 20.1756 3.88547Z"
              fill="#FFC700"/>
    </symbol>
    <symbol id="icon_company_contact_time" viewBox="0 0 24 24">
        <path d="M20.4853 3.51473C18.2188 1.24823 15.2053 0 12 0C8.79469 0 5.78119 1.24823 3.51469 3.51473C1.24819 5.78123 0 8.79469 0 12C0 15.2053 1.24819 18.2188 3.51469 20.4853C5.78119 22.7517 8.79469 24 12 24C15.2053 24 18.2188 22.7518 20.4853 20.4853C22.7518 18.2188 24 15.2053 24 12C24 8.79469 22.7518 5.78119 20.4853 3.51473ZM12 21.6446C6.68189 21.6446 2.35538 17.3181 2.35538 12C2.35538 11.9913 2.35566 11.9827 2.3557 11.974C2.3557 11.9718 2.35538 11.9697 2.35538 11.9675C2.35538 11.9638 2.35584 11.9602 2.35594 11.9566C2.37933 6.70223 6.62559 2.42738 11.8689 2.35706C11.8799 2.35655 11.8908 2.35542 11.9019 2.35542C11.9085 2.35542 11.915 2.35622 11.9216 2.35641C11.9478 2.35622 11.9738 2.35542 12 2.35542C17.3182 2.35542 21.6447 6.68198 21.6447 12C21.6447 17.3181 17.3181 21.6446 12 21.6446Z"
              fill="#FFC700"/>
        <path d="M19.3271 12.58C18.935 12.58 18.617 12.2621 18.617 11.8699C18.617 11.4778 18.935 11.1598 19.3271 11.1598H20.183C19.781 7.21878 16.5848 4.09236 12.6131 3.79883V4.54391C12.6131 4.93606 12.2952 5.25397 11.903 5.25397C11.5108 5.25397 11.1929 4.93606 11.1929 4.54391V3.8158C7.28 4.19923 4.16314 7.3362 3.8105 11.258H4.577C4.96916 11.258 5.28706 11.5759 5.28706 11.968C5.28706 12.3602 4.96916 12.6781 4.577 12.6781H3.80469C4.13117 16.663 7.31052 19.8521 11.2911 20.1941V19.294C11.2911 18.9018 11.609 18.5839 12.0012 18.5839C12.3933 18.5839 12.7112 18.9018 12.7112 19.294V20.1941C16.7244 19.8493 19.9231 16.6105 20.205 12.58H19.3271ZM14.8755 10.1304L12.5033 12.5027C12.3701 12.6358 12.1895 12.7107 12.0012 12.7107C11.8129 12.7107 11.6322 12.6358 11.4991 12.5027L7.36977 8.37331C7.09245 8.09605 7.09245 7.64647 7.36977 7.36916C7.64703 7.09184 8.09661 7.09184 8.37392 7.36916L12.0013 10.9964L13.8715 9.12622C14.1487 8.84891 14.5983 8.84891 14.8756 9.12622C15.1528 9.40348 15.1528 9.85311 14.8755 10.1304Z"
              fill="#FFC700"/>
    </symbol>
    <symbol id="icon_rent_table_action" viewBox="0 0 36 37">
        <path d="M30.6065 34.8812L16.4397 27.3803C16.0705 27.1844 15.6203 27.2114 15.2714 27.4478L4.4386 34.9488C4.03339 35.2302 3.8578 35.7412 4.00637 36.2117C4.15045 36.6777 4.58718 36.9996 5.07795 36.9996H30.0775C30.593 36.9996 31.0455 36.6484 31.1693 36.1442C31.2954 35.6422 31.0613 35.1221 30.6065 34.8812Z"
              fill="currentColor"/>
        <path d="M35.3504 32.7424L32.0187 17.7427C31.9376 17.3758 31.6787 17.0763 31.3298 16.939C30.9786 16.8017 30.5846 16.849 30.2785 17.0606L19.4435 24.5616C19.1193 24.7867 18.9369 25.1626 18.9617 25.5521C18.9842 25.9461 19.2116 26.2973 19.5583 26.4796L33.7228 33.9806C33.8894 34.0684 34.0695 34.1134 34.2496 34.1134C34.4905 34.1134 34.7314 34.0369 34.9317 33.8815C35.2806 33.6159 35.445 33.1724 35.3504 32.7424Z"
              fill="currentColor"/>
        <path d="M27.5098 15.2765C27.3612 14.806 26.9267 14.4863 26.4337 14.4863H16.1592C14.2907 17.8699 11.5263 21.1049 10.3894 22.37C9.75007 23.0814 8.83383 23.4911 7.87707 23.4911C6.92031 23.4911 6.00407 23.0814 5.36473 22.37C4.92575 21.8815 4.24589 21.1003 3.46697 20.1323L0.743023 32.3924C0.643971 32.8448 0.83082 33.3108 1.21352 33.5697C1.40262 33.6981 1.62324 33.7611 1.84161 33.7611C2.06673 33.7611 2.2896 33.6958 2.4832 33.5607L27.073 16.5349C27.4805 16.258 27.6538 15.747 27.5098 15.2765Z"
              fill="currentColor"/>
        <path d="M7.87919 0.980469C3.53438 0.980469 0 4.51485 0 8.85966C0 12.9028 6.32137 20.0639 7.04175 20.8676C7.25561 21.1039 7.55952 21.2413 7.87919 21.2413C8.19886 21.2413 8.50278 21.1039 8.71664 20.8676C9.43702 20.0639 15.7584 12.9028 15.7584 8.85966C15.7584 4.51485 12.224 0.980469 7.87919 0.980469ZM7.87919 12.2365C6.0152 12.2365 4.5024 10.7237 4.5024 8.85966C4.5024 6.99567 6.0152 5.48287 7.87919 5.48287C9.74319 5.48287 11.256 6.99567 11.256 8.85966C11.256 10.7237 9.74319 12.2365 7.87919 12.2365Z"
              fill="black"/>
    </symbol>
    <symbol id="icon_slider_arrow_next" viewBox="0 0 15 8">
        <path d="M14.3536 4.35355C14.5488 4.15829 14.5488 3.84171 14.3536 3.64645L11.1716 0.464466C10.9763 0.269204 10.6597 0.269204 10.4645 0.464466C10.2692 0.659728 10.2692 0.976311 10.4645 1.17157L13.2929 4L10.4645 6.82843C10.2692 7.02369 10.2692 7.34027 10.4645 7.53553C10.6597 7.7308 10.9763 7.7308 11.1716 7.53553L14.3536 4.35355ZM0 4.5H14V3.5H0V4.5Z"
              fill="currentColor"/>
    </symbol>
    <symbol id="icon_slider_arrow_prev" viewBox="0 0 15 8">
        <path d="M0.646447 4.35355C0.451184 4.15829 0.451184 3.84171 0.646447 3.64645L3.82843 0.464466C4.02369 0.269204 4.34027 0.269204 4.53553 0.464466C4.7308 0.659728 4.7308 0.976311 4.53553 1.17157L1.70711 4L4.53553 6.82843C4.7308 7.02369 4.7308 7.34027 4.53553 7.53553C4.34027 7.7308 4.02369 7.7308 3.82843 7.53553L0.646447 4.35355ZM15 4.5H1V3.5H15V4.5Z"
              fill="currentColor"/>
    </symbol>
    <!--    <symbol id="icon_asd" viewBox="0 0 24 24"></symbol>-->
</svg>


