<svg width="16" height="16" viewBox="0 0 16 16" fill="none" xmlns="http://www.w3.org/2000/svg" class="svg-icon icon">
<path d="M5.65209 8.82716C5.65209 8.62673 5.48952 8.46436 5.28892 8.46436H4.02161C3.82125 8.46436 3.65865 8.62673 3.65865 8.82716V10.0943C3.65865 10.295 3.82125 10.4574 4.02161 10.4574H5.28892C5.48952 10.4574 5.65209 10.295 5.65209 10.0943V8.82716Z" fill="black"/>
<path d="M8.81924 8.82716C8.81924 8.62673 8.65663 8.46436 8.45644 8.46436H7.18897C6.98861 8.46436 6.826 8.62673 6.826 8.82716V10.0943C6.826 10.295 6.98861 10.4574 7.18897 10.4574H8.45644C8.65663 10.4574 8.81924 10.295 8.81924 10.0943V8.82716Z" fill="black"/>
<path d="M11.9866 8.82716C11.9866 8.62673 11.824 8.46436 11.6237 8.46436H10.3563C10.1558 8.46436 9.99318 8.62673 9.99318 8.82716V10.0943C9.99318 10.295 10.1558 10.4574 10.3563 10.4574H11.6237C11.824 10.4574 11.9866 10.295 11.9866 10.0943V8.82716Z" fill="black"/>
<path d="M5.65209 11.9946C5.65209 11.7938 5.48952 11.6316 5.28892 11.6316H4.02161C3.82125 11.6316 3.65865 11.7938 3.65865 11.9946V13.2615C3.65865 13.4621 3.82125 13.6245 4.02161 13.6245H5.28892C5.48952 13.6245 5.65209 13.462 5.65209 13.2615V11.9946Z" fill="black"/>
<path d="M8.81924 11.9946C8.81924 11.7938 8.65663 11.6316 8.45644 11.6316H7.18897C6.98861 11.6316 6.826 11.7938 6.826 11.9946V13.2615C6.826 13.4621 6.98861 13.6245 7.18897 13.6245H8.45644C8.65663 13.6245 8.81924 13.462 8.81924 13.2615V11.9946Z" fill="black"/>
<path d="M11.9866 11.9946C11.9866 11.7938 11.824 11.6316 11.6238 11.6316H10.3563C10.1558 11.6316 9.99318 11.7938 9.99318 11.9946V13.2615C9.99318 13.4621 10.1558 13.6245 10.3563 13.6245H11.6238C11.824 13.6245 11.9866 13.462 11.9866 13.2615V11.9946Z" fill="black"/>
<path d="M14.2527 1.78161V3.71707C14.2527 4.59188 13.543 5.29684 12.6683 5.29684H11.6689C10.7941 5.29684 10.0751 4.59188 10.0751 3.71707V1.77466H5.57023V3.71707C5.57023 4.59188 4.85118 5.29684 3.97656 5.29684H2.97691C2.10226 5.29684 1.39262 4.59188 1.39262 3.71707V1.78161C0.628165 1.80465 0 2.43721 0 3.2147V14.5574C0 15.3495 0.642029 16.0001 1.43414 16.0001H14.2111C15.0021 16.0001 15.6453 15.3482 15.6453 14.5574V3.2147C15.6453 2.43721 15.0172 1.80465 14.2527 1.78161ZM13.7885 13.8511C13.7885 14.1934 13.5109 14.4711 13.1685 14.4711H2.4495C2.10705 14.4711 1.8295 14.1934 1.8295 13.8511V7.99216C1.8295 7.64971 2.10702 7.372 2.4495 7.372H13.1685C13.5109 7.372 13.7885 7.64971 13.7885 7.99216L13.7885 13.8511Z" fill="black"/>
<path d="M2.97343 4.25917H3.96204C4.26211 4.25917 4.50541 4.01622 4.50541 3.71615V0.543208C4.50541 0.243105 4.26211 0 3.96204 0H2.97343C2.67332 0 2.43005 0.243105 2.43005 0.543208V3.71615C2.43005 4.01622 2.67332 4.25917 2.97343 4.25917Z" fill="black"/>
<path d="M11.6562 4.25917H12.6448C12.9447 4.25917 13.188 4.01622 13.188 3.71615V0.543208C13.188 0.243105 12.9447 0 12.6448 0H11.6562C11.3561 0 11.1128 0.243105 11.1128 0.543208V3.71615C11.1128 4.01622 11.3561 4.25917 11.6562 4.25917Z" fill="black"/>
</svg>
