<svg width="21" height="13" viewBox="0 0 21 13" fill="none" xmlns="http://www.w3.org/2000/svg" class="svg-icon icon">
<path d="M10.5 0C6.48773 0 2.84919 2.19515 0.164314 5.76066C-0.0547714 6.05278 -0.0547714 6.46088 0.164314 6.75299C2.84919 10.3228 6.48773 12.518 10.5 12.518C14.5123 12.518 18.1508 10.3228 20.8357 6.75729C21.0548 6.46517 21.0548 6.05707 20.8357 5.76496C18.1508 2.19515 14.5123 0 10.5 0ZM10.7878 10.6665C8.12442 10.834 5.92498 8.63885 6.09251 5.97116C6.22998 3.77171 8.01273 1.98895 10.2122 1.85149C12.8756 1.68395 15.075 3.8791 14.9075 6.54679C14.7657 8.74195 12.983 10.5247 10.7878 10.6665ZM10.6546 8.63025C9.21985 8.72047 8.03421 7.53912 8.12872 6.10433C8.20175 4.91869 9.16401 3.96072 10.3496 3.8834C11.7844 3.79319 12.9701 4.97453 12.8756 6.40933C12.7983 7.59926 11.836 8.55723 10.6546 8.63025Z" fill="black"/>
</svg>
