<svg width="24" height="24" viewBox="0 0 24 24" fill="none" xmlns="http://www.w3.org/2000/svg">
<path d="M20.4853 3.51473C18.2188 1.24823 15.2053 0 12 0C8.79469 0 5.78119 1.24823 3.51469 3.51473C1.24819 5.78123 0 8.79469 0 12C0 15.2053 1.24819 18.2188 3.51469 20.4853C5.78119 22.7517 8.79469 24 12 24C15.2053 24 18.2188 22.7518 20.4853 20.4853C22.7518 18.2188 24 15.2053 24 12C24 8.79469 22.7518 5.78119 20.4853 3.51473ZM12 21.6446C6.68189 21.6446 2.35538 17.3181 2.35538 12C2.35538 11.9913 2.35566 11.9827 2.3557 11.974C2.3557 11.9718 2.35538 11.9697 2.35538 11.9675C2.35538 11.9638 2.35584 11.9602 2.35594 11.9566C2.37933 6.70223 6.62559 2.42738 11.8689 2.35706C11.8799 2.35655 11.8908 2.35542 11.9019 2.35542C11.9085 2.35542 11.915 2.35622 11.9216 2.35641C11.9478 2.35622 11.9738 2.35542 12 2.35542C17.3182 2.35542 21.6447 6.68198 21.6447 12C21.6447 17.3181 17.3181 21.6446 12 21.6446Z" fill="#FFC700"/>
<path d="M19.3271 12.5795C18.935 12.5795 18.617 12.2616 18.617 11.8694C18.617 11.4773 18.935 11.1594 19.3271 11.1594H20.183C19.781 7.21829 16.5848 4.09187 12.6131 3.79834V4.54342C12.6131 4.93557 12.2952 5.25348 11.903 5.25348C11.5108 5.25348 11.1929 4.93557 11.1929 4.54342V3.81531C7.28 4.19875 4.16314 7.33571 3.8105 11.2575H4.577C4.96916 11.2575 5.28706 11.5754 5.28706 11.9675C5.28706 12.3597 4.96916 12.6776 4.577 12.6776H3.80469C4.13117 16.6625 7.31052 19.8516 11.2911 20.1936V19.2935C11.2911 18.9013 11.609 18.5834 12.0012 18.5834C12.3933 18.5834 12.7112 18.9013 12.7112 19.2935V20.1936C16.7244 19.8488 19.9231 16.61 20.205 12.5795H19.3271ZM14.8755 10.1299L12.5033 12.5022C12.3701 12.6354 12.1895 12.7102 12.0012 12.7102C11.8129 12.7102 11.6322 12.6354 11.4991 12.5022L7.36977 8.37282C7.09245 8.09556 7.09245 7.64598 7.36977 7.36867C7.64703 7.09136 8.09661 7.09136 8.37392 7.36867L12.0013 10.9959L13.8715 9.12573C14.1487 8.84842 14.5983 8.84842 14.8756 9.12573C15.1528 9.403 15.1528 9.85262 14.8755 10.1299Z" fill="#FFC700"/>
</svg>
