<svg width="18" height="25" viewBox="0 0 18 25" fill="none" xmlns="http://www.w3.org/2000/svg" class="svg-icon icon for-address">
<path d="M9 0.979492C4.038 0.979492 0 5.04549 0 10.0445C0 17.1475 8.154 24.4815 8.501 24.7895C8.644 24.9165 8.822 24.9795 9 24.9795C9.178 24.9795 9.356 24.9165 9.499 24.7905C9.846 24.4815 18 17.1475 18 10.0445C18 5.04549 13.962 0.979492 9 0.979492ZM9 14.9795C6.243 14.9795 4 12.7365 4 9.97949C4 7.22249 6.243 4.97949 9 4.97949C11.757 4.97949 14 7.22249 14 9.97949C14 12.7365 11.757 14.9795 9 14.9795Z" fill="white"/>
</svg>
