<svg width="24" height="25" viewBox="0 0 24 25" fill="none" xmlns="http://www.w3.org/2000/svg" class="svg-icon icon for-phone">
<path d="M18.2466 16.856C17.4625 16.0819 16.4836 16.0819 15.7045 16.856C15.1102 17.4453 14.5158 18.0346 13.9315 18.6339C13.7717 18.7987 13.6368 18.8337 13.4421 18.7238C13.0575 18.514 12.648 18.3442 12.2784 18.1145C10.5554 17.0308 9.11201 15.6374 7.83347 14.0692C7.19919 13.2901 6.63483 12.4561 6.24029 11.5172C6.16038 11.3274 6.17536 11.2026 6.33018 11.0477C6.9245 10.4734 7.50384 9.8841 8.08817 9.29479C8.90224 8.47574 8.90224 7.51686 8.08318 6.69282C7.61871 6.22337 7.15424 5.76391 6.68977 5.29446C6.21032 4.81502 5.73586 4.33058 5.25141 3.85613C4.46731 3.09203 3.48843 3.09203 2.70932 3.86113C2.11 4.45044 1.53566 5.05474 0.926355 5.63406C0.362 6.16844 0.0773248 6.82267 0.0173933 7.58678C-0.0774984 8.83033 0.227154 10.004 0.656663 11.1476C1.53566 13.5149 2.87413 15.6174 4.49728 17.5452C6.68977 20.1521 9.30678 22.2147 12.3683 23.703C13.7467 24.3722 15.1751 24.8866 16.7283 24.9715C17.7971 25.0314 18.726 24.7617 19.4702 23.9277C19.9796 23.3584 20.5539 22.839 21.0933 22.2946C21.8924 21.4856 21.8974 20.5067 21.1033 19.7076C20.1544 18.7537 19.2005 17.8049 18.2466 16.856Z" fill="white"/>
<path d="M17.2927 12.8756L19.1356 12.561C18.8459 10.868 18.0468 9.33474 16.8332 8.11616C15.5497 6.83266 13.9265 6.0236 12.1385 5.7739L11.8788 7.62673C13.2623 7.82151 14.5208 8.44578 15.5147 9.43962C16.4536 10.3785 17.0679 11.5671 17.2927 12.8756Z" fill="white"/>
<path d="M20.1744 4.86496C18.0468 2.73744 15.3549 1.39401 12.3833 0.979492L12.1236 2.83233C14.6906 3.19191 17.018 4.35555 18.8559 6.18841C20.5989 7.93138 21.7426 10.1338 22.1571 12.556L24 12.2413C23.5156 9.43462 22.1921 6.8876 20.1744 4.86496Z" fill="white"/>
</svg>
