<svg width="17" height="17" viewBox="0 0 17 17" fill="none" xmlns="http://www.w3.org/2000/svg">
<path d="M12.405 12.8638C11.8041 13.5311 11.0836 14.0125 10.3101 14.3279C8.25831 15.1646 5.81812 14.7728 4.13489 13.1394L5.64216 11.6321C5.72516 11.5491 5.6654 11.3997 5.54256 11.3798L0.154227 10.5564C0.0645878 10.5431 -0.0117718 10.6195 0.00150815 10.7091L0.824864 16.1008C0.844784 16.2236 0.994184 16.2834 1.07718 16.2004L2.58778 14.6898C5.13752 17.1831 8.96214 17.6081 11.9501 15.9713C12.8498 15.48 13.6732 14.7994 14.3638 13.9329C15.5357 12.4588 16.0968 10.6461 16.0603 8.84663L13.8458 8.508C13.9786 10.0584 13.5006 11.652 12.405 12.8638Z" fill="black"/>
<path d="M13.7363 2.83742C11.1865 0.344117 7.36192 -0.0808399 4.37393 1.55591C3.47422 2.04727 2.65086 2.72787 1.9603 3.59438C0.788349 5.06846 0.227272 6.88117 0.263792 8.6806L2.47822 9.01924C2.34542 7.47212 2.8235 5.87521 3.9191 4.66342C4.52001 3.9961 5.24045 3.5147 6.01401 3.1993C8.06576 2.36267 10.5059 2.75443 12.1892 4.38786L10.6819 5.89513C10.5989 5.97813 10.6587 6.12753 10.7815 6.14745L16.1698 6.9708C16.2595 6.98408 16.3358 6.90773 16.3226 6.81809L15.4992 1.42643C15.4793 1.30359 15.3299 1.24715 15.2469 1.32683L13.7363 2.83742Z" fill="black"/>
</svg>
