<svg width="25" height="24" viewBox="0 0 25 24" fill="none" xmlns="http://www.w3.org/2000/svg">
<path d="M18.2461 15.8765C17.462 15.1024 16.4832 15.1024 15.7041 15.8765C15.1098 16.4658 14.5155 17.0551 13.9312 17.6544C13.7713 17.8192 13.6365 17.8542 13.4417 17.7443C13.0572 17.5346 12.6477 17.3648 12.2781 17.135C10.5551 16.0513 9.11178 14.6579 7.83327 13.0897C7.19901 12.3107 6.63467 11.4766 6.24013 10.5377C6.16023 10.3479 6.17521 10.2231 6.33003 10.0683C6.92433 9.49394 7.50366 8.90463 8.08798 8.31531C8.90203 7.49627 8.90203 6.53739 8.08298 5.71335C7.61853 5.2439 7.15407 4.78443 6.68961 4.31498C6.21017 3.83554 5.73572 3.3511 5.25129 2.87666C4.4672 2.11255 3.48834 2.11255 2.70925 2.88165C2.10995 3.47096 1.53562 4.07526 0.926332 4.65458C0.361991 5.18896 0.0773229 5.8432 0.0173928 6.60731C-0.0774965 7.85085 0.227148 9.02449 0.656647 10.1682C1.53562 12.5354 2.87406 14.6379 4.49717 16.5657C6.68961 19.1726 9.30656 21.2352 12.368 22.7235C13.7464 23.3927 15.1747 23.9071 16.7279 23.992C17.7966 24.052 18.7256 23.7823 19.4697 22.9482C19.9791 22.3789 20.5534 21.8595 21.0928 21.3151C21.8919 20.5061 21.8969 19.5272 21.1028 18.7282C20.1539 17.7743 19.2 16.8254 18.2461 15.8765Z" fill="#FFC700"/>
<path d="M17.2926 11.8961L19.1354 11.5815C18.8458 9.88849 18.0467 8.35528 16.8331 7.1367C15.5496 5.8532 13.9265 5.04414 12.1386 4.79443L11.8789 6.64727C13.2623 6.84205 14.5208 7.46632 15.5147 8.46016C16.4536 9.39906 17.0679 10.5877 17.2926 11.8961Z" fill="#FFC700"/>
<path d="M20.1756 3.88547C18.0481 1.75795 15.3562 0.414516 12.3847 0L12.125 1.85284C14.692 2.21242 17.0193 3.37606 18.8572 5.20892C20.6001 6.95189 21.7438 9.15432 22.1583 11.5765L24.0012 11.2619C23.5167 8.45514 22.1933 5.90811 20.1756 3.88547Z" fill="#FFC700"/>
</svg>
