<svg width="40" height="40" viewBox="0 0 40 40" fill="none" xmlns="http://www.w3.org/2000/svg" class="svg-icon icon">
<path d="M15.5869 34.9331C15.4707 34.8169 15.3095 34.75 15.145 34.75C14.9806 34.75 14.8194 34.8169 14.7032 34.9331C14.587 35.0494 14.52 35.2106 14.52 35.375C14.52 35.5394 14.5869 35.7006 14.7032 35.8169C14.8194 35.9331 14.9806 36 15.145 36C15.3095 36 15.4707 35.9331 15.5869 35.8169C15.7031 35.7006 15.77 35.5394 15.77 35.375C15.77 35.2106 15.7032 35.0494 15.5869 34.9331Z" fill="black"/>
<path d="M26.1824 29.9482C25.8373 29.9482 25.5574 30.2281 25.5574 30.5732C25.5574 31.7362 24.6112 32.6825 23.4482 32.6825C23.1031 32.6825 22.8232 32.9623 22.8232 33.3075C22.8232 33.6527 23.1031 33.9325 23.4482 33.9325C25.3005 33.9325 26.8074 32.4256 26.8074 30.5732C26.8074 30.2281 26.5276 29.9482 26.1824 29.9482Z" fill="black"/>
<path d="M30.75 4C27.8552 4 25.5 6.35512 25.5 9.25V16.75C25.5 19.4333 27.5239 21.6514 30.125 21.9615V27.4375H27.8754C26.8912 26.0519 25.2736 25.1462 23.4484 25.1462C22.9706 25.1462 22.5069 25.2086 22.0651 25.3251L19.9805 20H22.5222C22.669 20 22.7981 20.0938 22.8436 20.2334C22.8899 20.3759 22.8334 20.4844 22.7956 20.5364C22.7578 20.5885 22.672 20.6758 22.5222 20.6758H21.8833C21.5382 20.6758 21.2583 20.9556 21.2583 21.3008C21.2583 21.6459 21.5382 21.9258 21.8833 21.9258H22.5222C23.0364 21.9258 23.5047 21.6871 23.8069 21.2711C24.1091 20.8551 24.1912 20.3359 24.0323 19.847C23.819 19.1909 23.2122 18.75 22.5221 18.75H19.0646C18.8579 18.75 18.6648 18.8521 18.5483 19.0227C18.4318 19.1933 18.4072 19.4105 18.4826 19.6028L19.6564 22.6012H14.4622L13.9918 21.5252L13.8141 21.0724C13.7203 20.8331 13.4894 20.6758 13.2323 20.6758H10.5147C9.98931 20.6758 9.49888 20.9349 9.20294 21.369C8.90694 21.8031 8.84481 22.3543 9.03675 22.8434C9.277 23.4556 9.85713 23.8512 10.5147 23.8512H12.5861L11.5807 25.5924C10.9201 25.3056 10.1918 25.1462 9.42681 25.1462C6.4345 25.1462 4 27.5808 4 30.5731C4 32.2513 4.76569 33.7537 5.966 34.75H4.625C4.27988 34.75 4 35.0298 4 35.375C4 35.7202 4.27988 36 4.625 36H9.42688C12.2079 36 14.5066 33.8972 14.8176 31.1981H17.2652C17.4761 31.1981 17.6727 31.0917 17.7882 30.9153C17.9037 30.7388 17.9223 30.516 17.8379 30.3228L15.0087 23.8512H20.1458L20.9017 25.7822C19.1895 26.696 18.0215 28.5006 18.0215 30.5731C18.0215 32.2513 18.7872 33.7537 19.9875 34.75H17.77C17.4249 34.75 17.145 35.0298 17.145 35.375C17.145 35.7202 17.4249 36 17.77 36H23.4484C26.4408 36 28.8752 33.5655 28.8752 30.5731C28.8752 29.9104 28.7556 29.2751 28.5372 28.6876H33.0208C33.3659 28.6876 33.6458 28.4078 33.6458 28.0626C33.6458 27.7174 33.3659 27.4376 33.0208 27.4376H31.375V21.9616C33.9761 21.6514 36 19.4333 36 16.7501V9.25C36 6.35512 33.6448 4 30.75 4ZM10.5147 22.6012C10.3748 22.6012 10.2514 22.5171 10.2003 22.3869C10.1436 22.2423 10.1981 22.1283 10.2357 22.0732C10.2733 22.0182 10.3594 21.9258 10.5147 21.9258H12.8062L13.0712 22.6012H10.5147ZM9.42688 34.75C7.12369 34.75 5.25 32.8763 5.25 30.5731C5.25 28.27 7.12369 26.3962 9.42688 26.3962C9.96425 26.3962 10.4777 26.4994 10.95 26.6851L8.88562 30.2606C8.774 30.454 8.774 30.6923 8.88562 30.8856C8.99725 31.079 9.20363 31.1981 9.42688 31.1981H11.4416C11.1746 32.0569 10.3724 32.6824 9.42688 32.6824C9.08175 32.6824 8.80188 32.9622 8.80188 33.3074C8.80188 33.6526 9.08175 33.9324 9.42688 33.9324C11.0656 33.9324 12.4331 32.7527 12.7269 31.1981H13.5569C13.2543 33.2058 11.5176 34.75 9.42688 34.75ZM10.5094 29.9481L12.0317 27.3115C12.8348 27.9541 13.3968 28.8859 13.5569 29.9481H10.5094ZM16.3098 29.9481H14.8176C14.6421 28.4249 13.8337 27.0916 12.6624 26.2189L13.8103 24.2307L16.3098 29.9481ZM23.4484 34.75C21.1452 34.75 19.2715 32.8763 19.2715 30.5731C19.2715 29.0298 20.1136 27.6803 21.3617 26.9572L22.8664 30.801C22.9629 31.0476 23.1988 31.1983 23.4486 31.1983C23.5243 31.1983 23.6014 31.1844 23.6763 31.1551C23.9977 31.0292 24.1562 30.6667 24.0304 30.3452L22.5252 26.5003C22.8224 26.4329 23.1311 26.3962 23.4484 26.3962C25.7516 26.3962 27.6253 28.2699 27.6253 30.5731C27.6253 32.8762 25.7516 34.75 23.4484 34.75ZM34.75 16.75C34.75 18.743 33.2847 20.3999 31.375 20.7009V18.1019L33.0404 16.3238C33.2764 16.0719 33.2634 15.6764 33.0115 15.4404C32.7597 15.2045 32.3641 15.2174 32.1281 15.4693L31.375 16.2732V14.2625L33.0404 12.4844C33.2764 12.2325 33.2634 11.837 33.0115 11.601C32.7597 11.3651 32.3641 11.378 32.1281 11.6299L31.375 12.4339V11.3438C31.375 10.9986 31.0951 10.7188 30.75 10.7188C30.4049 10.7188 30.125 10.9986 30.125 11.3438V14.158L29.4816 13.4711C29.2456 13.2191 28.8501 13.2063 28.5981 13.4422C28.3462 13.6781 28.3333 14.0737 28.5692 14.3256L30.125 15.9866V20.7008C28.2153 20.3998 26.75 18.7429 26.75 16.7499V9.25C26.75 7.04437 28.5444 5.25 30.75 5.25C32.9556 5.25 34.75 7.04437 34.75 9.25V16.75Z" fill="black"/>
<path d="M35.3749 27.4375H35.3667C35.0216 27.4375 34.7417 27.7173 34.7417 28.0625C34.7417 28.4077 35.0216 28.6875 35.3667 28.6875H35.3749C35.72 28.6875 35.9999 28.4077 35.9999 28.0625C35.9999 27.7173 35.72 27.4375 35.3749 27.4375Z" fill="black"/>
<path d="M18.9271 12.6666H17.8901C18.1361 12.1667 18.2685 11.6123 18.2685 11.0457C18.2685 9.02162 16.6218 7.375 14.5978 7.375C13.0906 7.375 11.7711 8.29419 11.2122 9.62725C10.8537 9.45481 10.4574 9.36225 10.0521 9.36225C8.57594 9.36219 7.375 10.5631 7.375 12.0392C7.375 12.6361 7.56769 13.2011 7.93213 13.6734C8.0505 13.8267 8.23319 13.9166 8.42694 13.9166H18.9271C19.2722 13.9166 19.5521 13.6368 19.5521 13.2916C19.5521 12.9464 19.2722 12.6666 18.9271 12.6666ZM16.3951 12.6666H8.76987C8.67456 12.4729 8.625 12.2602 8.625 12.0392C8.625 11.2524 9.26519 10.6122 10.0521 10.6122C10.4554 10.6122 10.8419 10.7842 11.1124 11.0843C11.2762 11.266 11.5308 11.3354 11.7642 11.2619C11.9975 11.1885 12.1666 10.9857 12.1968 10.743C12.3471 9.5355 13.3792 8.62494 14.5977 8.62494C15.9325 8.62494 17.0184 9.71087 17.0184 11.0456C17.0184 11.645 16.7936 12.224 16.3951 12.6666Z" fill="black"/>
</svg>
