<svg width="40" height="40" viewBox="0 0 40 40" fill="none" xmlns="http://www.w3.org/2000/svg" class="svg-icon icon">
<path d="M34.4901 18.5601H5.49014C5.33101 18.5601 5.17839 18.6233 5.06587 18.7358C4.95335 18.8483 4.89014 19.0009 4.89014 19.1601V35.0001C4.89014 35.1592 4.95335 35.3118 5.06587 35.4243C5.17839 35.5368 5.33101 35.6001 5.49014 35.6001H34.4901C34.6493 35.6001 34.8019 35.5368 34.9144 35.4243C35.0269 35.3118 35.0901 35.1592 35.0901 35.0001V19.1601C35.0901 19.0009 35.0269 18.8483 34.9144 18.7358C34.8019 18.6233 34.6493 18.5601 34.4901 18.5601ZM33.8901 34.4001H6.11014V19.7601H33.8901V34.4001Z" fill="black"/>
<path d="M20.0002 32.2601C22.3802 32.2601 24.3202 29.9401 24.3202 27.0901C24.3202 24.2401 22.3702 21.9201 20.0002 21.9201C17.6302 21.9201 15.6802 24.2401 15.6802 27.0901C15.6802 29.9401 17.6002 32.2601 20.0002 32.2601ZM20.0002 23.1201C21.7202 23.1201 23.1202 24.9001 23.1202 27.1201C23.1202 29.3401 21.7202 31.1201 20.0002 31.1201C18.2802 31.1201 16.8802 29.3401 16.8802 27.1201C16.8802 24.9001 18.2602 23.1301 20.0002 23.1301V23.1201ZM8.81019 30.3101C9.17619 30.3101 9.5272 30.4555 9.786 30.7143C10.0448 30.9731 10.1902 31.3241 10.1902 31.6901C10.1902 31.8492 10.2534 32.0018 10.3659 32.1143C10.4784 32.2269 10.6311 32.2901 10.7902 32.2901H14.2102C14.3693 32.2901 14.5219 32.2269 14.6345 32.1143C14.747 32.0018 14.8102 31.8492 14.8102 31.6901C14.8102 31.5309 14.747 31.3783 14.6345 31.2658C14.5219 31.1533 14.3693 31.0901 14.2102 31.0901H11.3302C11.2184 30.6268 10.9809 30.2033 10.6439 29.8664C10.3069 29.5294 9.88346 29.2919 9.42019 29.1801V25.0001C9.88346 24.8882 10.3069 24.6508 10.6439 24.3138C10.9809 23.9768 11.2184 23.5533 11.3302 23.0901H14.2202C14.3793 23.0901 14.5319 23.0269 14.6445 22.9143C14.757 22.8018 14.8202 22.6492 14.8202 22.4901C14.8202 22.3309 14.757 22.1783 14.6445 22.0658C14.5319 21.9533 14.3793 21.8901 14.2202 21.8901H10.8002C10.7214 21.8901 10.6434 21.9056 10.5706 21.9357C10.4978 21.9659 10.4316 22.0101 10.3759 22.0658C10.3202 22.1215 10.276 22.1877 10.2459 22.2605C10.2157 22.3333 10.2002 22.4113 10.2002 22.4901C10.2002 22.8561 10.0548 23.2071 9.796 23.4659C9.5372 23.7247 9.18619 23.8701 8.82019 23.8701C8.66106 23.8701 8.50845 23.9333 8.39592 24.0458C8.2834 24.1583 8.22019 24.3109 8.22019 24.4701V29.7001C8.21886 29.7789 8.23308 29.8571 8.26201 29.9304C8.29095 30.0038 8.33404 30.0706 8.38883 30.1273C8.44362 30.1839 8.50903 30.2292 8.58133 30.2606C8.65362 30.292 8.73139 30.3088 8.81019 30.3101ZM28.6102 31.0601H25.7202C25.5611 31.0601 25.4084 31.1233 25.2959 31.2358C25.1834 31.3483 25.1202 31.5009 25.1202 31.6601C25.1202 31.8192 25.1834 31.9718 25.2959 32.0843C25.4084 32.1968 25.5611 32.2601 25.7202 32.2601H29.1402C29.2993 32.2601 29.4519 32.1968 29.5645 32.0843C29.677 31.9718 29.7402 31.8192 29.7402 31.6601C29.7402 31.2941 29.8856 30.9431 30.1444 30.6843C30.4032 30.4255 30.7542 30.2801 31.1202 30.2801C31.199 30.2801 31.277 30.2645 31.3498 30.2344C31.4226 30.2042 31.4887 30.16 31.5445 30.1043C31.6002 30.0486 31.6444 29.9825 31.6745 29.9097C31.7047 29.8369 31.7202 29.7589 31.7202 29.6801V24.4801C31.7202 24.4013 31.7047 24.3232 31.6745 24.2505C31.6444 24.1777 31.6002 24.1115 31.5445 24.0558C31.4887 24.0001 31.4226 23.9559 31.3498 23.9257C31.277 23.8956 31.199 23.8801 31.1202 23.8801C30.7542 23.8801 30.4032 23.7347 30.1444 23.4759C29.8856 23.2171 29.7402 22.8661 29.7402 22.5001C29.7402 22.3409 29.677 22.1883 29.5645 22.0758C29.4519 21.9633 29.2993 21.9001 29.1402 21.9001H25.7202C25.5611 21.9001 25.4084 21.9633 25.2959 22.0758C25.1834 22.1883 25.1202 22.3409 25.1202 22.5001C25.1202 22.6592 25.1834 22.8118 25.2959 22.9243C25.4084 23.0369 25.5611 23.1001 25.7202 23.1001H28.6102C28.7244 23.5628 28.9641 23.985 29.3029 24.3202C29.6416 24.6554 30.0663 24.8907 30.5302 25.0001V29.1401C30.0638 29.2511 29.6374 29.4893 29.2984 29.8283C28.9594 30.1673 28.7212 30.5937 28.6102 31.0601ZM32.7502 4.40006H7.25019C6.87395 4.39602 6.50071 4.46732 6.15246 4.60974C5.8042 4.75216 5.48796 4.96284 5.22237 5.22936C4.95678 5.49588 4.74722 5.81285 4.60602 6.1616C4.46481 6.51036 4.39483 6.88385 4.40019 7.26007V12.1301C4.39887 12.5056 4.47155 12.8778 4.61406 13.2253C4.75658 13.5728 4.96614 13.8888 5.23079 14.1553C5.49543 14.4218 5.80998 14.6336 6.15647 14.7785C6.50296 14.9235 6.87461 14.9988 7.25019 15.0001H8.66019C8.81932 15.0001 8.97193 14.9369 9.08445 14.8243C9.19697 14.7118 9.26019 14.5592 9.26019 14.4001C9.26019 14.2409 9.19697 14.0883 9.08445 13.9758C8.97193 13.8633 8.81932 13.8001 8.66019 13.8001H7.25019C7.03134 13.7988 6.81492 13.7542 6.61336 13.6689C6.4118 13.5837 6.22909 13.4594 6.07574 13.3033C5.92239 13.1471 5.80143 12.9622 5.71982 12.7592C5.6382 12.5561 5.59755 12.3389 5.60019 12.1201V7.26007C5.59753 7.04218 5.63831 6.82594 5.72017 6.62399C5.80202 6.42205 5.9233 6.23843 6.07691 6.08389C6.23053 5.92934 6.4134 5.80696 6.61485 5.72388C6.8163 5.64081 7.03229 5.59872 7.25019 5.60006H32.7502C33.1887 5.60271 33.6084 5.77876 33.9175 6.08979C34.2267 6.40081 34.4002 6.82153 34.4002 7.26007V12.1601C34.3976 12.5969 34.2229 13.015 33.914 13.3239C33.6051 13.6328 33.187 13.8074 32.7502 13.8101H31.3402C31.2614 13.8101 31.1834 13.8256 31.1106 13.8557C31.0378 13.8859 30.9716 13.9301 30.9159 13.9858C30.8602 14.0415 30.816 14.1077 30.7859 14.1805C30.7557 14.2533 30.7402 14.3313 30.7402 14.4101C30.7402 14.4889 30.7557 14.5669 30.7859 14.6397C30.816 14.7125 30.8602 14.7786 30.9159 14.8343C30.9716 14.89 31.0378 14.9342 31.1106 14.9644C31.1834 14.9945 31.2614 15.0101 31.3402 15.0101H32.7502C33.5052 15.0074 34.2286 14.7063 34.7625 14.1724C35.2964 13.6385 35.5976 12.9151 35.6002 12.1601V7.26007C35.6002 6.50328 35.3002 5.77733 34.7661 5.24127C34.2319 4.7052 33.507 4.40271 32.7502 4.40006Z" fill="black"/>
<path d="M12.5999 15.82V12.55C12.5999 12.3908 12.5367 12.2382 12.4242 12.1257C12.3116 12.0132 12.159 11.95 11.9999 11.95C11.8408 11.95 11.6882 12.0132 11.5756 12.1257C11.4631 12.2382 11.3999 12.3908 11.3999 12.55V15.83C11.3999 15.9891 11.4631 16.1417 11.5756 16.2542C11.6882 16.3667 11.8408 16.43 11.9999 16.43C12.159 16.43 12.3116 16.3667 12.4242 16.2542C12.5367 16.1417 12.5999 15.9891 12.5999 15.83V15.82ZM16.5899 15.82V10.71C16.5899 10.5508 16.5267 10.3982 16.4142 10.2857C16.3016 10.1732 16.149 10.11 15.9899 10.11C15.8308 10.11 15.6782 10.1732 15.5656 10.2857C15.4531 10.3982 15.3899 10.5508 15.3899 10.71V15.82C15.3899 15.9791 15.4531 16.1317 15.5656 16.2442C15.6782 16.3567 15.8308 16.42 15.9899 16.42C16.149 16.42 16.3016 16.3567 16.4142 16.2442C16.5267 16.1317 16.5899 15.9791 16.5899 15.82ZM20.5799 15.82V9.05996C20.5799 8.90083 20.5167 8.74822 20.4042 8.6357C20.2916 8.52317 20.139 8.45996 19.9799 8.45996C19.8208 8.45996 19.6682 8.52317 19.5556 8.6357C19.4431 8.74822 19.3799 8.90083 19.3799 9.05996V15.82C19.3799 15.9791 19.4431 16.1317 19.5556 16.2442C19.6682 16.3567 19.8208 16.42 19.9799 16.42C20.139 16.42 20.2916 16.3567 20.4042 16.2442C20.5167 16.1317 20.5799 15.9791 20.5799 15.82ZM24.5799 15.82V10.71C24.5799 10.5508 24.5167 10.3982 24.4042 10.2857C24.2916 10.1732 24.139 10.11 23.9799 10.11C23.8208 10.11 23.6682 10.1732 23.5556 10.2857C23.4431 10.3982 23.3799 10.5508 23.3799 10.71V15.82C23.3799 15.9791 23.4431 16.1317 23.5556 16.2442C23.6682 16.3567 23.8208 16.42 23.9799 16.42C24.139 16.42 24.2916 16.3567 24.4042 16.2442C24.5167 16.1317 24.5799 15.9791 24.5799 15.82ZM28.5699 15.82V12.55C28.5699 12.3908 28.5067 12.2382 28.3942 12.1257C28.2816 12.0132 28.129 11.95 27.9699 11.95C27.8108 11.95 27.6582 12.0132 27.5456 12.1257C27.4331 12.2382 27.3699 12.3908 27.3699 12.55V15.83C27.3699 15.9891 27.4331 16.1417 27.5456 16.2542C27.6582 16.3667 27.8108 16.43 27.9699 16.43C28.129 16.43 28.2816 16.3667 28.3942 16.2542C28.5067 16.1417 28.5699 15.9891 28.5699 15.83V15.82Z" fill="black"/>
</svg>
