<svg width="40" height="40" viewBox="0 0 40 40" fill="none" xmlns="http://www.w3.org/2000/svg" class="svg-icon icon">
<path d="M17.1599 15.9199L16.4999 15.3999C16.2968 15.2698 16.1222 15.0999 15.9865 14.9006C15.8507 14.7012 15.7566 14.4765 15.7099 14.2399V6.49991C15.7099 6.14452 15.5687 5.80369 15.3174 5.55239C15.0661 5.30109 14.7253 5.15991 14.3699 5.15991H11.7899C11.4345 5.15991 11.0937 5.30109 10.8424 5.55239C10.5911 5.80369 10.4499 6.14452 10.4499 6.49991V14.2599C10.4021 14.4987 10.3066 14.7254 10.1692 14.9265C10.0317 15.1275 9.85508 15.2987 9.64988 15.4299L9.22988 15.7399L8.99988 15.9199C7.61988 16.9999 6.62988 17.7399 6.62988 20.6899V32.1099C6.62988 32.834 6.91751 33.5283 7.42948 34.0403C7.94146 34.5523 8.63584 34.8399 9.35988 34.8399H16.8399C17.5639 34.8399 18.2583 34.5523 18.7703 34.0403C19.2823 33.5283 19.5699 32.834 19.5699 32.1099V20.6899C19.5399 17.7399 18.5399 16.9999 17.1599 15.9199ZM14.5799 7.91991H11.5799V6.49991C11.5823 6.45295 11.602 6.40856 11.6353 6.37531C11.6685 6.34206 11.7129 6.32233 11.7599 6.31991H14.3599C14.4068 6.32233 14.4512 6.34206 14.4845 6.37531C14.5177 6.40856 14.5375 6.45295 14.5399 6.49991L14.5799 7.91991ZM11.5799 14.2599V9.05991H14.5299V14.2599C14.5721 14.6629 14.7034 15.0515 14.9144 15.3974C15.1255 15.7434 15.4108 16.038 15.7499 16.2599C15.7499 16.2599 16.2199 16.6099 16.4099 16.7799C17.7199 17.7799 18.3199 18.2599 18.3199 20.6299V32.1399C18.3199 32.5563 18.1545 32.9556 17.86 33.2501C17.5656 33.5445 17.1663 33.7099 16.7499 33.7099H9.34988C8.93349 33.7099 8.53416 33.5445 8.23973 33.2501C7.94529 32.9556 7.77988 32.5563 7.77988 32.1399V20.6899C7.77988 18.3099 8.37988 17.8499 9.69988 16.8299L10.3599 16.3099C10.7107 16.0861 11.0057 15.785 11.2224 15.4297C11.439 15.0744 11.5716 14.6743 11.6099 14.2599H11.5799Z" fill="black"/>
<path d="M9.6499 20.88V28.41C9.6499 28.5612 9.70996 28.7062 9.81685 28.8131C9.92375 28.92 10.0687 28.98 10.2199 28.98H15.9399C16.0148 28.98 16.0889 28.9653 16.158 28.9366C16.2272 28.908 16.29 28.866 16.343 28.8131C16.3959 28.7601 16.4379 28.6973 16.4665 28.6281C16.4952 28.559 16.5099 28.4849 16.5099 28.41V20.88C16.5113 20.8048 16.4974 20.7301 16.4693 20.6603C16.4411 20.5905 16.3992 20.5271 16.346 20.4739C16.2928 20.4207 16.2294 20.3788 16.1596 20.3506C16.0899 20.3225 16.0151 20.3087 15.9399 20.31H10.2199C10.0687 20.31 9.92375 20.3701 9.81685 20.477C9.70996 20.5839 9.6499 20.7288 9.6499 20.88ZM10.8099 27.82V21.45H15.3699V27.82H10.8099ZM33.3799 21.23C33.2494 18.8584 32.8467 16.5097 32.1799 14.23C32.1518 14.1014 32.0792 13.9867 31.975 13.9063C31.8708 13.8258 31.7415 13.7846 31.6099 13.79H23.1699C23.0435 13.7948 22.9217 13.8387 22.8214 13.9158C22.721 13.9928 22.6471 14.0991 22.6099 14.22C21.9421 16.4995 21.5394 18.8483 21.4099 21.22C21.3526 22.7366 21.88 24.2172 22.883 25.3561C23.8861 26.495 25.2883 27.2052 26.7999 27.34V33.67H24.3899C24.2387 33.67 24.0937 33.7301 23.9869 33.837C23.88 33.9439 23.8199 34.0888 23.8199 34.24C23.8199 34.3912 23.88 34.5362 23.9869 34.6431C24.0937 34.75 24.2387 34.81 24.3899 34.81H30.3899C30.5411 34.81 30.6861 34.75 30.793 34.6431C30.8998 34.5362 30.9599 34.3912 30.9599 34.24C30.9599 34.0888 30.8998 33.9439 30.793 33.837C30.6861 33.7301 30.5411 33.67 30.3899 33.67H27.9999V27.35C29.5088 27.2105 30.9071 26.4986 31.9076 25.3604C32.9081 24.2223 33.4349 22.7444 33.3799 21.23ZM29.1299 17.76C29.1299 17.6088 29.0698 17.4639 28.963 17.357C28.8561 17.2501 28.7111 17.19 28.5599 17.19H23.0899C23.2599 16.41 23.4399 15.6 23.6199 14.95H31.1699C31.75 17.0067 32.0857 19.1247 32.1699 21.26C32.1996 21.9121 32.0968 22.5635 31.8677 23.1748C31.6386 23.786 31.288 24.3445 30.837 24.8165C30.3861 25.2884 29.8441 25.6641 29.2439 25.9208C28.6437 26.1774 27.9977 26.3097 27.3449 26.3097C26.6921 26.3097 26.0461 26.1774 25.4459 25.9208C24.8457 25.6641 24.3037 25.2884 23.8528 24.8165C23.4018 24.3445 23.0512 23.786 22.8221 23.1748C22.593 22.5635 22.4902 21.9121 22.5199 21.26C22.5436 20.2874 22.6405 19.318 22.8099 18.36H28.5199C28.6006 18.3658 28.6817 18.3544 28.7577 18.3264C28.8336 18.2984 28.9028 18.2546 28.9605 18.1979C29.0182 18.1411 29.0631 18.0727 29.0924 17.9972C29.1216 17.9217 29.1344 17.8408 29.1299 17.76Z" fill="black"/>
</svg>
