<svg width="40" height="40" viewBox="0 0 40 40" fill="none" xmlns="http://www.w3.org/2000/svg" class="svg-icon icon">
<path d="M35.1699 4.43011C35.0944 4.40698 35.0151 4.39899 34.9365 4.40659C34.8579 4.41419 34.7815 4.43724 34.7119 4.4744C34.6422 4.51156 34.5805 4.56211 34.5304 4.62315C34.4803 4.68419 34.4428 4.75452 34.4199 4.83011C34.2999 5.24011 33.8299 6.92011 33.4199 8.40011L33.0999 9.56011C32.6999 10.9701 32.4499 11.0301 31.5199 11.2701L30.5999 11.5101C30.4613 11.2299 30.2663 10.9813 30.0271 10.78C29.7879 10.5786 29.5097 10.4289 29.2099 10.3401C28.9303 10.2565 28.637 10.2294 28.3468 10.2603C28.0567 10.2912 27.7756 10.3795 27.5199 10.5201C27.254 10.6655 27.0198 10.8624 26.831 11.0994C26.6421 11.3363 26.5024 11.6085 26.4199 11.9001L23.5899 22.0701H17.8699C17.6983 21.8409 17.5112 21.6237 17.3099 21.4201C16.7377 20.844 16.0567 20.3874 15.3065 20.0766C14.5563 19.7659 13.7519 19.6073 12.9399 19.6101C12.5132 19.61 12.0877 19.6535 11.6699 19.7401L10.2699 14.7401H14.1599C14.319 14.7401 14.4716 14.6769 14.5842 14.5644C14.6967 14.4519 14.7599 14.2992 14.7599 14.1401V13.0001C14.7475 12.5595 14.6025 12.133 14.3438 11.7761C14.0851 11.4193 13.7248 11.1489 13.3099 11.0001C11.3347 10.3243 9.3081 9.80932 7.2499 9.46011C6.49312 9.46275 5.76823 9.76524 5.23404 10.3013C4.69985 10.8374 4.3999 11.5633 4.3999 12.3201V14.1601C4.3999 14.3192 4.46312 14.4719 4.57564 14.5844C4.68816 14.6969 4.84077 14.7601 4.9999 14.7601H8.9999L10.4999 20.1001C9.03628 20.721 7.86883 21.8829 7.24097 23.3436C6.61312 24.8042 6.57333 26.4508 7.1299 27.9401C6.2999 30.2701 5.3799 32.8001 5.3699 32.8001C5.35756 32.8696 5.35756 32.9407 5.3699 33.0101C5.3712 33.3532 5.4404 33.6927 5.57353 34.009C5.70665 34.3252 5.90106 34.612 6.14555 34.8528C6.39003 35.0936 6.67976 35.2836 6.99802 35.4118C7.31629 35.5401 7.65679 35.6041 7.9999 35.6001H30.1599C30.8477 35.5975 31.5065 35.3224 31.9919 34.8351C32.4774 34.3477 32.7499 33.6879 32.7499 33.0001C32.7611 32.9339 32.7611 32.8663 32.7499 32.8001C32.7499 32.8001 30.3199 26.0301 29.7499 24.4801C29.6455 24.0375 29.4525 23.6206 29.1827 23.2546C28.9129 22.8885 28.5718 22.5808 28.1799 22.3501L30.7699 13.1401C30.812 12.9933 30.8388 12.8425 30.8499 12.6901L31.8499 12.4401C33.0199 12.1401 33.7099 11.8701 34.2699 9.89011L34.5899 8.72011C34.9999 7.25011 35.4599 5.58011 35.5899 5.17011C35.6111 5.09394 35.6171 5.01433 35.6075 4.93584C35.5978 4.85736 35.5728 4.78155 35.5338 4.71278C35.4947 4.64401 35.4425 4.58364 35.38 4.53513C35.3176 4.48661 35.2462 4.45092 35.1699 4.43011ZM5.5999 12.3201C5.59989 11.8816 5.77341 11.4609 6.08256 11.1498C6.39172 10.8388 6.81138 10.6627 7.2499 10.6601C9.17719 10.9854 11.0763 11.4602 12.9299 12.0801C13.1128 12.1529 13.2702 12.2781 13.3823 12.44C13.4944 12.6019 13.5561 12.7933 13.5599 12.9901V13.5601H5.5599L5.5999 12.3201ZM29.1399 26.3201H25.6599C25.5008 26.3201 25.3482 26.3833 25.2356 26.4958C25.1231 26.6084 25.0599 26.761 25.0599 26.9201C25.0599 27.0792 25.1231 27.2319 25.2356 27.3444C25.3482 27.4569 25.5008 27.5201 25.6599 27.5201H29.5699L30.4199 30.0001H23.4199C23.2608 30.0001 23.1082 30.0633 22.9956 30.1758C22.8831 30.2884 22.8199 30.441 22.8199 30.6001C22.8199 30.7592 22.8831 30.9118 22.9956 31.0244C23.1082 31.1369 23.2608 31.2001 23.4199 31.2001H30.8999L31.5899 33.1401C31.5647 33.4921 31.4075 33.8216 31.1498 34.0626C30.892 34.3037 30.5528 34.4385 30.1999 34.4401H7.9999C7.64702 34.4385 7.30777 34.3037 7.05003 34.0626C6.7923 33.8216 6.6351 33.4921 6.6099 33.1401L7.9599 29.4201C8.15376 29.7045 8.37119 29.9721 8.6099 30.2201C9.76515 31.3565 11.3194 31.9954 12.9399 32.0001C13.425 32.0009 13.9084 31.9438 14.3799 31.8301C14.5351 31.793 14.6691 31.6957 14.7526 31.5598C14.836 31.4238 14.862 31.2603 14.8249 31.1051C14.7878 30.95 14.6905 30.8159 14.5546 30.7325C14.4186 30.649 14.2551 30.623 14.0999 30.6601C12.9595 30.9409 11.7564 30.8063 10.7064 30.2803C9.65629 29.7544 8.82795 28.8715 8.3699 27.7901C8.35369 27.726 8.32664 27.6651 8.2899 27.6101C7.9414 26.7085 7.86171 25.7252 8.06049 24.7792C8.25927 23.8333 8.72798 22.9652 9.4099 22.2801C10.1843 21.5244 11.1829 21.0404 12.2558 20.9005C13.3287 20.7607 14.418 20.9727 15.3602 21.5046C16.3024 22.0366 17.0466 22.8598 17.4811 23.8507C17.9156 24.8416 18.0169 25.9467 17.7699 27.0001C17.7515 27.0769 17.7484 27.1566 17.7609 27.2346C17.7733 27.3126 17.8009 27.3874 17.8423 27.4548C17.9257 27.5907 18.0598 27.688 18.2149 27.7251C18.3701 27.7622 18.5336 27.7362 18.6696 27.6528C18.8055 27.5693 18.9028 27.4353 18.9399 27.2801C19.2678 25.9438 19.1411 24.5364 18.5799 23.2801H26.8499C27.0197 23.2683 27.1901 23.2683 27.3599 23.2801C27.8199 23.3901 28.2099 23.7301 28.5799 24.8301L29.1399 26.3201ZM29.6099 12.7701L26.9999 22.0801H24.8399L27.5799 12.2301C27.6193 12.0928 27.6855 11.9646 27.7748 11.853C27.864 11.7414 27.9745 11.6487 28.0999 11.5801C28.2178 11.5149 28.3477 11.4742 28.4817 11.4605C28.6158 11.4467 28.7512 11.4602 28.8799 11.5001C29.1482 11.577 29.3754 11.7567 29.5121 12.0001C29.6488 12.2435 29.6839 12.531 29.6099 12.8001V12.7701Z" fill="black"/>
<path d="M13.4003 25.3599C13.3473 25.2955 13.2814 25.2429 13.207 25.2053C13.1325 25.1678 13.051 25.1462 12.9678 25.1419C12.8845 25.1376 12.8012 25.1507 12.7233 25.1804C12.6454 25.2101 12.5745 25.2557 12.5152 25.3143C12.4559 25.373 12.4094 25.4433 12.3788 25.5209C12.3482 25.5984 12.3341 25.6815 12.3374 25.7649C12.3407 25.8482 12.3613 25.9299 12.398 26.0048C12.4346 26.0797 12.4865 26.1462 12.5503 26.1999L16.4803 30.1999C16.5332 30.2643 16.5991 30.317 16.6735 30.3545C16.748 30.392 16.8295 30.4136 16.9127 30.4179C16.996 30.4222 17.0793 30.4091 17.1572 30.3794C17.2351 30.3497 17.306 30.3041 17.3653 30.2455C17.4247 30.1869 17.4711 30.1165 17.5017 30.0389C17.5323 29.9614 17.5464 29.8783 17.5431 29.795C17.5398 29.7116 17.5192 29.6299 17.4825 29.555C17.4459 29.4801 17.394 29.4136 17.3303 29.3599L13.4003 25.3599Z" fill="black"/>
</svg>
