<svg width="40" height="40" viewBox="0 0 40 40" fill="none" xmlns="http://www.w3.org/2000/svg" class="svg-icon icon">
<path d="M35.5199 13.0999L30.0699 4.6699C30.0154 4.58708 29.9412 4.51908 29.8539 4.47196C29.7667 4.42484 29.6691 4.40008 29.5699 4.3999H10.4699C10.3708 4.40008 10.2732 4.42484 10.186 4.47196C10.0987 4.51908 10.0245 4.58708 9.96994 4.6699L4.51994 13.0999C4.4808 13.1708 4.45696 13.2492 4.44994 13.3299V14.9999C4.44572 15.0398 4.44572 15.08 4.44994 15.1199C4.58522 15.8626 4.92007 16.5546 5.4186 17.1215C5.91713 17.6885 6.56055 18.1091 7.27989 18.3382C7.99923 18.5674 8.76737 18.5965 9.50198 18.4224C10.2366 18.2483 10.91 17.8775 11.4499 17.3499C12.2242 18.082 13.2494 18.4899 14.3149 18.4899C15.3805 18.4899 16.4057 18.082 17.1799 17.3499C17.9542 18.082 18.9794 18.4899 20.0449 18.4899C21.1105 18.4899 22.1357 18.082 22.9099 17.3499C23.6842 18.082 24.7094 18.4899 25.7749 18.4899C26.8405 18.4899 27.8657 18.082 28.6399 17.3499C29.182 17.8742 29.8561 18.2418 30.5904 18.4134C31.3248 18.585 32.0919 18.5542 32.8102 18.3244C33.5284 18.0945 34.1709 17.6742 34.6692 17.1081C35.1675 16.5421 35.503 15.8515 35.6399 15.1099C35.6661 14.4376 35.6259 13.7643 35.5199 13.0999ZM10.7999 5.5999H29.2399L33.9099 12.8199H6.11994L10.7999 5.5999ZM34.3399 14.8999C34.1931 15.5616 33.8265 16.1541 33.2999 16.5808C32.7733 17.0076 32.1177 17.2434 31.4399 17.2499C30.9721 17.2474 30.5117 17.1326 30.0975 16.9151C29.6834 16.6975 29.3275 16.3837 29.0599 15.9999C29.0006 15.9259 28.9263 15.8654 28.8418 15.8223C28.7573 15.7792 28.6647 15.7545 28.5699 15.7499C28.4768 15.7499 28.3849 15.7716 28.3016 15.8132C28.2183 15.8549 28.1458 15.9154 28.0899 15.9899C27.8125 16.3598 27.4534 16.6606 27.0405 16.8687C26.6277 17.0769 26.1723 17.1868 25.7099 17.1899C25.2473 17.1943 24.7903 17.0887 24.3765 16.8818C23.9627 16.6749 23.604 16.3726 23.3299 15.9999C23.2752 15.9174 23.2009 15.8497 23.1137 15.8029C23.0264 15.7561 22.929 15.7316 22.8299 15.7316C22.7309 15.7316 22.6335 15.7561 22.5462 15.8029C22.459 15.8497 22.3847 15.9174 22.3299 15.9999C22.0629 16.3724 21.714 16.6788 21.3101 16.8954C20.9062 17.1121 20.458 17.2334 19.9999 17.2499C19.5287 17.2507 19.0643 17.1374 18.6464 16.9197C18.2285 16.702 17.8694 16.3864 17.5999 15.9999C17.5451 15.9235 17.4731 15.8611 17.3897 15.8177C17.3064 15.7743 17.2139 15.7511 17.1199 15.7499C17.0248 15.7466 16.9304 15.7668 16.845 15.8087C16.7595 15.8505 16.6857 15.9128 16.6299 15.9899C16.3525 16.3598 15.9934 16.6606 15.5805 16.8687C15.1677 17.0769 14.7123 17.1868 14.2499 17.1899C13.7873 17.1943 13.3303 17.0887 12.9165 16.8818C12.5027 16.6749 12.144 16.3726 11.8699 15.9999C11.8151 15.9235 11.7431 15.8611 11.6597 15.8177C11.5764 15.7743 11.4839 15.7511 11.3899 15.7499C11.2946 15.7448 11.1995 15.7642 11.1137 15.8062C11.028 15.8482 10.9544 15.9114 10.8999 15.9899C10.5528 16.4373 10.0862 16.7773 9.55401 16.9706C9.0218 17.1639 8.44575 17.2027 7.89245 17.0824C7.33915 16.9621 6.83118 16.6877 6.42727 16.2909C6.02336 15.894 5.74 15.391 5.60994 14.8399V13.9999H34.3399V14.8999Z" fill="black"/>
<path d="M13.2698 7.61004C13.1938 7.58364 13.1131 7.57283 13.0328 7.57826C12.9524 7.58369 12.8739 7.60524 12.8021 7.64164C12.7302 7.67803 12.6664 7.72852 12.6145 7.7901C12.5626 7.85167 12.5236 7.92307 12.4998 8.00004L11.6898 10C11.6596 10.074 11.6444 10.1532 11.6451 10.2331C11.6459 10.313 11.6626 10.392 11.6943 10.4653C11.726 10.5387 11.772 10.605 11.8297 10.6603C11.8873 10.7156 11.9555 10.7589 12.0301 10.7875C12.1047 10.8162 12.1842 10.8296 12.2641 10.8271C12.344 10.8246 12.4225 10.8061 12.4951 10.7728C12.5678 10.7395 12.633 10.692 12.6871 10.6332C12.7411 10.5743 12.7829 10.5053 12.8098 10.43L13.6198 8.35004C13.666 8.2053 13.6556 8.04843 13.5906 7.91108C13.5257 7.77374 13.411 7.66615 13.2698 7.61004ZM27.5398 8.00004C27.4804 7.8549 27.3665 7.73879 27.2225 7.67659C27.0786 7.61439 26.916 7.61104 26.7695 7.66725C26.6231 7.72347 26.5045 7.83478 26.4392 7.97735C26.3738 8.11992 26.3669 8.28242 26.4198 8.43004L27.2298 10.51C27.2975 10.6586 27.4213 10.7741 27.5742 10.8313C27.727 10.8885 27.8963 10.8827 28.0448 10.815C28.1934 10.7474 28.3089 10.6235 28.3661 10.4707C28.4233 10.3179 28.4175 10.1486 28.3498 10L27.5398 8.00004ZM17.7798 7.58004C17.6236 7.56006 17.4657 7.60235 17.3404 7.69778C17.215 7.7932 17.1322 7.93409 17.1098 8.09004L16.8298 10.17C16.81 10.3278 16.8537 10.487 16.9512 10.6127C17.0487 10.7383 17.1921 10.8201 17.3498 10.84H17.4298C17.5743 10.8389 17.7135 10.7857 17.8219 10.6902C17.9303 10.5947 18.0006 10.4632 18.0198 10.32L18.2998 8.24004C18.3168 8.08385 18.2719 7.92723 18.1747 7.80382C18.0774 7.68041 17.9357 7.60007 17.7798 7.58004ZM22.2598 7.58004C22.1021 7.6 21.9587 7.68179 21.8612 7.80742C21.7637 7.93305 21.72 8.09225 21.7398 8.25004L21.9998 10.33C22.0191 10.4732 22.0894 10.6047 22.1978 10.7002C22.3062 10.7957 22.4454 10.8489 22.5898 10.85H22.6698C22.8276 10.8301 22.971 10.7483 23.0685 10.6227C23.166 10.497 23.2097 10.3378 23.1898 10.18L22.9098 8.10004C22.8898 7.94612 22.8109 7.80596 22.6897 7.70899C22.5685 7.61203 22.4144 7.56581 22.2598 7.58004ZM32.4198 29.7V21C32.4198 20.8409 32.3566 20.6883 32.2441 20.5758C32.1316 20.4633 31.979 20.4 31.8198 20.4C31.6607 20.4 31.5081 20.4633 31.3956 20.5758C31.2831 20.6883 31.2198 20.8409 31.2198 21V30C31.2193 30.152 31.2765 30.2986 31.3798 30.41L32.9998 32.06V34.4H7.06985V32.07L8.65985 30.35C8.76319 30.2386 8.82037 30.092 8.81985 29.94V20.94C8.81985 20.7809 8.75663 20.6283 8.64411 20.5158C8.53159 20.4033 8.37898 20.34 8.21985 20.34C8.06072 20.34 7.9081 20.4033 7.79558 20.5158C7.68306 20.6283 7.61985 20.7809 7.61985 20.94V29.66L5.99985 31.42C5.89651 31.5315 5.83932 31.678 5.83985 31.83V35C5.83985 35.1592 5.90306 35.3118 6.01558 35.4243C6.12811 35.5368 6.28072 35.6 6.43985 35.6H33.5498C33.7073 35.6001 33.8584 35.5382 33.9706 35.4279C34.0829 35.3175 34.1472 35.1674 34.1498 35.01V31.84C34.1504 31.688 34.0932 31.5415 33.9898 31.43L32.4198 29.7Z" fill="black"/>
<path d="M28.6798 31.8199C28.8389 31.8199 28.9915 31.7567 29.104 31.6442C29.2166 31.5316 29.2798 31.379 29.2798 31.2199V20.9999C29.2798 20.8408 29.2166 20.6882 29.104 20.5756C28.9915 20.4631 28.8389 20.3999 28.6798 20.3999H22.8098C22.6506 20.3999 22.498 20.4631 22.3855 20.5756C22.273 20.6882 22.2098 20.8408 22.2098 20.9999V31.2199C22.2098 31.379 22.273 31.5316 22.3855 31.6442C22.498 31.7567 22.6506 31.8199 22.8098 31.8199H28.6798ZM28.0798 21.5899V30.5899H23.4098V26.6999H24.4098C24.5689 26.6999 24.7215 26.6367 24.834 26.5242C24.9466 26.4116 25.0098 26.259 25.0098 26.0999C25.0098 25.9408 24.9466 25.7882 24.834 25.6756C24.7215 25.5631 24.5689 25.4999 24.4098 25.4999H23.4098V21.5899H28.0798ZM19.6498 28.1199C19.8089 28.1199 19.9615 28.0567 20.074 27.9442C20.1866 27.8316 20.2498 27.679 20.2498 27.5199V20.9999C20.2498 20.8408 20.1866 20.6882 20.074 20.5756C19.9615 20.4631 19.8089 20.3999 19.6498 20.3999H11.3598C11.2006 20.3999 11.048 20.4631 10.9355 20.5756C10.823 20.6882 10.7598 20.8408 10.7598 20.9999V27.5299C10.7598 27.689 10.823 27.8416 10.9355 27.9542C11.048 28.0667 11.2006 28.1299 11.3598 28.1299L19.6498 28.1199ZM11.9998 21.5899H18.9998V26.9199H11.9998V21.5899Z" fill="black"/>
</svg>
