<svg width="40" height="40" viewBox="0 0 40 40" fill="none" xmlns="http://www.w3.org/2000/svg" class="svg-icon icon">
<path d="M35.5803 33.8501H34.0003V19.5801C34.0016 19.5044 33.9878 19.4292 33.9598 19.3589C33.9317 19.2886 33.8899 19.2245 33.8369 19.1705C33.7838 19.1166 33.7205 19.0737 33.6507 19.0444C33.5809 19.0151 33.506 19.0001 33.4303 19.0001H29.6303V9.77008C29.6316 9.69438 29.6178 9.61919 29.5898 9.54887C29.5617 9.47856 29.5199 9.41454 29.4669 9.36054C29.4138 9.30655 29.3505 9.26367 29.2807 9.2344C29.2109 9.20513 29.136 9.19006 29.0603 9.19007H24.6503C24.5308 8.03868 23.9888 6.97243 23.1291 6.1973C22.2693 5.42217 21.1528 4.99316 19.9953 4.99316C18.8377 4.99316 17.7212 5.42217 16.8614 6.1973C16.0017 6.97243 15.4597 8.03868 15.3403 9.19007H10.9103C10.8346 9.19006 10.7596 9.20513 10.6898 9.2344C10.62 9.26367 10.5567 9.30655 10.5036 9.36054C10.4506 9.41454 10.4088 9.47856 10.3807 9.54887C10.3527 9.61919 10.3389 9.69438 10.3403 9.77008V19.0001H6.54026C6.46455 19.0001 6.38961 19.0151 6.31979 19.0444C6.24998 19.0737 6.18669 19.1166 6.13363 19.1705C6.08057 19.2245 6.03879 19.2886 6.01074 19.3589C5.98269 19.4292 5.96893 19.5044 5.97026 19.5801V33.8501H4.41026C4.27081 33.8685 4.14281 33.937 4.05009 34.0428C3.95737 34.1485 3.90625 34.2844 3.90625 34.4251C3.90625 34.5657 3.95737 34.7016 4.05009 34.8074C4.14281 34.9132 4.27081 34.9816 4.41026 35.0001H35.5903C35.7297 34.9816 35.8577 34.9132 35.9504 34.8074C36.0431 34.7016 36.0943 34.5657 36.0943 34.4251C36.0943 34.2844 36.0431 34.1485 35.9504 34.0428C35.8577 33.937 35.7297 33.8685 35.5903 33.8501H35.5803ZM20.0003 6.15007C20.7187 6.13817 21.4244 6.34031 22.0275 6.73077C22.6306 7.12123 23.104 7.68235 23.3872 8.34268C23.6704 9.00301 23.7507 9.73269 23.6179 10.4388C23.485 11.1449 23.1451 11.7955 22.6413 12.3078C22.1375 12.8201 21.4926 13.1709 20.7888 13.3155C20.085 13.4601 19.3541 13.392 18.6892 13.1199C18.0242 12.8477 17.4552 12.3839 17.0548 11.7873C16.6543 11.1908 16.4404 10.4886 16.4403 9.77008C16.4363 9.29863 16.5252 8.83101 16.702 8.39394C16.8788 7.95686 17.1399 7.55889 17.4705 7.22274C17.8011 6.88659 18.1946 6.61884 18.6287 6.43479C19.0627 6.25075 19.5288 6.154 20.0003 6.15007ZM11.4703 10.3501H15.3503C15.4697 11.5015 16.0117 12.5677 16.8714 13.3428C17.7312 14.118 18.8477 14.547 20.0053 14.547C21.1628 14.547 22.2793 14.118 23.1391 13.3428C23.9988 12.5677 24.5408 11.5015 24.6603 10.3501H28.5403V19.0001H26.8403V12.8601C26.8403 12.7089 26.7802 12.5639 26.6733 12.457C26.5664 12.3501 26.4214 12.2901 26.2703 12.2901C26.1191 12.2901 25.9741 12.3501 25.8672 12.457C25.7603 12.5639 25.7003 12.7089 25.7003 12.8601V19.0001H20.5703V16.8601C20.5703 16.7089 20.5102 16.5639 20.4033 16.457C20.2964 16.3501 20.1514 16.2901 20.0003 16.2901C19.8491 16.2901 19.7041 16.3501 19.5972 16.457C19.4903 16.5639 19.4303 16.7089 19.4303 16.8601V19.0001H14.3003V12.8601C14.3003 12.7089 14.2402 12.5639 14.1333 12.457C14.0264 12.3501 13.8814 12.2901 13.7303 12.2901C13.5791 12.2901 13.4341 12.3501 13.3272 12.457C13.2203 12.5639 13.1603 12.7089 13.1603 12.8601V19.0001H11.4603L11.4703 10.3501ZM19.4703 33.8401H16.4703V26.5401H19.4703V33.8401ZM23.6503 33.8401H20.6503V26.5401H23.6503V33.8401ZM30.1003 27.8401H28.2503C28.0964 27.8401 27.9489 27.9012 27.8401 28.01C27.7314 28.1187 27.6703 28.2662 27.6703 28.4201C27.6703 28.5739 27.7314 28.7214 27.8401 28.8302C27.9489 28.939 28.0964 29.0001 28.2503 29.0001H30.0603V30.7001H28.2503C28.0964 30.7001 27.9489 30.7612 27.8401 30.87C27.7314 30.9787 27.6703 31.1262 27.6703 31.2801C27.6703 31.4339 27.7314 31.5814 27.8401 31.6902C27.9489 31.799 28.0964 31.8601 28.2503 31.8601H30.0603V33.8601H24.7403V26.0001C24.7416 25.9244 24.7278 25.8492 24.6998 25.7789C24.6717 25.7086 24.6299 25.6445 24.5769 25.5905C24.5238 25.5366 24.4605 25.4937 24.3907 25.4644C24.3209 25.4351 24.246 25.4201 24.1703 25.4201H15.8203C15.7446 25.4201 15.6696 25.4351 15.5998 25.4644C15.53 25.4937 15.4667 25.5366 15.4136 25.5905C15.3606 25.6445 15.3188 25.7086 15.2907 25.7789C15.2627 25.8492 15.2489 25.9244 15.2503 26.0001V33.8801H9.94026V31.8801H11.7503C11.9041 31.8801 12.0516 31.819 12.1604 31.7102C12.2691 31.6014 12.3303 31.4539 12.3303 31.3001C12.3303 31.1462 12.2691 30.9987 12.1604 30.89C12.0516 30.7812 11.9041 30.7201 11.7503 30.7201H9.94026V29.0001H11.7503C11.9041 29.0001 12.0516 28.939 12.1604 28.8302C12.2691 28.7214 12.3303 28.5739 12.3303 28.4201C12.3303 28.2662 12.2691 28.1187 12.1604 28.01C12.0516 27.9012 11.9041 27.8401 11.7503 27.8401H9.94026V23.0001H30.0603L30.1003 27.8401ZM32.9303 33.8401H31.2303V22.4601C31.2316 22.3844 31.2178 22.3092 31.1898 22.2389C31.1617 22.1686 31.1199 22.1045 31.0669 22.0505C31.0138 21.9965 30.9505 21.9537 30.8807 21.9244C30.8109 21.8951 30.736 21.8801 30.6603 21.8801H9.37026C9.29455 21.8801 9.21961 21.8951 9.14979 21.9244C9.07998 21.9537 9.01669 21.9965 8.96363 22.0505C8.91057 22.1045 8.86879 22.1686 8.84074 22.2389C8.81269 22.3092 8.79893 22.3844 8.80026 22.4601V33.8501H7.11026V20.1501H32.8903L32.9303 33.8401Z" fill="black"/>
<path d="M18.4103 10.3501H19.4103V11.3501C19.4103 11.5013 19.4703 11.6463 19.5772 11.7532C19.6841 11.8601 19.8291 11.9201 19.9803 11.9201C20.1314 11.9201 20.2764 11.8601 20.3833 11.7532C20.4902 11.6463 20.5503 11.5013 20.5503 11.3501V10.3501H21.5503C21.7041 10.3501 21.8516 10.289 21.9604 10.1802C22.0691 10.0715 22.1303 9.92394 22.1303 9.77012C22.1303 9.61629 22.0691 9.46877 21.9604 9.36C21.8516 9.25122 21.7041 9.19012 21.5503 9.19012H20.5503V8.19012C20.5503 8.03894 20.4902 7.89396 20.3833 7.78707C20.2764 7.68017 20.1314 7.62012 19.9803 7.62012C19.8291 7.62012 19.6841 7.68017 19.5772 7.78707C19.4703 7.89396 19.4103 8.03894 19.4103 8.19012V9.19012H18.4103C18.2708 9.20855 18.1428 9.27703 18.0501 9.38281C17.9574 9.48858 17.9062 9.62445 17.9062 9.76512C17.9062 9.90578 17.9574 10.0416 18.0501 10.1474C18.1428 10.2532 18.2708 10.3217 18.4103 10.3401V10.3501Z" fill="black"/>
</svg>
