<svg width="40" height="40" viewBox="0 0 40 40" fill="none" xmlns="http://www.w3.org/2000/svg" class="svg-icon icon">
<path d="M18.8499 26.2099H5.5999V22.4999H12.2899C12.449 22.4999 12.6016 22.4367 12.7142 22.3242C12.8267 22.2116 12.8899 22.059 12.8899 21.8999V21.4199C12.8912 20.9327 12.7966 20.45 12.6113 19.9994C12.4261 19.5488 12.1539 19.139 11.8103 18.7936C11.4668 18.4482 11.0585 18.1738 10.6089 17.9861C10.1593 17.7985 9.67711 17.7012 9.1899 17.6999H5.6199C5.64596 16.9695 5.95653 16.2783 6.4853 15.7738C7.01407 15.2694 7.71913 14.9916 8.4499 14.9999H31.5199C32.1924 15.0025 32.8423 15.2428 33.3547 15.6784C33.8671 16.1139 34.209 16.7166 34.3199 17.3799C34.3451 17.5377 34.432 17.679 34.5614 17.7728C34.6908 17.8666 34.8521 17.9051 35.0099 17.8799C35.1677 17.8547 35.309 17.7679 35.4028 17.6385C35.4966 17.5091 35.5351 17.3477 35.5099 17.1899C35.3736 16.3718 34.99 15.6151 34.4108 15.0216C33.8315 14.428 33.0844 14.0261 32.2699 13.8699C32.3913 13.3247 32.6876 12.8342 33.1137 12.4731C33.5397 12.112 34.0722 11.9002 34.6299 11.8699C34.789 11.8699 34.9416 11.8067 35.0542 11.6942C35.1667 11.5816 35.2299 11.429 35.2299 11.2699C35.2299 11.1108 35.1667 10.9582 35.0542 10.8456C34.9416 10.7331 34.789 10.6699 34.6299 10.6699C33.9834 10.671 33.35 10.8521 32.8007 11.193C32.2514 11.5339 31.8079 12.0211 31.5199 12.5999L28.6699 4.7899C28.6272 4.6757 28.5508 4.57721 28.4508 4.50753C28.3507 4.43786 28.2318 4.40032 28.1099 4.3999H11.8699C11.748 4.40032 11.6291 4.43786 11.5291 4.50753C11.429 4.57721 11.3526 4.6757 11.3099 4.7899L8.4499 12.6399C8.16195 12.0611 7.71846 11.5739 7.16914 11.233C6.61982 10.8921 5.9864 10.711 5.3399 10.7099C5.26111 10.7099 5.18309 10.7254 5.11029 10.7556C5.0375 10.7857 4.97135 10.8299 4.91564 10.8856C4.85992 10.9414 4.81573 11.0075 4.78558 11.0803C4.75542 11.1531 4.7399 11.2311 4.7399 11.3099C4.7399 11.3887 4.75542 11.4667 4.78558 11.5395C4.81573 11.6123 4.85992 11.6785 4.91564 11.7342C4.97135 11.7899 5.0375 11.8341 5.11029 11.8642C5.18309 11.8944 5.26111 11.9099 5.3399 11.9099C5.89759 11.9402 6.43007 12.152 6.85616 12.5131C7.28224 12.8742 7.57855 13.3647 7.6999 13.9099C6.90812 14.0508 6.17863 14.4313 5.6099 14.9999C5.22654 15.3731 4.92192 15.8193 4.71409 16.3123C4.50625 16.8053 4.39941 17.3349 4.3999 17.8699V30.2799C4.3999 30.7573 4.58955 31.2151 4.92711 31.5527C5.26468 31.8903 5.72251 32.0799 6.1999 32.0799H9.9999C10.4773 32.0799 10.9351 31.8903 11.2727 31.5527C11.6103 31.2151 11.7999 30.7573 11.7999 30.2799V27.4099H18.7999C18.959 27.4099 19.1116 27.3467 19.2242 27.2342C19.3367 27.1216 19.3999 26.969 19.3999 26.8099C19.3999 26.6508 19.3367 26.4982 19.2242 26.3856C19.1116 26.2731 18.959 26.2099 18.7999 26.2099H18.8499ZM12.2899 5.5999H27.6899L30.6899 13.8199H9.2999L12.2899 5.5999ZM11.6899 21.2999H5.5999V18.8999H9.1899C9.83524 18.9019 10.455 19.1523 10.9206 19.5992C11.3861 20.0461 11.6616 20.6552 11.6899 21.2999ZM10.6099 30.2999C10.6073 30.4582 10.5433 30.6094 10.4313 30.7213C10.3194 30.8333 10.1682 30.8973 10.0099 30.8999H6.1999C6.04158 30.8973 5.89046 30.8333 5.77849 30.7213C5.66652 30.6094 5.60248 30.4582 5.5999 30.2999V27.4099H10.5999L10.6099 30.2999Z" fill="black"/>
<path d="M18.8498 21.2701H16.5098L15.5098 19.6801C15.4787 19.5969 15.4296 19.5216 15.366 19.4597C15.3023 19.3978 15.2257 19.3508 15.1417 19.3221C15.0577 19.2934 14.9683 19.2837 14.8801 19.2937C14.7919 19.3037 14.707 19.3332 14.6315 19.3799C14.556 19.4267 14.4919 19.4897 14.4437 19.5643C14.3955 19.6388 14.3645 19.7232 14.3528 19.8112C14.3412 19.8992 14.3492 19.9887 14.3764 20.0733C14.4035 20.1578 14.4491 20.2353 14.5098 20.3001L15.6498 22.1801C15.7029 22.268 15.7776 22.3409 15.8669 22.3917C15.9562 22.4425 16.0571 22.4695 16.1598 22.4701H18.8398C18.9989 22.4701 19.1515 22.4069 19.264 22.2944C19.3766 22.1818 19.4398 22.0292 19.4398 21.8701C19.4398 21.711 19.3766 21.5583 19.264 21.4458C19.1515 21.3333 18.9989 21.2701 18.8398 21.2701H18.8498ZM35.5398 21.5901C35.2298 19.5901 31.7598 18.5901 28.4698 18.5901C25.0298 18.5901 21.3698 19.7401 21.3698 21.8701C21.3634 21.9566 21.3634 22.0435 21.3698 22.1301V32.3201C21.3698 34.4501 25.0298 35.6001 28.4698 35.6001C31.9098 35.6001 35.5698 34.4501 35.5698 32.3201V21.8401C35.5779 21.7556 35.5677 21.6703 35.5398 21.5901ZM34.3998 28.7801V28.8701C34.3998 29.7401 32.1598 30.9501 28.4998 30.9501C24.8398 30.9501 22.5998 29.7401 22.5998 28.8701V27.2701C24.4025 28.2646 26.4424 28.7487 28.4998 28.6701C30.5572 28.7487 32.597 28.2646 34.3998 27.2701V28.7801ZM22.6098 25.3201V23.7701C24.4069 24.7491 26.4347 25.2258 28.4798 25.1501C30.5461 25.2298 32.5945 24.7385 34.3998 23.7301V25.3801C34.3998 26.2501 32.1598 27.4601 28.4998 27.4601C24.8398 27.4601 22.5998 26.2501 22.5998 25.3801L22.6098 25.3201ZM28.4798 19.7801C32.1298 19.7801 34.3798 20.9901 34.3798 21.8601C34.3798 22.7301 32.1298 24.0001 28.4798 24.0001C24.8298 24.0001 22.7598 22.8701 22.6098 22.0001V21.8801C22.7098 20.9401 24.9098 19.7901 28.4798 19.7901V19.7801ZM28.4798 34.3901C24.8298 34.3901 22.5798 33.1801 22.5798 32.3101V30.7401C24.3825 31.7346 26.4224 32.2187 28.4798 32.1401C30.5372 32.2187 32.577 31.7346 34.3798 30.7401V32.3101C34.3998 33.1901 32.1598 34.4001 28.4998 34.4001L28.4798 34.3901Z" fill="black"/>
</svg>
