<svg width="343" height="79" viewBox="0 0 343 79" fill="none" xmlns="http://www.w3.org/2000/svg">
<path d="M59.1291 44.6377L60.0242 32.8674L49.8471 28.392L59.1291 44.6377ZM29.2513 28.3114L18.9936 32.8674L19.7992 44.9063L29.2513 28.3114ZM30.0121 63.2196L39.3836 69.8611L48.7641 63.2196H30.0121ZM39.3836 23.836L49.8919 28.4368L39.5447 10.2308L29.2513 28.3114L39.3836 23.836ZM58.1803 56.5513L48.7641 63.2196H69.709L59.1291 44.6377L58.1803 56.5513ZM20.5869 56.5513L19.7992 44.9152L9.38046 63.2196H29.9673L20.5869 56.5513ZM39.3836 0C39.3836 0 1.0562 22.9499 0 68.1694C11.5376 77.8721 36.0002 78.1675 39.3836 78.1138C42.767 78.0601 67.2296 77.8542 78.7672 68.1694C77.7021 22.9499 39.3836 0 39.3836 0ZM58.3056 75.339L39.3836 69.8611L20.4526 75.339L9.38046 63.2196L4.21583 47.2603L18.9936 32.8674L22.9678 14.4108L39.5447 10.2308L55.7905 14.4108L60.0689 32.8674L74.5514 47.2603L69.7 63.2196L58.3056 75.339Z" fill="#FFC700"/>
<path d="M109.95 24.9886H112.548C113.94 25.0209 115.332 24.9247 116.706 24.7011C117.449 24.5308 118.151 24.2158 118.768 23.7746C119.453 23.2678 120.009 22.6116 120.392 21.8576C120.854 20.9234 121.077 19.8925 121.042 18.8544C121.106 17.4977 120.706 16.159 119.905 15.0525C119.201 14.1162 118.192 13.4454 117.047 13.1516C115.499 12.9295 113.932 12.8599 112.369 12.9439H105.954V32.4007H109.95V24.9886ZM109.95 16.1548H111.882C112.842 16.1322 113.803 16.1749 114.757 16.2825C115.384 16.3758 115.958 16.6808 116.381 17.1452C116.811 17.6307 117.037 18.2588 117.014 18.9024C117.044 19.4694 116.884 20.0303 116.56 20.4998C116.254 20.9359 115.817 21.2658 115.309 21.4423C114.283 21.7124 113.219 21.8202 112.158 21.7618H109.95V16.1548ZM121.221 46.2606H107.546V48.3213C107.555 51.0854 107.409 53.8479 107.107 56.5961C106.901 58.605 106.352 60.5654 105.483 62.3948H103.859V69.9028H107.189V65.6536H119.645V69.9028H122.893V62.3948H121.221V46.2606ZM117.242 62.3948H109.722C110.805 59.6791 111.346 55.3661 111.346 49.4555H117.242V62.3948ZM187.19 32.6563C188.476 32.7136 189.76 32.5059 190.96 32.0465C192.16 31.5871 193.249 30.8861 194.157 29.9886C195.846 27.8811 196.764 25.2758 196.764 22.5924C196.764 19.9091 195.846 17.3038 194.157 15.1963C193.242 14.2995 192.147 13.5993 190.942 13.1401C189.737 12.6809 188.448 12.4727 187.157 12.5286C185.696 12.5011 184.244 12.7618 182.886 13.2953C181.925 13.7072 181.058 14.3048 180.336 15.0525C179.557 15.8309 178.924 16.7397 178.469 17.7362C177.819 19.3181 177.51 21.015 177.559 22.7202C177.487 24.0452 177.682 25.371 178.134 26.6212C178.586 27.8715 179.284 29.0214 180.19 30.0046C181.105 30.9009 182.201 31.5997 183.406 32.0563C184.611 32.5128 185.9 32.7172 187.19 32.6563ZM183.195 17.5605C183.709 17.0343 184.325 16.6157 185.007 16.3297C185.69 16.0437 186.424 15.8963 187.166 15.8963C187.907 15.8963 188.641 16.0437 189.324 16.3297C190.006 16.6157 190.623 17.0343 191.136 17.5605C192.237 18.9923 192.769 20.7704 192.631 22.5605C192.772 24.3806 192.229 26.1885 191.104 27.6404C190.605 28.1769 189.998 28.6054 189.321 28.8986C188.644 29.1918 187.913 29.3432 187.174 29.3432C186.434 29.3432 185.703 29.1918 185.026 28.8986C184.35 28.6054 183.743 28.1769 183.243 27.6404C182.243 26.1527 181.709 24.4083 181.709 22.6244C181.709 20.8405 182.243 19.0961 183.243 17.6084L183.195 17.5605ZM322.312 12.9439H318.317V32.4007H322.312V12.9439ZM272.762 31.8257C273.719 31.4402 274.538 30.7842 275.117 29.9407C275.816 28.9478 276.174 27.7613 276.14 26.5541C276.162 25.7882 276.029 25.0255 275.751 24.31C275.472 23.5945 275.052 22.9402 274.516 22.3848C273.771 21.7447 272.902 21.2603 271.961 20.9609C271.02 20.6616 270.027 20.5536 269.043 20.6436H263.683V12.9439H259.623V32.4007H268.978C270.264 32.4292 271.544 32.2345 272.762 31.8257ZM263.618 29.0621V23.9023H267.695C268.841 23.8166 269.99 24.0316 271.024 24.5254C271.35 24.7382 271.614 25.0319 271.788 25.3769C271.962 25.7219 272.04 26.1059 272.015 26.4902C272.043 27.0778 271.832 27.6524 271.43 28.0877C271.099 28.4912 270.642 28.7773 270.131 28.9023C269.269 29.0618 268.392 29.1261 267.516 29.094L263.618 29.0621ZM283.432 23.8065H291.26V32.3209H295.255V12.9439H291.26V20.5956H283.432V12.9439H279.437V32.4007H283.432V23.8065ZM334.476 11.8736C335.549 11.9217 336.598 11.5547 337.399 10.8513C338.187 10.1024 338.652 9.08445 338.699 8.00781H336.847C336.822 8.55695 336.577 9.07395 336.165 9.4455C335.695 9.7828 335.122 9.9519 334.541 9.92474C333.96 9.94935 333.388 9.78049 332.917 9.4455C332.517 9.06731 332.279 8.55303 332.251 8.00781H330.4C330.447 9.08107 330.905 10.097 331.683 10.8513C332.453 11.5199 333.448 11.8841 334.476 11.8736ZM139.589 29.0461H128.383V23.7426H138.322V20.4678H128.383V16.1388H139.069V12.9439H124.452V32.4007H139.508L139.589 29.0461ZM204.031 23.8065H211.859V32.3209H215.855V12.9439H211.713V20.5956H203.885V12.9439H199.89V32.4007H203.885L204.031 23.8065ZM170.706 19.6212V32.3209H174.441V12.9439H170.316L162.326 25.8193V12.9439H158.59V32.4007H162.585L170.706 19.6212ZM147.027 16.1388H156.446V12.9439H143.032V32.4007H147.027V16.1388ZM233.346 32.3368H237.698L229.773 12.9439H225.55L217.836 32.4007H222.075L223.699 27.9758H231.624L233.346 32.3368ZM224.933 24.6372L227.613 17.4167L230.341 24.6372H224.933ZM314.987 29.9726C315.654 28.9678 316.009 27.7939 316.009 26.594C316.009 25.3942 315.654 24.2203 314.987 23.2154C314.377 22.3008 313.491 21.597 312.454 21.2027C311.292 20.7992 310.064 20.6097 308.832 20.6436H303.489V12.9439H299.494V32.4007H308.832C310.106 32.4573 311.38 32.3007 312.6 31.9375C313.579 31.5352 314.412 30.8501 314.987 29.9726ZM311.333 28.0557C310.993 28.457 310.533 28.7421 310.018 28.8704C309.162 29.0301 308.29 29.0944 307.419 29.0621H303.521V23.9023H307.582C308.748 23.8028 309.919 24.0299 310.96 24.5573C311.272 24.7766 311.523 25.0706 311.687 25.4116C311.852 25.7526 311.926 26.1294 311.902 26.5062C311.906 27.0785 311.691 27.6315 311.301 28.0557H311.333ZM302.45 53.8485H294.622V46.2606H290.626V65.7335H294.622V57.2191H302.45V65.7335H306.445V46.2606H302.45V53.8485ZM276.302 57.0434H286.241V53.8485H276.302V49.4555H286.988V46.2606H272.372V65.7335H287.378V62.5386H276.318L276.302 57.0434ZM129.536 57.0434H139.475V53.8485H129.503V49.4555H140.19V46.2606H125.573V65.7335H140.563V62.5386H129.503L129.536 57.0434ZM268.019 46.2606H264.024V62.3948H256.277V46.2606H252.282V65.7335H266.347V69.9827H269.595V62.4747H267.971L268.019 46.2606ZM338.504 19.7011V32.4007H342.239V12.9439H338.26L330.237 25.8992V12.9439H326.502V32.4007H330.497L338.504 19.7011ZM308.994 49.4555H314.857V65.6216H318.853V49.4555H324.732V46.2606H309.011L308.994 49.4555ZM341.167 48.3533C340.463 47.417 339.454 46.7461 338.309 46.4523C336.743 46.1902 335.154 46.0885 333.567 46.1488H327.152V65.6216H331.228V58.2734H333.843C335.229 58.3089 336.615 58.218 337.984 58.0018C338.725 57.8245 339.425 57.5101 340.047 57.0753C340.736 56.5729 341.292 55.9157 341.671 55.1584C342.14 54.2207 342.369 53.184 342.336 52.1392C342.383 50.7947 341.971 49.4735 341.167 48.3852V48.3533ZM337.724 53.7367C337.429 54.1852 336.988 54.5228 336.474 54.6951C335.446 54.9585 334.383 55.061 333.323 54.9987H331.228V49.4555H333.161C334.121 49.4239 335.082 49.4667 336.035 49.5833C336.662 49.6766 337.236 49.9816 337.659 50.4459C338.022 50.8945 338.234 51.4429 338.266 52.0154C338.298 52.5878 338.149 53.1559 337.838 53.6408L337.724 53.7367ZM171.826 45.8613C170.37 45.8338 168.923 46.0945 167.571 46.6281C166.602 47.0338 165.728 47.632 165.005 48.3852C164.233 49.1566 163.611 50.0608 163.17 51.053C162.521 52.6348 162.211 54.3317 162.261 56.037C162.111 58.7127 163.045 61.3378 164.859 63.3373C165.779 64.2361 166.88 64.9362 168.091 65.3928C169.302 65.8494 170.596 66.0525 171.891 65.9891C173.177 66.0463 174.462 65.8386 175.661 65.3792C176.861 64.9198 177.95 64.2189 178.859 63.3213C180.553 61.2162 181.474 58.61 181.474 55.9252C181.474 53.2403 180.553 50.6342 178.859 48.529C177.943 47.6224 176.844 46.9162 175.632 46.4565C174.42 45.9968 173.123 45.7939 171.826 45.8613ZM175.789 60.9252C175.305 61.4753 174.703 61.9126 174.026 62.2054C173.349 62.4983 172.614 62.6394 171.875 62.6184C171.131 62.6374 170.392 62.4957 169.711 62.2031C169.029 61.9105 168.42 61.4743 167.929 60.9252C166.769 59.5115 166.19 57.722 166.305 55.9092C166.166 54.1067 166.703 52.3167 167.815 50.8773C168.32 50.3422 168.938 49.922 169.625 49.6461C170.312 49.3702 171.052 49.2452 171.794 49.2798C172.533 49.2432 173.272 49.3673 173.956 49.6434C174.641 49.9195 175.256 50.3408 175.757 50.8773C176.748 52.3742 177.276 54.1225 177.276 55.9092C177.276 57.6959 176.748 59.4441 175.757 60.9411L175.789 60.9252ZM197.275 55.3181C198.11 54.952 198.816 54.3519 199.305 53.5929C199.803 52.8487 200.063 51.9754 200.052 51.0849C200.066 50.2891 199.858 49.5049 199.452 48.8165C199.075 48.1752 198.553 47.6284 197.925 47.2191C197.309 46.8005 196.603 46.5272 195.862 46.4204C194.705 46.2694 193.537 46.2159 192.371 46.2606H184.445V65.7335H191.185C193.735 65.7335 195.343 65.7335 196.057 65.6057C197.014 65.5156 197.934 65.1976 198.737 64.6791C199.449 64.1605 200.009 63.4662 200.361 62.6664C200.774 61.8698 200.991 60.9888 200.994 60.0945C201.019 59.0343 200.675 57.9975 200.02 57.1552C199.336 56.2624 198.371 55.6167 197.275 55.3181ZM188.44 49.4555H190.747C192.631 49.4555 193.767 49.4555 194.157 49.4555C194.729 49.4961 195.266 49.7403 195.668 50.1424C196.018 50.5524 196.197 51.0773 196.171 51.6121C196.183 51.8908 196.137 52.169 196.037 52.4299C195.936 52.6907 195.783 52.9288 195.586 53.1297C195.143 53.5407 194.57 53.789 193.962 53.8325C193.589 53.8325 192.631 53.8325 191.071 53.8325H188.44V49.4555ZM196.333 61.5162C195.956 61.9287 195.445 62.1996 194.888 62.283C193.978 62.3957 193.06 62.4384 192.143 62.4108H188.44V57.2031H191.689C192.876 57.1467 194.065 57.2379 195.229 57.4747C195.731 57.6364 196.168 57.9494 196.48 58.3693C196.781 58.8066 196.935 59.3266 196.918 59.8549C196.933 60.4501 196.725 61.03 196.333 61.4843V61.5162ZM145.224 57.3309V60.6376C145.224 61.5002 145.078 62.0434 144.802 62.2351C144.305 62.498 143.741 62.6144 143.178 62.5705H142.285V65.6057C143.519 65.7015 144.363 65.7494 144.834 65.7494C145.879 65.8307 146.92 65.5479 147.774 64.9507C148.417 64.3753 148.831 63.5941 148.943 62.7462C149.146 61.0928 149.227 59.4272 149.187 57.7622V49.4555H155.147V65.6216H159.077V46.2606H145.224V57.3309ZM232.923 43.2894C232.34 43.316 231.765 43.1408 231.299 42.7942C231.098 42.6124 230.936 42.3931 230.821 42.149C230.707 41.905 230.643 41.641 230.634 41.3725H228.685C228.735 42.445 229.193 43.4599 229.968 44.2159C230.776 44.9078 231.82 45.2731 232.891 45.2383C233.963 45.2796 235.01 44.9135 235.814 44.2159C236.594 43.4615 237.058 42.4468 237.114 41.3725H235.262C235.249 41.642 235.183 41.9064 235.066 42.1504C234.948 42.3944 234.783 42.6132 234.58 42.7942C234.094 43.1467 233.493 43.3116 232.891 43.2575L232.923 43.2894ZM228.766 59.1839V46.2606H225.031V65.7335H229.026L237.032 52.9539V65.7335H240.768V46.2606H236.756L228.766 59.1839ZM212.363 45.8932C210.907 45.8657 209.46 46.1265 208.108 46.66C207.139 47.0657 206.265 47.6639 205.542 48.4172C204.766 49.1806 204.134 50.0729 203.674 51.053C203.025 52.6348 202.715 54.3317 202.765 56.037C202.69 57.3633 202.883 58.691 203.331 59.9438C203.78 61.1967 204.476 62.3499 205.379 63.3373C207.293 65.048 209.785 65.9959 212.371 65.9959C214.957 65.9959 217.449 65.048 219.363 63.3373C221.057 61.2321 221.978 58.626 221.978 55.9411C221.978 53.2563 221.057 50.6501 219.363 48.545C218.449 47.6356 217.35 46.9263 216.138 46.4638C214.926 46.0013 213.629 45.796 212.33 45.8613L212.363 45.8932ZM216.326 60.9571C215.842 61.5072 215.239 61.9445 214.562 62.2374C213.886 62.5303 213.151 62.6713 212.412 62.6504C211.668 62.6694 210.929 62.5276 210.247 62.235C209.565 61.9425 208.957 61.5062 208.465 60.9571C207.469 59.4648 206.938 57.7184 206.938 55.9332C206.938 54.1479 207.469 52.4016 208.465 50.9092C208.97 50.3741 209.588 49.954 210.275 49.6781C210.962 49.4021 211.703 49.2771 212.444 49.3118C213.183 49.2751 213.922 49.3993 214.607 49.6754C215.292 49.9515 215.906 50.3728 216.407 50.9092C217.398 52.4062 217.926 54.1544 217.926 55.9411C217.926 57.7279 217.398 59.4761 216.407 60.9731L216.326 60.9571ZM255.465 32.3528V12.9439H241.563V27.3209C241.563 28.1835 241.417 28.716 241.125 28.9183C240.63 29.1866 240.064 29.3034 239.501 29.2538H238.656V32.2889C239.891 32.3848 240.735 32.4327 241.206 32.4327C242.251 32.5139 243.292 32.2312 244.146 31.634C244.789 31.0585 245.203 30.2773 245.315 29.4295C245.518 27.7761 245.599 26.1104 245.559 24.4455V16.1388H251.519V32.3049L255.465 32.3528Z" fill="#FFC700"/>
</svg>
