<svg width="39" height="40" viewBox="0 0 39 40" fill="none" xmlns="http://www.w3.org/2000/svg">
<path d="M15.1692 34.7847C15.0561 34.6715 14.8992 34.6064 14.7391 34.6064C14.5792 34.6064 14.4222 34.6715 14.3091 34.7847C14.196 34.8978 14.1309 35.0547 14.1309 35.2147C14.1309 35.3747 14.1959 35.5316 14.3091 35.6448C14.4222 35.7579 14.5792 35.823 14.7391 35.823C14.8992 35.823 15.0561 35.7579 15.1692 35.6448C15.2823 35.5316 15.3474 35.3747 15.3474 35.2147C15.3474 35.0547 15.2824 34.8978 15.1692 34.7847Z" fill="white"/>
<path d="M25.4812 29.9331C25.1453 29.9331 24.8729 30.2054 24.8729 30.5414C24.8729 31.6733 23.9521 32.5942 22.8202 32.5942C22.4843 32.5942 22.2119 32.8665 22.2119 33.2025C22.2119 33.5384 22.4843 33.8107 22.8202 33.8107C24.6229 33.8107 26.0895 32.3441 26.0895 30.5414C26.0895 30.2054 25.8171 29.9331 25.4812 29.9331Z" fill="white"/>
<path d="M29.9269 4.6792C27.1095 4.6792 24.8173 6.97131 24.8173 9.78873V17.0881C24.8173 19.6995 26.7871 21.8583 29.3186 22.1601V27.4896H27.1292C26.1713 26.1411 24.597 25.2596 22.8207 25.2596C22.3556 25.2596 21.9043 25.3203 21.4744 25.4337L19.4455 20.2511H21.9192C22.0621 20.2511 22.1877 20.3423 22.232 20.4783C22.277 20.6169 22.222 20.7226 22.1852 20.7732C22.1485 20.8239 22.065 20.9088 21.9192 20.9088H21.2974C20.9615 20.9088 20.6891 21.1811 20.6891 21.5171C20.6891 21.853 20.9615 22.1253 21.2974 22.1253H21.9192C22.4197 22.1253 22.8754 21.8931 23.1696 21.4882C23.4637 21.0833 23.5436 20.5781 23.3889 20.1022C23.1813 19.4636 22.5907 19.0345 21.9191 19.0345H18.5541C18.353 19.0345 18.165 19.1339 18.0516 19.2999C17.9383 19.466 17.9143 19.6774 17.9876 19.8645L19.1301 22.7827H14.0748L13.6171 21.7355L13.4441 21.2948C13.3528 21.0619 13.1281 20.9088 12.8779 20.9088H10.233C9.72164 20.9088 9.24433 21.161 8.95631 21.5835C8.66823 22.006 8.60776 22.5424 8.79457 23.0185C9.02839 23.6142 9.59299 23.9993 10.233 23.9993H12.2489L11.2705 25.6939C10.6275 25.4148 9.91866 25.2596 9.17419 25.2596C6.26194 25.2597 3.89258 27.629 3.89258 30.5413C3.89258 32.1746 4.63778 33.6369 5.80598 34.6065H4.50086C4.16496 34.6065 3.89258 34.8788 3.89258 35.2147C3.89258 35.5507 4.16496 35.823 4.50086 35.823H9.17425C11.8808 35.823 14.1181 33.7765 14.4207 31.1496H16.8028C17.0081 31.1496 17.1995 31.0461 17.3119 30.8744C17.4243 30.7026 17.4424 30.4857 17.3602 30.2977L14.6067 23.9993H19.6063L20.342 25.8786C18.6757 26.7679 17.5389 28.5243 17.5389 30.5413C17.5389 32.1746 18.2841 33.6369 19.4523 34.6065H17.2942C16.9583 34.6065 16.6859 34.8788 16.6859 35.2147C16.6859 35.5507 16.9583 35.823 17.2942 35.823H22.8206C25.7329 35.823 28.1023 33.4536 28.1023 30.5413C28.1023 29.8963 27.9858 29.2781 27.7733 28.7062H32.1369C32.4727 28.7062 32.7451 28.4339 32.7451 28.0979C32.7451 27.762 32.4727 27.4897 32.1369 27.4897H30.5351V22.1602C33.0667 21.8584 35.0364 19.6996 35.0364 17.0881V9.78873C35.0364 6.97131 32.7442 4.6792 29.9269 4.6792ZM10.233 22.7828C10.0968 22.7828 9.97675 22.7008 9.927 22.5741C9.87183 22.4334 9.92487 22.3225 9.96142 22.2689C9.99798 22.2153 10.0818 22.1254 10.233 22.1254H12.4631L12.7211 22.7828H10.233ZM9.17425 34.6065C6.93269 34.6065 5.10913 32.7828 5.10913 30.5413C5.10913 28.2998 6.93269 26.4762 9.17425 26.4762C9.69725 26.4762 10.1969 26.5766 10.6566 26.7573L8.64748 30.2372C8.53885 30.4254 8.53885 30.6573 8.64748 30.8455C8.75612 31.0337 8.95698 31.1496 9.17425 31.1496H11.135C10.8752 31.9855 10.0945 32.5942 9.17425 32.5942C8.83836 32.5942 8.56597 32.8665 8.56597 33.2024C8.56597 33.5384 8.83836 33.8107 9.17425 33.8107C10.7691 33.8107 12.1 32.6626 12.386 31.1496H13.1938C12.8993 33.1036 11.2091 34.6065 9.17425 34.6065ZM10.2278 29.9331L11.7094 27.367C12.4909 27.9924 13.0379 28.8992 13.1938 29.9331H10.2278ZM15.873 29.9331H14.4207C14.2499 28.4506 13.4632 27.1529 12.3232 26.3036L13.4404 24.3687L15.873 29.9331ZM22.8207 34.6065C20.5791 34.6065 18.7555 32.7828 18.7555 30.5413C18.7555 29.0393 19.575 27.7259 20.7897 27.0221L22.2542 30.7631C22.3481 31.0031 22.5777 31.1498 22.8208 31.1498C22.8945 31.1498 22.9695 31.1363 23.0424 31.1078C23.3552 30.9853 23.5095 30.6325 23.387 30.3196L21.9221 26.5775C22.2114 26.5119 22.5118 26.4762 22.8207 26.4762C25.0622 26.4762 26.8858 28.2998 26.8858 30.5413C26.8858 32.7828 25.0622 34.6065 22.8207 34.6065ZM33.8198 17.0881C33.8198 19.0277 32.3938 20.6403 30.5351 20.9332V18.4038L32.156 16.6733C32.3856 16.4281 32.373 16.0432 32.1278 15.8135C31.8828 15.5839 31.4978 15.5965 31.2681 15.8416L30.5351 16.6241V14.6671L32.156 12.9366C32.3856 12.6914 32.373 12.3065 32.1278 12.0768C31.8828 11.8472 31.4978 11.8598 31.2681 12.1049L30.5351 12.8875V11.8265C30.5351 11.4905 30.2627 11.2182 29.9269 11.2182C29.591 11.2182 29.3186 11.4905 29.3186 11.8265V14.5654L28.6924 13.8969C28.4627 13.6517 28.0778 13.6391 27.8326 13.8688C27.5874 14.0984 27.5748 14.4834 27.8044 14.7285L29.3186 16.3451V20.9332C27.4599 20.6402 26.0339 19.0277 26.0339 17.088V9.78873C26.0339 7.64212 27.7802 5.89575 29.9269 5.89575C32.0735 5.89575 33.8198 7.64212 33.8198 9.78873V17.0881Z" fill="white"/>
<path d="M34.4278 27.4897H34.4198C34.0839 27.4897 33.8115 27.7621 33.8115 28.098C33.8115 28.434 34.0839 28.7063 34.4198 28.7063H34.4278C34.7637 28.7063 35.036 28.434 35.036 28.098C35.036 27.7621 34.7637 27.4897 34.4278 27.4897Z" fill="white"/>
<path d="M18.4207 13.1139H17.4115C17.6509 12.6274 17.7798 12.0878 17.7798 11.5363C17.7798 9.56643 16.1771 7.96387 14.2073 7.96387C12.7404 7.96387 11.4562 8.85846 10.9123 10.1559C10.5633 9.98803 10.1777 9.89795 9.78317 9.89795C8.34654 9.89788 7.17773 11.0667 7.17773 12.5033C7.17773 13.0842 7.36527 13.6341 7.71995 14.0938C7.83516 14.243 8.01296 14.3305 8.20153 14.3305H18.4207C18.7566 14.3305 19.029 14.0581 19.029 13.7222C19.029 13.3862 18.7566 13.1139 18.4207 13.1139ZM15.9565 13.1138H8.53529C8.44253 12.9254 8.39429 12.7183 8.39429 12.5033C8.39429 11.7375 9.01735 11.1144 9.78317 11.1144C10.1757 11.1144 10.5518 11.2819 10.8151 11.5739C10.9745 11.7508 11.2224 11.8183 11.4495 11.7468C11.6766 11.6753 11.8411 11.478 11.8705 11.2418C12.0168 10.0666 13.0213 9.18036 14.2072 9.18036C15.5063 9.18036 16.5632 10.2372 16.5632 11.5363C16.5632 12.1196 16.3444 12.6831 15.9565 13.1138Z" fill="white"/>
</svg>
