<svg width="39" height="40" viewBox="0 0 39 40" fill="none" xmlns="http://www.w3.org/2000/svg">
<path d="M33.5668 18.8496H5.34274C5.18786 18.8496 5.03933 18.9111 4.92982 19.0206C4.82031 19.1302 4.75879 19.2787 4.75879 19.4336V34.8497C4.75879 35.0046 4.82031 35.1531 4.92982 35.2627C5.03933 35.3722 5.18786 35.4337 5.34274 35.4337H33.5668C33.7217 35.4337 33.8702 35.3722 33.9797 35.2627C34.0892 35.1531 34.1508 35.0046 34.1508 34.8497V19.4336C34.1508 19.2787 34.0892 19.1302 33.9797 19.0206C33.8702 18.9111 33.7217 18.8496 33.5668 18.8496ZM32.9829 34.2658H5.94615V20.0175H32.9829V34.2658Z" fill="white"/>
<path d="M19.4651 32.1831C21.7814 32.1831 23.6695 29.9252 23.6695 27.1514C23.6695 24.3777 21.7717 22.1198 19.4651 22.1198C17.1585 22.1198 15.2607 24.3777 15.2607 27.1514C15.2607 29.9252 17.1293 32.1831 19.4651 32.1831ZM19.4651 23.2876C21.1391 23.2876 22.5016 25.02 22.5016 27.1806C22.5016 29.3412 21.1391 31.0736 19.4651 31.0736C17.7911 31.0736 16.4286 29.3412 16.4286 27.1806C16.4286 25.02 17.7717 23.2974 19.4651 23.2974V23.2876ZM8.57451 30.2853C8.93072 30.2853 9.27233 30.4268 9.52421 30.6787C9.77609 30.9305 9.91759 31.2721 9.91759 31.6284C9.91759 31.7832 9.97911 31.9318 10.0886 32.0413C10.1981 32.1508 10.3467 32.2123 10.5015 32.2123H13.83C13.9849 32.2123 14.1334 32.1508 14.2429 32.0413C14.3525 31.9318 14.414 31.7832 14.414 31.6284C14.414 31.4735 14.3525 31.3249 14.2429 31.2154C14.1334 31.1059 13.9849 31.0444 13.83 31.0444H11.0271C10.9183 30.5935 10.6871 30.1814 10.3592 29.8534C10.0312 29.5255 9.61907 29.2943 9.16819 29.1855V25.1173C9.61907 25.0085 10.0312 24.7774 10.3592 24.4494C10.6871 24.1214 10.9183 23.7093 11.0271 23.2584H13.8398C13.9946 23.2584 14.1432 23.1969 14.2527 23.0874C14.3622 22.9779 14.4237 22.8294 14.4237 22.6745C14.4237 22.5196 14.3622 22.3711 14.2527 22.2616C14.1432 22.1521 13.9946 22.0906 13.8398 22.0906H10.5113C10.4346 22.0906 10.3586 22.1057 10.2878 22.135C10.217 22.1644 10.1526 22.2074 10.0984 22.2616C10.0441 22.3158 10.0011 22.3802 9.97177 22.451C9.94243 22.5219 9.92732 22.5978 9.92732 22.6745C9.92732 23.0307 9.78582 23.3723 9.53394 23.6242C9.28207 23.8761 8.94045 24.0176 8.58424 24.0176C8.42937 24.0176 8.28084 24.0791 8.17133 24.1886C8.06182 24.2981 8.0003 24.4467 8.0003 24.6015V29.6916C7.99901 29.7683 8.01284 29.8445 8.041 29.9158C8.06916 29.9872 8.1111 30.0522 8.16443 30.1074C8.21775 30.1625 8.28141 30.2066 8.35177 30.2371C8.42214 30.2676 8.49782 30.284 8.57451 30.2853ZM27.8447 31.0152H25.0321C24.8772 31.0152 24.7287 31.0767 24.6192 31.1862C24.5096 31.2958 24.4481 31.4443 24.4481 31.5992C24.4481 31.754 24.5096 31.9026 24.6192 32.0121C24.7287 32.1216 24.8772 32.1831 25.0321 32.1831H28.3606C28.5154 32.1831 28.664 32.1216 28.7735 32.0121C28.883 31.9026 28.9445 31.754 28.9445 31.5992C28.9445 31.2429 29.086 30.9013 29.3379 30.6495C29.5898 30.3976 29.9314 30.2561 30.2876 30.2561C30.3643 30.2561 30.4402 30.241 30.5111 30.2116C30.5819 30.1823 30.6463 30.1393 30.7005 30.085C30.7547 30.0308 30.7977 29.9664 30.8271 29.8956C30.8564 29.8247 30.8715 29.7488 30.8715 29.6721V24.6113C30.8715 24.5346 30.8564 24.4586 30.8271 24.3878C30.7977 24.3169 30.7547 24.2526 30.7005 24.1983C30.6463 24.1441 30.5819 24.1011 30.5111 24.0718C30.4402 24.0424 30.3643 24.0273 30.2876 24.0273C29.9314 24.0273 29.5898 23.8858 29.3379 23.6339C29.086 23.3821 28.9445 23.0404 28.9445 22.6842C28.9445 22.5294 28.883 22.3808 28.7735 22.2713C28.664 22.1618 28.5154 22.1003 28.3606 22.1003H25.0321C24.8772 22.1003 24.7287 22.1618 24.6192 22.2713C24.5096 22.3808 24.4481 22.5294 24.4481 22.6842C24.4481 22.8391 24.5096 22.9876 24.6192 23.0971C24.7287 23.2067 24.8772 23.2682 25.0321 23.2682H27.8447C27.9559 23.7185 28.1892 24.1294 28.5189 24.4557C28.8486 24.7819 29.2619 25.0109 29.7134 25.1173V29.1466C29.2595 29.2546 28.8445 29.4865 28.5146 29.8164C28.1846 30.1463 27.9528 30.5613 27.8447 31.0152ZM31.874 5.06852H7.05625C6.69008 5.06458 6.32683 5.13397 5.98789 5.27258C5.64895 5.41119 5.34117 5.61623 5.08269 5.87562C4.82421 6.13501 4.62025 6.4435 4.48282 6.78293C4.3454 7.12235 4.27729 7.48584 4.2825 7.852V12.5917C4.28122 12.9572 4.35195 13.3194 4.49066 13.6576C4.62936 13.9958 4.83331 14.3034 5.09088 14.5628C5.34845 14.8221 5.65458 15.0282 5.9918 15.1693C6.32902 15.3104 6.69072 15.3836 7.05625 15.3849H8.42852C8.5834 15.3849 8.73193 15.3234 8.84144 15.2139C8.95095 15.1044 9.01247 14.9558 9.01247 14.801C9.01247 14.6461 8.95095 14.4976 8.84144 14.388C8.73193 14.2785 8.5834 14.217 8.42852 14.217H7.05625C6.84326 14.2157 6.63262 14.1724 6.43646 14.0894C6.2403 14.0064 6.06248 13.8855 5.91323 13.7335C5.76398 13.5815 5.64626 13.4016 5.56683 13.204C5.4874 13.0063 5.44783 12.7949 5.4504 12.582V7.852C5.44781 7.63994 5.4875 7.42949 5.56717 7.23294C5.64683 7.0364 5.76486 6.8577 5.91437 6.70729C6.06387 6.55688 6.24186 6.43777 6.43791 6.35692C6.63397 6.27607 6.84418 6.2351 7.05625 6.23641H31.874C32.3008 6.23898 32.7092 6.41033 33.0101 6.71303C33.311 7.01573 33.4798 7.4252 33.4798 7.852V12.6209C33.4773 13.046 33.3073 13.453 33.0067 13.7536C32.7061 14.0542 32.2991 14.2242 31.874 14.2267H30.5017C30.425 14.2267 30.3491 14.2418 30.2782 14.2712C30.2074 14.3005 30.143 14.3436 30.0888 14.3978C30.0346 14.452 29.9916 14.5164 29.9622 14.5872C29.9329 14.6581 29.9178 14.734 29.9178 14.8107C29.9178 14.8874 29.9329 14.9633 29.9622 15.0342C29.9916 15.105 30.0346 15.1694 30.0888 15.2236C30.143 15.2778 30.2074 15.3208 30.2782 15.3502C30.3491 15.3795 30.425 15.3946 30.5017 15.3946H31.874C32.6088 15.3921 33.3129 15.099 33.8325 14.5794C34.3521 14.0598 34.6452 13.3557 34.6477 12.6209V7.852C34.6477 7.11545 34.3558 6.40894 33.8359 5.88721C33.316 5.36549 32.6105 5.07109 31.874 5.06852Z" fill="white"/>
<path d="M12.2626 16.1831V13.0006C12.2626 12.8457 12.2011 12.6972 12.0916 12.5877C11.9821 12.4782 11.8335 12.4166 11.6787 12.4166C11.5238 12.4166 11.3753 12.4782 11.2658 12.5877C11.1562 12.6972 11.0947 12.8457 11.0947 13.0006V16.1928C11.0947 16.3477 11.1562 16.4962 11.2658 16.6057C11.3753 16.7153 11.5238 16.7768 11.6787 16.7768C11.8335 16.7768 11.9821 16.7153 12.0916 16.6057C12.2011 16.4962 12.2626 16.3477 12.2626 16.1928V16.1831ZM16.1459 16.1831V11.2098C16.1459 11.0549 16.0843 10.9064 15.9748 10.7969C15.8653 10.6874 15.7168 10.6259 15.5619 10.6259C15.407 10.6259 15.2585 10.6874 15.149 10.7969C15.0395 10.9064 14.978 11.0549 14.978 11.2098V16.1831C14.978 16.338 15.0395 16.4865 15.149 16.596C15.2585 16.7055 15.407 16.767 15.5619 16.767C15.7168 16.767 15.8653 16.7055 15.9748 16.596C16.0843 16.4865 16.1459 16.338 16.1459 16.1831ZM20.0291 16.1831V9.60397C20.0291 9.44909 19.9676 9.30056 19.8581 9.19105C19.7486 9.08154 19.6 9.02002 19.4452 9.02002C19.2903 9.02002 19.1418 9.08154 19.0322 9.19105C18.9227 9.30056 18.8612 9.44909 18.8612 9.60397V16.1831C18.8612 16.338 18.9227 16.4865 19.0322 16.596C19.1418 16.7055 19.2903 16.767 19.4452 16.767C19.6 16.767 19.7486 16.7055 19.8581 16.596C19.9676 16.4865 20.0291 16.338 20.0291 16.1831ZM23.9221 16.1831V11.2098C23.9221 11.0549 23.8606 10.9064 23.7511 10.7969C23.6415 10.6874 23.493 10.6259 23.3381 10.6259C23.1833 10.6259 23.0347 10.6874 22.9252 10.7969C22.8157 10.9064 22.7542 11.0549 22.7542 11.2098V16.1831C22.7542 16.338 22.8157 16.4865 22.9252 16.596C23.0347 16.7055 23.1833 16.767 23.3381 16.767C23.493 16.767 23.6415 16.7055 23.7511 16.596C23.8606 16.4865 23.9221 16.338 23.9221 16.1831ZM27.8053 16.1831V13.0006C27.8053 12.8457 27.7438 12.6972 27.6343 12.5877C27.5248 12.4782 27.3763 12.4166 27.2214 12.4166C27.0665 12.4166 26.918 12.4782 26.8085 12.5877C26.699 12.6972 26.6374 12.8457 26.6374 13.0006V16.1928C26.6374 16.3477 26.699 16.4962 26.8085 16.6057C26.918 16.7153 27.0665 16.7768 27.2214 16.7768C27.3763 16.7768 27.5248 16.7153 27.6343 16.6057C27.7438 16.4962 27.8053 16.3477 27.8053 16.1928V16.1831Z" fill="white"/>
</svg>
