<svg width="40" height="40" viewBox="0 0 40 40" fill="none" xmlns="http://www.w3.org/2000/svg">
<path d="M17.5598 16.2802L16.9174 15.7741C16.7198 15.6474 16.5499 15.4821 16.4178 15.2881C16.2856 15.0941 16.1941 14.8754 16.1486 14.6452V7.11225C16.1486 6.76637 16.0112 6.43466 15.7666 6.19008C15.522 5.94551 15.1903 5.80811 14.8444 5.80811H12.3335C11.9876 5.80811 11.6559 5.94551 11.4113 6.19008C11.1667 6.43466 11.0293 6.76637 11.0293 7.11225V14.6646C10.9828 14.897 10.8899 15.1177 10.7561 15.3134C10.6223 15.509 10.4504 15.6757 10.2507 15.8033L9.84196 16.105L9.61811 16.2802C8.27504 17.3313 7.31152 18.0515 7.31152 20.9226V32.037C7.31152 32.7417 7.59145 33.4175 8.08973 33.9158C8.588 34.4141 9.26381 34.694 9.96848 34.694H17.2483C17.953 34.694 18.6288 34.4141 19.1271 33.9158C19.6254 33.4175 19.9053 32.7417 19.9053 32.037V20.9226C19.8761 18.0515 18.9029 17.3313 17.5598 16.2802ZM15.0488 8.49426H12.1291V7.11225C12.1314 7.06655 12.1506 7.02334 12.183 6.99099C12.2154 6.95863 12.2586 6.93942 12.3043 6.93707H14.8347C14.8804 6.93942 14.9236 6.95863 14.956 6.99099C14.9883 7.02334 15.0075 7.06655 15.0099 7.11225L15.0488 8.49426ZM12.1291 14.6646V9.60376H15.0002V14.6646C15.0412 15.0569 15.169 15.435 15.3744 15.7717C15.5798 16.1084 15.8575 16.3951 16.1875 16.6111C16.1875 16.6111 16.6449 16.9518 16.8299 17.1172C18.1048 18.0904 18.6887 18.5576 18.6887 20.8642V32.0662C18.6887 32.4715 18.5278 32.8601 18.2412 33.1467C17.9547 33.4332 17.566 33.5942 17.1608 33.5942H9.95875C9.5535 33.5942 9.16485 33.4332 8.87829 33.1467C8.59174 32.8601 8.43075 32.4715 8.43075 32.0662V20.9226C8.43075 18.6063 9.0147 18.1586 10.2994 17.1659L10.9417 16.6598C11.2832 16.4419 11.5703 16.1489 11.7811 15.8031C11.992 15.4573 12.121 15.0679 12.1583 14.6646H12.1291Z" fill="white"/>
<path d="M10.251 21.1078V28.4363C10.251 28.5834 10.3094 28.7245 10.4135 28.8286C10.5175 28.9326 10.6586 28.9911 10.8057 28.9911H16.3727C16.4455 28.9911 16.5177 28.9767 16.585 28.9488C16.6523 28.921 16.7134 28.8801 16.7649 28.8286C16.8165 28.7771 16.8573 28.7159 16.8852 28.6486C16.9131 28.5813 16.9274 28.5092 16.9274 28.4363V21.1078C16.9288 21.0346 16.9153 20.9618 16.8879 20.8939C16.8605 20.826 16.8197 20.7644 16.7679 20.7126C16.7161 20.6608 16.6544 20.62 16.5865 20.5926C16.5186 20.5652 16.4459 20.5517 16.3727 20.553H10.8057C10.6586 20.553 10.5175 20.6115 10.4135 20.7155C10.3094 20.8196 10.251 20.9607 10.251 21.1078ZM11.3799 27.8621V21.6625H15.8179V27.8621H11.3799ZM33.3461 21.4484C33.219 19.1403 32.8272 16.8544 32.1782 14.6357C32.1508 14.5105 32.0802 14.3989 31.9787 14.3206C31.8773 14.2423 31.7515 14.2022 31.6234 14.2075H23.4092C23.2862 14.2121 23.1677 14.2549 23.07 14.3299C22.9724 14.4048 22.9005 14.5083 22.8642 14.626C22.2143 16.8444 21.8224 19.1304 21.6963 21.4387C21.6406 22.9147 22.1538 24.3557 23.1301 25.4641C24.1063 26.5726 25.4709 27.2638 26.9421 27.3949V33.5556H24.5966C24.4495 33.5556 24.3084 33.614 24.2043 33.7181C24.1003 33.8221 24.0418 33.9632 24.0418 34.1103C24.0418 34.2575 24.1003 34.3986 24.2043 34.5026C24.3084 34.6066 24.4495 34.6651 24.5966 34.6651H30.4361C30.5832 34.6651 30.7243 34.6066 30.8283 34.5026C30.9324 34.3986 30.9908 34.2575 30.9908 34.1103C30.9908 33.9632 30.9324 33.8221 30.8283 33.7181C30.7243 33.614 30.5832 33.5556 30.4361 33.5556H28.11V27.4047C29.5786 27.2689 30.9394 26.576 31.9131 25.4683C32.8868 24.3607 33.3996 22.9223 33.3461 21.4484ZM29.2098 18.0713C29.2098 17.9241 29.1513 17.783 29.0473 17.679C28.9433 17.575 28.8022 17.5165 28.655 17.5165H23.3314C23.4968 16.7574 23.672 15.9691 23.8472 15.3365H31.1952C31.7598 17.3381 32.0865 19.3994 32.1684 21.4776C32.1973 22.1123 32.0973 22.7462 31.8743 23.3411C31.6514 23.936 31.3101 24.4796 30.8712 24.9389C30.4323 25.3983 29.9049 25.7639 29.3207 26.0137C28.7366 26.2634 28.1078 26.3922 27.4725 26.3922C26.8372 26.3922 26.2085 26.2634 25.6243 26.0137C25.0402 25.7639 24.5127 25.3983 24.0738 24.9389C23.6349 24.4796 23.2937 23.936 23.0707 23.3411C22.8478 22.7462 22.7477 22.1123 22.7766 21.4776C22.7997 20.5311 22.894 19.5876 23.0589 18.6552H28.6161C28.6947 18.6609 28.7736 18.6497 28.8475 18.6225C28.9214 18.5953 28.9887 18.5526 29.0449 18.4974C29.101 18.4421 29.1448 18.3756 29.1732 18.3021C29.2017 18.2286 29.2141 18.1499 29.2098 18.0713Z" fill="white"/>
</svg>
