<svg width="40" height="39" viewBox="0 0 40 39" fill="none" xmlns="http://www.w3.org/2000/svg">
<path d="M35.018 4.31173C34.9445 4.28922 34.8673 4.28145 34.7908 4.28884C34.7143 4.29624 34.64 4.31867 34.5722 4.35483C34.5044 4.391 34.4444 4.4402 34.3956 4.49961C34.3469 4.55901 34.3103 4.62746 34.2881 4.70103C34.1713 5.10006 33.7139 6.73511 33.3148 8.17551L33.0034 9.30447C32.6141 10.6767 32.3708 10.7351 31.4657 10.9687L30.5703 11.2023C30.4354 10.9296 30.2456 10.6876 30.0128 10.4917C29.78 10.2958 29.5092 10.15 29.2175 10.0636C28.9454 9.98227 28.6599 9.95588 28.3775 9.98595C28.0951 10.016 27.8215 10.102 27.5727 10.2388C27.314 10.3803 27.086 10.5719 26.9022 10.8025C26.7184 11.0332 26.5824 11.2981 26.5021 11.5819L23.7478 21.4798H18.1809C18.0139 21.2567 17.8318 21.0453 17.6359 20.8471C17.079 20.2865 16.4162 19.842 15.6861 19.5396C14.956 19.2372 14.1731 19.0829 13.3828 19.0856C12.9675 19.0855 12.5534 19.1278 12.1468 19.2121L10.7842 14.3459H14.5702C14.725 14.3459 14.8736 14.2844 14.9831 14.1748C15.0926 14.0653 15.1541 13.9168 15.1541 13.7619V12.6524C15.1421 12.2237 15.0009 11.8085 14.7491 11.4612C14.4974 11.1139 14.1467 10.8507 13.7429 10.7059C11.8205 10.0482 9.84816 9.54702 7.84503 9.20715C7.1085 9.20972 6.40301 9.50412 5.88311 10.0258C5.36321 10.5476 5.07128 11.2541 5.07129 11.9906V13.7814C5.07129 13.9363 5.13281 14.0848 5.24232 14.1943C5.35183 14.3038 5.50036 14.3653 5.65524 14.3653H9.54821L11.0081 19.5625C9.58362 20.1667 8.4474 21.2976 7.83634 22.7191C7.22529 24.1407 7.18656 25.7433 7.72825 27.1927C6.92045 29.4604 6.02507 31.9227 6.01534 31.9227C6.00332 31.9903 6.00332 32.0594 6.01534 32.127C6.0166 32.461 6.08395 32.7914 6.21351 33.0992C6.34308 33.407 6.53228 33.6861 6.77023 33.9204C7.00817 34.1548 7.29015 34.3397 7.59989 34.4645C7.90964 34.5893 8.24103 34.6516 8.57497 34.6477H30.1421C30.8115 34.6452 31.4526 34.3774 31.9251 33.9032C32.3975 33.4289 32.6628 32.7867 32.6628 32.1173C32.6737 32.0529 32.6737 31.9871 32.6628 31.9227C32.6628 31.9227 30.2978 25.3338 29.743 23.8253C29.6414 23.3945 29.4536 22.9888 29.191 22.6325C28.9284 22.2763 28.5964 21.9768 28.215 21.7523L30.7357 12.7887C30.7767 12.6458 30.8028 12.499 30.8136 12.3507L31.7868 12.1074C32.9255 11.8154 33.5971 11.5527 34.1421 9.62564L34.4535 8.48695C34.8526 7.05628 35.3003 5.43096 35.4268 5.03193C35.4474 4.9578 35.4533 4.88031 35.4439 4.80393C35.4345 4.72755 35.4101 4.65377 35.3721 4.58684C35.3342 4.51991 35.2833 4.46115 35.2225 4.41394C35.1618 4.36672 35.0923 4.33199 35.018 4.31173ZM6.23918 11.9906C6.23917 11.5638 6.40805 11.1544 6.70893 10.8517C7.00981 10.549 7.41824 10.3776 7.84503 10.375C9.72076 10.6917 11.569 11.1537 13.3731 11.757C13.5511 11.8279 13.7043 11.9498 13.8133 12.1073C13.9224 12.2649 13.9825 12.4511 13.9862 12.6427V13.1974H6.20025L6.23918 11.9906ZM29.1493 25.616H25.7625C25.6076 25.616 25.4591 25.6776 25.3495 25.7871C25.24 25.8966 25.1785 26.0451 25.1785 26.2C25.1785 26.3549 25.24 26.5034 25.3495 26.6129C25.4591 26.7224 25.6076 26.7839 25.7625 26.7839H29.5678L30.3951 29.1976H23.5824C23.4275 29.1976 23.279 29.2591 23.1695 29.3686C23.06 29.4781 22.9984 29.6267 22.9984 29.7815C22.9984 29.9364 23.06 30.0849 23.1695 30.1944C23.279 30.304 23.4275 30.3655 23.5824 30.3655H30.8623L31.5338 32.2536C31.5093 32.5961 31.3563 32.9168 31.1054 33.1514C30.8546 33.386 30.5244 33.5172 30.181 33.5188H8.57497C8.23153 33.5172 7.90135 33.386 7.65051 33.1514C7.39968 32.9168 7.24669 32.5961 7.22216 32.2536L8.53604 28.6331C8.72471 28.9099 8.93633 29.1704 9.16865 29.4117C10.293 30.5177 11.8057 31.1395 13.3828 31.1441C13.8549 31.1448 14.3253 31.0893 14.7843 30.9786C14.9353 30.9425 15.0657 30.8478 15.1469 30.7155C15.2282 30.5832 15.2535 30.424 15.2174 30.273C15.1812 30.122 15.0866 29.9916 14.9543 29.9103C14.8219 29.8291 14.6628 29.8038 14.5118 29.8399C13.4019 30.1132 12.231 29.9822 11.209 29.4703C10.187 28.9584 9.38086 28.0992 8.93507 27.0467C8.91929 26.9843 8.89296 26.9251 8.85721 26.8715C8.51803 25.994 8.44048 25.037 8.63394 24.1164C8.82739 23.1957 9.28357 22.3509 9.94724 21.6841C10.7009 20.9487 11.6728 20.4776 12.717 20.3415C13.7612 20.2054 14.8213 20.4117 15.7383 20.9294C16.6553 21.4471 17.3796 22.2483 17.8025 23.2127C18.2253 24.1771 18.324 25.2526 18.0836 26.2778C18.0657 26.3526 18.0627 26.4302 18.0748 26.5061C18.0868 26.582 18.1138 26.6548 18.154 26.7203C18.2352 26.8527 18.3657 26.9473 18.5167 26.9835C18.6677 27.0196 18.8268 26.9943 18.9592 26.913C19.0915 26.8318 19.1861 26.7014 19.2223 26.5504C19.5414 25.2498 19.4181 23.88 18.8719 22.6574H26.9206C27.0859 22.6459 27.2517 22.6459 27.417 22.6574C27.8647 22.7644 28.2442 23.0953 28.6043 24.1659L29.1493 25.616ZM29.6068 12.4286L27.0666 21.4895H24.9644L27.6311 11.903C27.6694 11.7694 27.7339 11.6446 27.8207 11.536C27.9076 11.4274 28.0152 11.3371 28.1372 11.2704C28.2519 11.207 28.3783 11.1674 28.5088 11.154C28.6392 11.1406 28.7711 11.1537 28.8963 11.1926C29.1575 11.2674 29.3786 11.4423 29.5116 11.6792C29.6446 11.916 29.6788 12.1958 29.6068 12.4578V12.4286Z" fill="white"/>
<path d="M13.8308 24.6817C13.7792 24.619 13.7152 24.5678 13.6427 24.5312C13.5702 24.4947 13.4909 24.4737 13.4099 24.4695C13.3288 24.4653 13.2478 24.4781 13.1719 24.507C13.0961 24.5359 13.0271 24.5803 12.9694 24.6373C12.9117 24.6944 12.8665 24.7629 12.8367 24.8383C12.8069 24.9138 12.7931 24.9947 12.7964 25.0758C12.7996 25.1569 12.8197 25.2364 12.8553 25.3093C12.891 25.3822 12.9415 25.4469 13.0035 25.4992L16.8284 29.3922C16.8799 29.4549 16.944 29.5061 17.0165 29.5426C17.089 29.5792 17.1682 29.6002 17.2493 29.6044C17.3304 29.6085 17.4114 29.5958 17.4872 29.5669C17.5631 29.538 17.6321 29.4936 17.6898 29.4365C17.7475 29.3795 17.7927 29.311 17.8225 29.2355C17.8523 29.16 17.866 29.0792 17.8628 28.9981C17.8596 28.917 17.8395 28.8374 17.8038 28.7645C17.7682 28.6916 17.7177 28.627 17.6556 28.5747L13.8308 24.6817Z" fill="white"/>
</svg>
