<svg width="39" height="39" viewBox="0 0 39 39" fill="none" xmlns="http://www.w3.org/2000/svg">
<path d="M34.6283 32.9447H33.0906V19.0565C33.0919 18.9828 33.0785 18.9096 33.0512 18.8412C33.0239 18.7728 32.9832 18.7105 32.9316 18.6579C32.8799 18.6054 32.8183 18.5636 32.7504 18.5351C32.6824 18.5067 32.6095 18.492 32.5358 18.492H28.8375V9.50896C28.8388 9.4353 28.8254 9.36211 28.7981 9.29368C28.7708 9.22525 28.7301 9.16294 28.6785 9.11039C28.6269 9.05784 28.5653 9.01611 28.4973 8.98762C28.4294 8.95914 28.3564 8.94447 28.2827 8.94448H23.9907C23.8744 7.8239 23.347 6.78617 22.5103 6.03178C21.6735 5.27739 20.5869 4.85986 19.4603 4.85986C18.3337 4.85986 17.2471 5.27739 16.4103 6.03178C15.5736 6.78617 15.0461 7.8239 14.9298 8.94448H10.6184C10.5447 8.94447 10.4717 8.95914 10.4038 8.98762C10.3359 9.01611 10.2743 9.05784 10.2226 9.11039C10.171 9.16294 10.1303 9.22525 10.103 9.29368C10.0757 9.36211 10.0623 9.4353 10.0636 9.50896V18.492H6.36529C6.29161 18.492 6.21867 18.5067 6.15072 18.5351C6.08278 18.5636 6.02118 18.6054 5.96954 18.6579C5.9179 18.7105 5.87724 18.7728 5.84994 18.8412C5.82264 18.9096 5.80925 18.9828 5.81054 19.0565V32.9447H4.29228C4.15656 32.9626 4.03198 33.0293 3.94175 33.1322C3.85151 33.2352 3.80176 33.3674 3.80176 33.5043C3.80176 33.6412 3.85151 33.7734 3.94175 33.8764C4.03198 33.9793 4.15656 34.046 4.29228 34.0639H34.638C34.7738 34.046 34.8983 33.9793 34.9886 33.8764C35.0788 33.7734 35.1286 33.6412 35.1286 33.5043C35.1286 33.3674 35.0788 33.2352 34.9886 33.1322C34.8983 33.0293 34.7738 32.9626 34.638 32.9447H34.6283ZM19.4652 5.98582C20.1643 5.97423 20.8512 6.17097 21.4382 6.55098C22.0252 6.931 22.4858 7.4771 22.7615 8.11976C23.0371 8.76242 23.1152 9.47257 22.986 10.1598C22.8567 10.847 22.5258 11.4802 22.0355 11.9788C21.5452 12.4774 20.9176 12.8188 20.2326 12.9595C19.5477 13.1003 18.8363 13.034 18.1891 12.7691C17.542 12.5043 16.9882 12.0528 16.5985 11.4722C16.2087 10.8917 16.0005 10.2082 16.0004 9.50896C15.9966 9.05013 16.0831 8.59503 16.2552 8.16965C16.4272 7.74427 16.6813 7.35694 17.0031 7.02978C17.3248 6.70263 17.7078 6.44205 18.1303 6.26292C18.5527 6.0838 19.0063 5.98964 19.4652 5.98582ZM11.1634 10.0734H14.9396C15.0559 11.194 15.5833 12.2318 16.4201 12.9861C17.2568 13.7405 18.3434 14.1581 19.47 14.1581C20.5966 14.1581 21.6833 13.7405 22.52 12.9861C23.3567 12.2318 23.8842 11.194 24.0005 10.0734H27.7767V18.492H26.1221V12.5163C26.1221 12.3692 26.0637 12.2281 25.9597 12.124C25.8556 12.02 25.7145 11.9615 25.5674 11.9615C25.4203 11.9615 25.2792 12.02 25.1751 12.124C25.0711 12.2281 25.0126 12.3692 25.0126 12.5163V18.492H20.0199V16.4093C20.0199 16.2621 19.9615 16.121 19.8574 16.017C19.7534 15.913 19.6123 15.8545 19.4652 15.8545C19.318 15.8545 19.1769 15.913 19.0729 16.017C18.9689 16.121 18.9104 16.2621 18.9104 16.4093V18.492H13.9177V12.5163C13.9177 12.3692 13.8592 12.2281 13.7552 12.124C13.6511 12.02 13.51 11.9615 13.3629 11.9615C13.2158 11.9615 13.0747 12.02 12.9706 12.124C12.8666 12.2281 12.8082 12.3692 12.8082 12.5163V18.492H11.1537L11.1634 10.0734ZM18.9493 32.9349H16.0296V25.8303H18.9493V32.9349ZM23.0175 32.9349H20.0978V25.8303H23.0175V32.9349ZM29.2949 27.0955H27.4944C27.3447 27.0955 27.2011 27.155 27.0953 27.2608C26.9894 27.3667 26.9299 27.5103 26.9299 27.66C26.9299 27.8097 26.9894 27.9533 27.0953 28.0591C27.2011 28.165 27.3447 28.2244 27.4944 28.2244H29.256V29.879H27.4944C27.3447 29.879 27.2011 29.9384 27.0953 30.0443C26.9894 30.1502 26.9299 30.2937 26.9299 30.4434C26.9299 30.5932 26.9894 30.7367 27.0953 30.8426C27.2011 30.9485 27.3447 31.0079 27.4944 31.0079H29.256V32.9544H24.0783V25.3047C24.0796 25.2311 24.0662 25.1579 24.0389 25.0894C24.0116 25.021 23.971 24.9587 23.9193 24.9061C23.8677 24.8536 23.8061 24.8119 23.7381 24.7834C23.6702 24.7549 23.5973 24.7402 23.5236 24.7402H15.397C15.3233 24.7402 15.2504 24.7549 15.1824 24.7834C15.1145 24.8119 15.0529 24.8536 15.0012 24.9061C14.9496 24.9587 14.9089 25.021 14.8816 25.0894C14.8543 25.1579 14.841 25.2311 14.8422 25.3047V32.9739H9.67432V31.0274H11.4359C11.5856 31.0274 11.7292 30.9679 11.835 30.8621C11.9409 30.7562 12.0004 30.6126 12.0004 30.4629C12.0004 30.3132 11.9409 30.1696 11.835 30.0638C11.7292 29.9579 11.5856 29.8984 11.4359 29.8984H9.67432V28.2244H11.4359C11.5856 28.2244 11.7292 28.165 11.835 28.0591C11.9409 27.9533 12.0004 27.8097 12.0004 27.66C12.0004 27.5103 11.9409 27.3667 11.835 27.2608C11.7292 27.155 11.5856 27.0955 11.4359 27.0955H9.67432V22.385H29.256L29.2949 27.0955ZM32.0492 32.9349H30.3947V21.8594C30.396 21.7858 30.3826 21.7126 30.3553 21.6441C30.328 21.5757 30.2873 21.5134 30.2357 21.4609C30.184 21.4083 30.1225 21.3666 30.0545 21.3381C29.9866 21.3096 29.9136 21.2949 29.8399 21.2949H9.11957C9.04589 21.2949 8.97295 21.3096 8.905 21.3381C8.83706 21.3666 8.77546 21.4083 8.72382 21.4609C8.67218 21.5134 8.63152 21.5757 8.60422 21.6441C8.57692 21.7126 8.56353 21.7858 8.56482 21.8594V32.9447H6.92004V19.6112H32.0103L32.0492 32.9349Z" fill="white"/>
<path d="M17.9173 10.0735H18.8905V11.0467C18.8905 11.1938 18.949 11.3349 19.053 11.439C19.157 11.543 19.2981 11.6015 19.4453 11.6015C19.5924 11.6015 19.7335 11.543 19.8375 11.439C19.9416 11.3349 20 11.1938 20 11.0467V10.0735H20.9733C21.123 10.0735 21.2666 10.014 21.3724 9.90813C21.4783 9.80227 21.5377 9.65869 21.5377 9.50898C21.5377 9.35927 21.4783 9.21569 21.3724 9.10983C21.2666 9.00397 21.123 8.9445 20.9733 8.9445H20V7.97125C20 7.82412 19.9416 7.68302 19.8375 7.57899C19.7335 7.47495 19.5924 7.4165 19.4453 7.4165C19.2981 7.4165 19.157 7.47495 19.053 7.57899C18.949 7.68302 18.8905 7.82412 18.8905 7.97125V8.9445H17.9173C17.7816 8.96243 17.657 9.02908 17.5667 9.13203C17.4765 9.23498 17.4268 9.36721 17.4268 9.50411C17.4268 9.64101 17.4765 9.77325 17.5667 9.87619C17.657 9.97914 17.7816 10.0458 17.9173 10.0637V10.0735Z" fill="white"/>
</svg>
