<svg width="40" height="39" viewBox="0 0 40 39" fill="none" xmlns="http://www.w3.org/2000/svg">
<path d="M35.2887 12.7495L29.9845 4.545C29.9314 4.4644 29.8592 4.39821 29.7742 4.35235C29.6893 4.3065 29.5944 4.2824 29.4979 4.28223H10.9089C10.8124 4.2824 10.7174 4.3065 10.6325 4.35235C10.5476 4.39821 10.4753 4.4644 10.4223 4.545L5.11808 12.7495C5.07999 12.8185 5.05678 12.8947 5.04996 12.9733V14.5986C5.04585 14.6374 5.04585 14.6766 5.04996 14.7154C5.18161 15.4383 5.5075 16.1117 5.9927 16.6635C6.47789 17.2152 7.10409 17.6246 7.80418 17.8476C8.50427 18.0706 9.25186 18.099 9.96682 17.9295C10.6818 17.7601 11.3371 17.3992 11.8627 16.8857C12.6162 17.5983 13.6139 17.9953 14.651 17.9953C15.6881 17.9953 16.6858 17.5983 17.4394 16.8857C18.1929 17.5983 19.1906 17.9953 20.2277 17.9953C21.2648 17.9953 22.2625 17.5983 23.016 16.8857C23.7696 17.5983 24.7673 17.9953 25.8044 17.9953C26.8415 17.9953 27.8392 17.5983 28.5927 16.8857C29.1203 17.396 29.7763 17.7537 30.491 17.9208C31.2057 18.0878 31.9523 18.0578 32.6514 17.8341C33.3504 17.6104 33.9757 17.2014 34.4607 16.6505C34.9457 16.0995 35.2722 15.4274 35.4054 14.7057C35.4309 14.0513 35.3918 13.3961 35.2887 12.7495ZM11.2301 5.45012H29.1767L33.7217 12.4769H6.67527L11.2301 5.45012ZM34.1402 14.5013C33.9973 15.1453 33.6406 15.7219 33.128 16.1373C32.6155 16.5526 31.9775 16.7821 31.3178 16.7884C30.8625 16.786 30.4144 16.6743 30.0113 16.4626C29.6082 16.2508 29.2619 15.9454 29.0015 15.5719C28.9438 15.4999 28.8714 15.4409 28.7892 15.399C28.707 15.3571 28.6168 15.333 28.5246 15.3285C28.434 15.3285 28.3445 15.3497 28.2635 15.3902C28.1824 15.4307 28.1118 15.4896 28.0574 15.5621C27.7875 15.9221 27.4379 16.2149 27.0361 16.4174C26.6343 16.62 26.1911 16.727 25.7411 16.73C25.2909 16.7343 24.8461 16.6315 24.4434 16.4301C24.0407 16.2288 23.6915 15.9346 23.4248 15.5719C23.3715 15.4916 23.2992 15.4257 23.2143 15.3801C23.1294 15.3345 23.0345 15.3107 22.9382 15.3107C22.8418 15.3107 22.747 15.3345 22.662 15.3801C22.5771 15.4257 22.5048 15.4916 22.4516 15.5719C22.1916 15.9344 21.8521 16.2326 21.459 16.4434C21.0659 16.6543 20.6297 16.7723 20.1839 16.7884C19.7253 16.7892 19.2733 16.6789 18.8666 16.467C18.4598 16.2552 18.1104 15.9481 17.8481 15.5719C17.7948 15.4975 17.7247 15.4368 17.6435 15.3945C17.5624 15.3523 17.4724 15.3297 17.381 15.3285C17.2884 15.3254 17.1965 15.345 17.1133 15.3858C17.0302 15.4265 16.9583 15.4871 16.9041 15.5621C16.6341 15.9221 16.2845 16.2149 15.8827 16.4174C15.4809 16.62 15.0377 16.727 14.5878 16.73C14.1375 16.7343 13.6927 16.6315 13.29 16.4301C12.8873 16.2288 12.5382 15.9346 12.2714 15.5719C12.2181 15.4975 12.148 15.4368 12.0668 15.3945C11.9857 15.3523 11.8958 15.3297 11.8043 15.3285C11.7115 15.3236 11.6189 15.3424 11.5355 15.3833C11.452 15.4242 11.3804 15.4858 11.3274 15.5621C10.9896 15.9975 10.5354 16.3284 10.0175 16.5166C9.49949 16.7047 8.93886 16.7424 8.40036 16.6254C7.86186 16.5083 7.36748 16.2412 6.97438 15.855C6.58127 15.4688 6.3055 14.9792 6.17892 14.4429V13.6254H34.1402V14.5013Z" fill="white"/>
<path d="M13.6336 7.40647C13.5595 7.38078 13.481 7.37026 13.4028 7.37554C13.3246 7.38082 13.2482 7.4018 13.1783 7.43722C13.1084 7.47264 13.0463 7.52178 12.9957 7.58171C12.9452 7.64164 12.9073 7.71113 12.8842 7.78604L12.0958 9.73252C12.0664 9.80449 12.0516 9.88162 12.0523 9.95939C12.0531 10.0372 12.0693 10.114 12.1002 10.1854C12.131 10.2568 12.1758 10.3213 12.2319 10.3751C12.288 10.429 12.3543 10.4711 12.4269 10.4989C12.4995 10.5268 12.577 10.5399 12.6547 10.5374C12.7324 10.535 12.8089 10.517 12.8796 10.4846C12.9503 10.4522 13.0138 10.406 13.0664 10.3487C13.119 10.2914 13.1596 10.2242 13.1859 10.151L13.9742 8.12667C14.0191 7.98581 14.009 7.83313 13.9458 7.69946C13.8825 7.56579 13.771 7.46108 13.6336 7.40647ZM27.5217 7.78604C27.4639 7.64478 27.3531 7.53178 27.2129 7.47124C27.0728 7.41071 26.9145 7.40744 26.772 7.46215C26.6295 7.51686 26.5141 7.6252 26.4505 7.76395C26.3869 7.90271 26.3802 8.06086 26.4317 8.20453L27.22 10.2289C27.2859 10.3734 27.4064 10.4859 27.5552 10.5416C27.7039 10.5972 27.8687 10.5915 28.0132 10.5257C28.1578 10.4599 28.2703 10.3394 28.3259 10.1906C28.3816 10.0418 28.3759 9.87707 28.3101 9.73252L27.5217 7.78604ZM18.0229 7.37727C17.8708 7.35783 17.7172 7.39899 17.5952 7.49186C17.4732 7.58473 17.3926 7.72185 17.3708 7.87363L17.0983 9.89798C17.079 10.0515 17.1215 10.2065 17.2164 10.3288C17.3113 10.451 17.4508 10.5306 17.6044 10.55H17.6822C17.8229 10.549 17.9583 10.4972 18.0638 10.4042C18.1693 10.3112 18.2377 10.1833 18.2565 10.044L18.529 8.01961C18.5455 7.86761 18.5018 7.71517 18.4071 7.59507C18.3125 7.47496 18.1745 7.39676 18.0229 7.37727ZM22.383 7.37727C22.2295 7.3967 22.0899 7.4763 21.995 7.59857C21.9001 7.72084 21.8576 7.87578 21.8769 8.02935L22.13 10.0537C22.1487 10.1931 22.2171 10.321 22.3226 10.4139C22.4281 10.5069 22.5636 10.5587 22.7042 10.5598H22.782C22.9356 10.5404 23.0752 10.4608 23.17 10.3385C23.2649 10.2162 23.3074 10.0613 23.2881 9.90771L23.0156 7.88336C22.9961 7.73356 22.9193 7.59714 22.8014 7.50277C22.6834 7.4084 22.5334 7.36342 22.383 7.37727ZM32.2712 28.9054V20.4382C32.2712 20.2833 32.2097 20.1348 32.1001 20.0253C31.9906 19.9158 31.8421 19.8543 31.6872 19.8543C31.5324 19.8543 31.3838 19.9158 31.2743 20.0253C31.1648 20.1348 31.1033 20.2833 31.1033 20.4382V29.1974C31.1028 29.3453 31.1584 29.488 31.259 29.5964L32.8357 31.2023V33.4797H7.59944V31.212L9.1469 29.538C9.24747 29.4296 9.30313 29.2869 9.30261 29.139V20.3798C9.30261 20.2249 9.24109 20.0764 9.13158 19.9669C9.02207 19.8574 8.87354 19.7959 8.71867 19.7959C8.5638 19.7959 8.41527 19.8574 8.30576 19.9669C8.19624 20.0764 8.13472 20.2249 8.13472 20.3798V28.8665L6.55807 30.5794C6.45749 30.6879 6.40184 30.8305 6.40235 30.9784V34.0636C6.40235 34.2185 6.46387 34.367 6.57338 34.4765C6.68289 34.5861 6.83142 34.6476 6.98629 34.6476H33.3709C33.5241 34.6476 33.6712 34.5874 33.7805 34.48C33.8897 34.3726 33.9523 34.2265 33.9549 34.0734V30.9882C33.9554 30.8402 33.8997 30.6976 33.7992 30.5891L32.2712 28.9054Z" fill="white"/>
<path d="M28.631 30.9685C28.7858 30.9685 28.9344 30.9069 29.0439 30.7974C29.1534 30.6879 29.2149 30.5394 29.2149 30.3845V20.438C29.2149 20.2831 29.1534 20.1345 29.0439 20.025C28.9344 19.9155 28.7858 19.854 28.631 19.854H22.918C22.7631 19.854 22.6146 19.9155 22.5051 20.025C22.3956 20.1345 22.3341 20.2831 22.3341 20.438V30.3845C22.3341 30.5394 22.3956 30.6879 22.5051 30.7974C22.6146 30.9069 22.7631 30.9685 22.918 30.9685H28.631ZM28.047 21.0122V29.7714H23.502V25.9854H24.4752C24.6301 25.9854 24.7786 25.9239 24.8881 25.8144C24.9976 25.7049 25.0592 25.5564 25.0592 25.4015C25.0592 25.2466 24.9976 25.0981 24.8881 24.9886C24.7786 24.8791 24.6301 24.8175 24.4752 24.8175H23.502V21.0122H28.047ZM19.8426 27.3675C19.9974 27.3675 20.146 27.3059 20.2555 27.1964C20.365 27.0869 20.4265 26.9384 20.4265 26.7835V20.438C20.4265 20.2831 20.365 20.1345 20.2555 20.025C20.146 19.9155 19.9974 19.854 19.8426 19.854H11.7744C11.6195 19.854 11.471 19.9155 11.3615 20.025C11.252 20.1345 11.1904 20.2831 11.1904 20.438V26.7932C11.1904 26.9481 11.252 27.0966 11.3615 27.2061C11.471 27.3157 11.6195 27.3772 11.7744 27.3772L19.8426 27.3675ZM12.3973 21.0122H19.21V26.1996H12.3973V21.0122Z" fill="white"/>
</svg>
