<svg width="39" height="40" viewBox="0 0 39 40" fill="none" xmlns="http://www.w3.org/2000/svg">
<path d="M18.3456 25.7225H5.45012V22.1118H11.9611C12.116 22.1118 12.2645 22.0503 12.374 21.9408C12.4835 21.8313 12.5451 21.6827 12.5451 21.5279V21.0607C12.5464 20.5865 12.4542 20.1168 12.2739 19.6782C12.0937 19.2396 11.8288 18.8409 11.4944 18.5047C11.16 18.1685 10.7627 17.9015 10.3251 17.7188C9.88751 17.5362 9.41824 17.4415 8.94407 17.4402H5.46959C5.49494 16.7294 5.79721 16.0567 6.31183 15.5657C6.82645 15.0747 7.51265 14.8044 8.22387 14.8125H30.6766C31.3311 14.815 31.9636 15.0489 32.4623 15.4728C32.961 15.8967 33.2938 16.4833 33.4017 17.1288C33.4262 17.2824 33.5107 17.4199 33.6367 17.5112C33.7626 17.6025 33.9196 17.6399 34.0732 17.6154C34.2268 17.5909 34.3644 17.5064 34.4556 17.3804C34.5469 17.2545 34.5844 17.0975 34.5599 16.9439C34.4272 16.1477 34.0539 15.4113 33.4901 14.8336C32.9264 14.2559 32.1993 13.8648 31.4065 13.7127C31.5246 13.1821 31.813 12.7047 32.2277 12.3533C32.6424 12.0019 33.1606 11.7957 33.7034 11.7662C33.8583 11.7662 34.0068 11.7047 34.1163 11.5952C34.2258 11.4857 34.2873 11.3372 34.2873 11.1823C34.2873 11.0274 34.2258 10.8789 34.1163 10.7694C34.0068 10.6599 33.8583 10.5983 33.7034 10.5983C33.0742 10.5994 32.4577 10.7757 31.9231 11.1074C31.3885 11.4392 30.9569 11.9134 30.6766 12.4767L27.9029 4.87566C27.8613 4.76451 27.7869 4.66865 27.6896 4.60085C27.5922 4.53304 27.4765 4.4965 27.3578 4.49609H11.5524C11.4337 4.4965 11.318 4.53304 11.2206 4.60085C11.1233 4.66865 11.0489 4.76451 11.0073 4.87566L8.22387 12.5156C7.94362 11.9523 7.51199 11.4781 6.97737 11.1464C6.44275 10.8146 5.82628 10.6383 5.19708 10.6373C5.12039 10.6373 5.04446 10.6524 4.97361 10.6817C4.90276 10.7111 4.83839 10.7541 4.78416 10.8083C4.72994 10.8625 4.68693 10.9269 4.65758 10.9977C4.62824 11.0686 4.61313 11.1445 4.61313 11.2212C4.61313 11.2979 4.62824 11.3738 4.65758 11.4447C4.68693 11.5155 4.72994 11.5799 4.78416 11.6341C4.83839 11.6883 4.90276 11.7314 4.97361 11.7607C5.04446 11.7901 5.12039 11.8052 5.19708 11.8052C5.73984 11.8346 6.25808 12.0408 6.67276 12.3922C7.08745 12.7437 7.37583 13.2211 7.49393 13.7516C6.72333 13.8888 6.01337 14.2591 5.45985 14.8125C5.08675 15.1757 4.79028 15.61 4.588 16.0898C4.38573 16.5695 4.28175 17.085 4.28223 17.6057V29.6837C4.28223 30.1483 4.4668 30.5939 4.79533 30.9224C5.12386 31.2509 5.56945 31.4355 6.03407 31.4355H9.7324C10.197 31.4355 10.6426 31.2509 10.9711 30.9224C11.2997 30.5939 11.4842 30.1483 11.4842 29.6837V26.8904H18.2969C18.4518 26.8904 18.6003 26.8289 18.7099 26.7194C18.8194 26.6099 18.8809 26.4614 18.8809 26.3065C18.8809 26.1516 18.8194 26.0031 18.7099 25.8936C18.6003 25.7841 18.4518 25.7225 18.2969 25.7225H18.3456ZM11.9611 5.66399H26.9491L29.8688 13.6641H9.05112L11.9611 5.66399ZM11.3772 20.9439H5.45012V18.6081H8.94407C9.57214 18.61 10.1753 18.8538 10.6284 19.2887C11.0815 19.7237 11.3497 20.3165 11.3772 20.9439ZM10.3261 29.7031C10.3236 29.8572 10.2612 30.0043 10.1523 30.1133C10.0433 30.2222 9.89622 30.2846 9.74213 30.2871H6.03407C5.87998 30.2846 5.7329 30.2222 5.62393 30.1133C5.51495 30.0043 5.45263 29.8572 5.45012 29.7031V26.8904H10.3163L10.3261 29.7031Z" fill="white"/>
<path d="M18.3455 20.9149H16.0681L15.0949 19.3675C15.0647 19.2865 15.0169 19.2133 14.9549 19.153C14.893 19.0928 14.8184 19.047 14.7366 19.0191C14.6549 18.9911 14.5679 18.9817 14.4821 18.9914C14.3962 19.0012 14.3136 19.0298 14.2401 19.0754C14.1667 19.1209 14.1042 19.1822 14.0573 19.2548C14.0104 19.3273 13.9802 19.4094 13.9689 19.4951C13.9576 19.5808 13.9654 19.6679 13.9918 19.7502C14.0182 19.8324 14.0626 19.9078 14.1217 19.9709L15.2312 21.8006C15.2828 21.8862 15.3556 21.9571 15.4425 22.0065C15.5294 22.0559 15.6275 22.0822 15.7275 22.0828H18.3358C18.4907 22.0828 18.6392 22.0213 18.7487 21.9118C18.8582 21.8023 18.9197 21.6538 18.9197 21.4989C18.9197 21.344 18.8582 21.1955 18.7487 21.086C18.6392 20.9765 18.4907 20.9149 18.3358 20.9149H18.3455ZM34.589 21.2264C34.2873 19.2799 30.9101 18.3066 27.7081 18.3066C24.3602 18.3066 20.7981 19.4259 20.7981 21.4989C20.7919 21.5831 20.7919 21.6677 20.7981 21.7519V31.6693C20.7981 33.7423 24.3602 34.8615 27.7081 34.8615C31.0561 34.8615 34.6182 33.7423 34.6182 31.6693V21.4697C34.6261 21.3874 34.6161 21.3044 34.589 21.2264ZM33.4795 28.224V28.3116C33.4795 29.1583 31.2994 30.3359 27.7373 30.3359C24.1753 30.3359 21.9952 29.1583 21.9952 28.3116V26.7544C23.7497 27.7223 25.735 28.1934 27.7373 28.1169C29.7397 28.1934 31.725 27.7223 33.4795 26.7544V28.224ZM22.0049 24.8566V23.348C23.754 24.3008 25.7275 24.7648 27.7179 24.6911C29.7289 24.7687 31.7225 24.2906 33.4795 23.3091V24.915C33.4795 25.7617 31.2994 26.9393 27.7373 26.9393C24.1753 26.9393 21.9952 25.7617 21.9952 24.915L22.0049 24.8566ZM27.7179 19.4648C31.2702 19.4648 33.46 20.6424 33.46 21.4891C33.46 22.3359 31.2702 23.5719 27.7179 23.5719C24.1655 23.5719 22.1509 22.4721 22.0049 21.6254V21.5086C22.1023 20.5938 24.2434 19.4745 27.7179 19.4745V19.4648ZM27.7179 33.6839C24.1655 33.6839 21.9757 32.5063 21.9757 31.6596V30.1316C23.7303 31.0995 25.7155 31.5706 27.7179 31.4941C29.7202 31.5706 31.7055 31.0995 33.46 30.1316V31.6596C33.4795 32.516 31.2994 33.6936 27.7373 33.6936L27.7179 33.6839Z" fill="white"/>
</svg>
